%TF.GenerationSoftware,KiCad,Pcbnew,9.0.5*%
%TF.CreationDate,2025-11-20T18:17:06+01:00*%
%TF.ProjectId,micromouse-hardware,6d696372-6f6d-46f7-9573-652d68617264,rev?*%
%TF.SameCoordinates,Original*%
%TF.FileFunction,Copper,L2,Bot*%
%TF.FilePolarity,Positive*%
%FSLAX46Y46*%
G04 Gerber Fmt 4.6, Leading zero omitted, Abs format (unit mm)*
G04 Created by KiCad (PCBNEW 9.0.5) date 2025-11-20 18:17:06*
%MOMM*%
%LPD*%
G01*
G04 APERTURE LIST*
G04 Aperture macros list*
%AMRotRect*
0 Rectangle, with rotation*
0 The origin of the aperture is its center*
0 $1 length*
0 $2 width*
0 $3 Rotation angle, in degrees counterclockwise*
0 Add horizontal line*
21,1,$1,$2,0,0,$3*%
G04 Aperture macros list end*
%TA.AperFunction,ComponentPad*%
%ADD10O,1.600000X1.600000*%
%TD*%
%TA.AperFunction,ComponentPad*%
%ADD11C,1.600000*%
%TD*%
%TA.AperFunction,ComponentPad*%
%ADD12R,1.600000X1.600000*%
%TD*%
%TA.AperFunction,ComponentPad*%
%ADD13R,1.700000X1.700000*%
%TD*%
%TA.AperFunction,ComponentPad*%
%ADD14O,1.700000X1.700000*%
%TD*%
%TA.AperFunction,ComponentPad*%
%ADD15R,1.800000X1.800000*%
%TD*%
%TA.AperFunction,ComponentPad*%
%ADD16C,1.800000*%
%TD*%
%TA.AperFunction,ComponentPad*%
%ADD17RotRect,1.800000X1.800000X225.000000*%
%TD*%
%TA.AperFunction,ComponentPad*%
%ADD18RotRect,1.800000X1.800000X135.000000*%
%TD*%
%TA.AperFunction,ViaPad*%
%ADD19C,0.600000*%
%TD*%
%TA.AperFunction,ViaPad*%
%ADD20C,0.800000*%
%TD*%
%TA.AperFunction,Conductor*%
%ADD21C,0.400000*%
%TD*%
%TA.AperFunction,Conductor*%
%ADD22C,0.700000*%
%TD*%
%TA.AperFunction,Conductor*%
%ADD23C,0.600000*%
%TD*%
G04 APERTURE END LIST*
D10*
%TO.P,R20,2*%
%TO.N,GND*%
X181500000Y-66420000D03*
D11*
%TO.P,R20,1*%
%TO.N,Net-(Q8-E)*%
X181500000Y-76580000D03*
%TD*%
D10*
%TO.P,A1,30,VIN*%
%TO.N,unconnected-(A1-VIN-Pad30)*%
X168755000Y-95560000D03*
%TO.P,A1,29,GND*%
%TO.N,GND*%
X166215000Y-95560000D03*
%TO.P,A1,28,~{RESET}*%
%TO.N,unconnected-(A1-~{RESET}-Pad28)*%
X163675000Y-95560000D03*
%TO.P,A1,27,+5V*%
%TO.N,+5V*%
X161135000Y-95560000D03*
%TO.P,A1,26,A7*%
%TO.N,unconnected-(A1-A7-Pad26)*%
X158595000Y-95560000D03*
%TO.P,A1,25,A6*%
%TO.N,unconnected-(A1-A6-Pad25)*%
X156055000Y-95560000D03*
%TO.P,A1,24,A5*%
%TO.N,unconnected-(A1-A5-Pad24)*%
X153515000Y-95560000D03*
%TO.P,A1,23,A4*%
%TO.N,/M2-C1*%
X150975000Y-95560000D03*
%TO.P,A1,22,A3*%
%TO.N,/M2-C2*%
X148435000Y-95560000D03*
%TO.P,A1,21,A2*%
%TO.N,/M1-C2*%
X145895000Y-95560000D03*
%TO.P,A1,20,A1*%
%TO.N,/M1-C1*%
X143355000Y-95560000D03*
%TO.P,A1,19,A0*%
%TO.N,/IRT_READ*%
X140815000Y-95560000D03*
%TO.P,A1,18,AREF*%
%TO.N,unconnected-(A1-AREF-Pad18)*%
X138275000Y-95560000D03*
%TO.P,A1,17,3V3*%
%TO.N,unconnected-(A1-3V3-Pad17)*%
X135735000Y-95560000D03*
%TO.P,A1,16,D13*%
%TO.N,Net-(A1-D13)*%
X133195000Y-95560000D03*
%TO.P,A1,15,D12*%
%TO.N,Net-(A1-D12)*%
X133195000Y-80320000D03*
%TO.P,A1,14,D11*%
%TO.N,/M2-IN2*%
X135735000Y-80320000D03*
%TO.P,A1,13,D10*%
%TO.N,unconnected-(A1-D10-Pad13)*%
X138275000Y-80320000D03*
%TO.P,A1,12,D9*%
%TO.N,unconnected-(A1-D9-Pad12)*%
X140815000Y-80320000D03*
%TO.P,A1,11,D8*%
%TO.N,/MUX_SEL_2*%
X143355000Y-80320000D03*
%TO.P,A1,10,D7*%
%TO.N,/MUX_SEL_1*%
X145895000Y-80320000D03*
%TO.P,A1,9,D6*%
%TO.N,/M1-IN2*%
X148435000Y-80320000D03*
%TO.P,A1,8,D5*%
%TO.N,/M1-IN1*%
X150975000Y-80320000D03*
%TO.P,A1,7,D4*%
%TO.N,/MUX_SEL_0*%
X153515000Y-80320000D03*
%TO.P,A1,6,D3*%
%TO.N,/M2-IN1*%
X156055000Y-80320000D03*
%TO.P,A1,5,D2*%
%TO.N,/LED_DEMUX_ENABLE*%
X158595000Y-80320000D03*
%TO.P,A1,4,GND*%
%TO.N,GND*%
X161135000Y-80320000D03*
%TO.P,A1,3,~{RESET}*%
%TO.N,unconnected-(A1-~{RESET}-Pad3)*%
X163675000Y-80320000D03*
%TO.P,A1,2,D0/RX*%
%TO.N,unconnected-(A1-D0{slash}RX-Pad2)*%
X166215000Y-80320000D03*
D12*
%TO.P,A1,1,D1/TX*%
%TO.N,unconnected-(A1-D1{slash}TX-Pad1)*%
X168755000Y-80320000D03*
%TD*%
D13*
%TO.P,ME1,1,M1*%
%TO.N,Net-(ME1-M1)*%
X148500000Y-121730000D03*
D14*
%TO.P,ME1,2,GND*%
%TO.N,GND*%
X148500000Y-124270000D03*
%TO.P,ME1,3,C1*%
%TO.N,/M1-C1*%
X148500000Y-126810000D03*
%TO.P,ME1,4,C2*%
%TO.N,/M1-C2*%
X148500000Y-129350000D03*
%TO.P,ME1,5,VCC*%
%TO.N,+5V*%
X148500000Y-131890000D03*
%TO.P,ME1,6,M2*%
%TO.N,Net-(ME1-M2)*%
X148500000Y-134430000D03*
%TD*%
D15*
%TO.P,Q8,1,C*%
%TO.N,+5V*%
X184895000Y-80770000D03*
D16*
%TO.P,Q8,2,E*%
%TO.N,Net-(Q8-E)*%
X184895000Y-78230000D03*
%TD*%
D15*
%TO.P,D3,1,K*%
%TO.N,Net-(D3-K)*%
X154775000Y-51255000D03*
D16*
%TO.P,D3,2,A*%
%TO.N,+5V*%
X152235000Y-51255000D03*
%TD*%
D17*
%TO.P,Q5,1,C*%
%TO.N,+5V*%
X123618700Y-63307900D03*
D16*
%TO.P,Q5,2,E*%
%TO.N,Net-(Q5-E)*%
X121822649Y-65103951D03*
%TD*%
D15*
%TO.P,D1,1,K*%
%TO.N,Net-(D1-K)*%
X114755000Y-84225000D03*
D16*
%TO.P,D1,2,A*%
%TO.N,+5V*%
X114755000Y-86765000D03*
%TD*%
D15*
%TO.P,Q6,1,C*%
%TO.N,+5V*%
X148770000Y-51105000D03*
D16*
%TO.P,Q6,2,E*%
%TO.N,Net-(Q6-E)*%
X146230000Y-51105000D03*
%TD*%
D11*
%TO.P,R17,1*%
%TO.N,Net-(Q5-E)*%
X131420000Y-53000000D03*
D10*
%TO.P,R17,2*%
%TO.N,GND*%
X141580000Y-53000000D03*
%TD*%
D11*
%TO.P,R18,1*%
%TO.N,Net-(Q6-E)*%
X151000000Y-57000000D03*
D10*
%TO.P,R18,2*%
%TO.N,GND*%
X140840000Y-57000000D03*
%TD*%
D15*
%TO.P,D5,1,K*%
%TO.N,Net-(D5-K)*%
X184745000Y-86775000D03*
D16*
%TO.P,D5,2,A*%
%TO.N,+5V*%
X184745000Y-84235000D03*
%TD*%
D13*
%TO.P,ME2,1,M1*%
%TO.N,Net-(ME2-M1)*%
X153000000Y-121650000D03*
D14*
%TO.P,ME2,2,GND*%
%TO.N,GND*%
X153000000Y-124190000D03*
%TO.P,ME2,3,C1*%
%TO.N,/M2-C1*%
X153000000Y-126730000D03*
%TO.P,ME2,4,C2*%
%TO.N,/M2-C2*%
X153000000Y-129270000D03*
%TO.P,ME2,5,VCC*%
%TO.N,+5V*%
X153000000Y-131810000D03*
%TO.P,ME2,6,M2*%
%TO.N,Net-(ME2-M2)*%
X153000000Y-134350000D03*
%TD*%
D17*
%TO.P,D2,1,K*%
%TO.N,Net-(D2-K)*%
X127971000Y-59167800D03*
D16*
%TO.P,D2,2,A*%
%TO.N,+5V*%
X126174949Y-60963851D03*
%TD*%
D18*
%TO.P,D4,1,K*%
%TO.N,Net-(D4-K)*%
X173385000Y-61051000D03*
D16*
%TO.P,D4,2,A*%
%TO.N,+5V*%
X171588949Y-59254949D03*
%TD*%
D11*
%TO.P,R16,1*%
%TO.N,Net-(Q4-E)*%
X119000000Y-77580000D03*
D10*
%TO.P,R16,2*%
%TO.N,GND*%
X119000000Y-67420000D03*
%TD*%
D12*
%TO.P,SW2,1*%
%TO.N,Net-(A1-D13)*%
X117735000Y-99692500D03*
D10*
%TO.P,SW2,2*%
%TO.N,Net-(A1-D12)*%
X115195000Y-99692500D03*
%TO.P,SW2,3*%
%TO.N,+5V*%
X115195000Y-107312500D03*
%TO.P,SW2,4*%
X117735000Y-107312500D03*
%TD*%
D18*
%TO.P,Q7,1,C*%
%TO.N,+5V*%
X177995400Y-65300700D03*
D16*
%TO.P,Q7,2,E*%
%TO.N,Net-(Q7-E)*%
X176199349Y-63504649D03*
%TD*%
D13*
%TO.P,J1,1,Pin_1*%
%TO.N,GND*%
X129665000Y-104540000D03*
D14*
%TO.P,J1,2,Pin_2*%
%TO.N,Net-(J1-Pin_2)*%
X129665000Y-107080000D03*
%TD*%
D15*
%TO.P,Q4,1,C*%
%TO.N,+5V*%
X114605000Y-78230000D03*
D16*
%TO.P,Q4,2,E*%
%TO.N,Net-(Q4-E)*%
X114605000Y-80770000D03*
%TD*%
D11*
%TO.P,R19,1*%
%TO.N,Net-(Q7-E)*%
X158340000Y-53000000D03*
D10*
%TO.P,R19,2*%
%TO.N,GND*%
X168500000Y-53000000D03*
%TD*%
D13*
%TO.P,SW3,1,A*%
%TO.N,+VBAT*%
X136540000Y-104450000D03*
D14*
%TO.P,SW3,2,B*%
%TO.N,Net-(J1-Pin_2)*%
X136540000Y-106990000D03*
%TO.P,SW3,3,C*%
%TO.N,unconnected-(SW3-C-Pad3)*%
X136540000Y-109530000D03*
%TD*%
D19*
%TO.N,GND*%
X114250000Y-91750000D03*
X124500000Y-88750000D03*
X118750000Y-89000000D03*
X127750000Y-75250000D03*
X123000000Y-76250000D03*
X122000000Y-73750000D03*
X124000000Y-72750000D03*
X122750000Y-70750000D03*
X127000000Y-63750000D03*
X127250000Y-62250000D03*
X136750000Y-69250000D03*
X131000000Y-68750000D03*
X133000000Y-64750000D03*
X125250000Y-66750000D03*
X126250000Y-67500000D03*
X126250000Y-65000000D03*
X148750000Y-68250000D03*
X148250000Y-62500000D03*
X160500000Y-64000000D03*
X160500000Y-58500000D03*
X157000000Y-61000000D03*
X164250000Y-66000000D03*
X171250000Y-66000000D03*
X168500000Y-62250000D03*
X170500000Y-63000000D03*
X159000000Y-57000000D03*
X157750000Y-64000000D03*
X159000000Y-64000000D03*
X136750000Y-58750000D03*
X138500000Y-66500000D03*
X138500000Y-64000000D03*
X142000000Y-64500000D03*
X153500000Y-68000000D03*
X154250000Y-67000000D03*
X154250000Y-64500000D03*
X149250000Y-61500000D03*
X148750000Y-65500000D03*
X178500000Y-77750000D03*
X175000000Y-78000000D03*
X172000000Y-75000000D03*
X178000000Y-75500000D03*
X178000000Y-71250000D03*
X178750000Y-69000000D03*
X172750000Y-69000000D03*
X169250000Y-70250000D03*
X168000000Y-72250000D03*
X173500000Y-74500000D03*
X173500000Y-71000000D03*
X170750000Y-70250000D03*
X175000000Y-104000000D03*
X178750000Y-103750000D03*
X176500000Y-99500000D03*
X179250000Y-100250000D03*
X169500000Y-98000000D03*
X170500000Y-99000000D03*
X154000000Y-108250000D03*
X154000000Y-106250000D03*
X154000000Y-104750000D03*
X167000000Y-110750000D03*
X167000000Y-108000000D03*
X167250000Y-105750000D03*
X167250000Y-104000000D03*
X167500000Y-102000000D03*
X167750000Y-100750000D03*
X167500000Y-99250000D03*
%TO.N,Net-(U3-Y4)*%
X158544978Y-72118564D03*
X171065000Y-80410000D03*
%TO.N,Net-(U3-Y3)*%
X166265000Y-68500000D03*
X168250000Y-60250000D03*
%TO.N,Net-(Q8-E)*%
X163545000Y-70595000D03*
%TO.N,Net-(Q7-E)*%
X163250000Y-67000000D03*
%TO.N,Net-(Q6-E)*%
X160290000Y-75780000D03*
%TO.N,Net-(Q5-E)*%
X159057500Y-75832500D03*
%TO.N,Net-(Q4-E)*%
X157690000Y-78480000D03*
D20*
%TO.N,+VBAT*%
X160125000Y-112550000D03*
X152230000Y-97960000D03*
D19*
%TO.N,/M1-IN2*%
X149715000Y-87070000D03*
%TO.N,/M2-C1*%
X147022500Y-115877500D03*
X146255000Y-98490000D03*
%TO.N,/M1-C2*%
X143920000Y-121670000D03*
%TO.N,/LED_DEMUX_ENABLE*%
X155460000Y-82160000D03*
D20*
%TO.N,+5V*%
X127400000Y-71765000D03*
X155207500Y-111372500D03*
X179545000Y-89435000D03*
X147200000Y-109770000D03*
D19*
%TO.N,/IRT_READ*%
X160555000Y-72770000D03*
X142215000Y-91820000D03*
%TO.N,GND*%
X152035000Y-117465000D03*
X109990000Y-103995000D03*
X184120000Y-69535000D03*
X174410000Y-83100000D03*
X140830000Y-77845000D03*
X161555000Y-67675000D03*
X110745000Y-76740000D03*
X157745000Y-110905000D03*
X115585000Y-90220000D03*
X147610000Y-46385000D03*
X150555000Y-71985000D03*
X189115000Y-75945000D03*
X117150000Y-83120000D03*
X158920000Y-93070000D03*
X126045000Y-105835000D03*
X183790000Y-90555000D03*
X190335000Y-79635000D03*
X148500000Y-89415000D03*
X150780000Y-136105000D03*
X151555000Y-69120000D03*
X118130000Y-60990000D03*
X150920000Y-49065000D03*
X151190000Y-138090000D03*
X152000000Y-111545000D03*
X131120000Y-70440000D03*
X167485000Y-68395000D03*
X175945000Y-111165000D03*
X121650000Y-119805000D03*
X160130000Y-52725000D03*
X172750000Y-79580000D03*
X125450000Y-74650000D03*
X165890000Y-120180000D03*
X156475000Y-93605000D03*
X152255000Y-96560000D03*
X173095000Y-53860000D03*
X163575000Y-97775000D03*
X119945000Y-87335000D03*
X190200000Y-114465000D03*
X118905000Y-110900000D03*
X165525000Y-84960000D03*
X181900000Y-70035000D03*
X184980000Y-65450000D03*
X126915000Y-102820000D03*
X180930000Y-60965000D03*
X149775000Y-83190000D03*
X147455000Y-114575000D03*
X156250000Y-104945000D03*
X149320000Y-116005000D03*
X187285000Y-81880000D03*
X182580000Y-118340000D03*
X161265000Y-48620000D03*
X189620000Y-107410000D03*
X131560000Y-50005000D03*
X147080000Y-105695000D03*
X120615000Y-90420000D03*
X134760000Y-57830000D03*
X127590000Y-52260000D03*
X173000000Y-98500000D03*
X146990000Y-104140000D03*
X160290000Y-110810000D03*
X161995000Y-97775000D03*
X141425000Y-99200000D03*
X177250000Y-96250000D03*
X130350000Y-77020000D03*
X157310000Y-128470000D03*
X139190000Y-57500000D03*
X149530000Y-143840000D03*
X154125000Y-110630000D03*
X149420000Y-111490000D03*
X157310000Y-138580000D03*
X188475000Y-72670000D03*
X189955000Y-144110000D03*
X139445000Y-116950000D03*
X189560000Y-85790000D03*
X164120000Y-49390000D03*
X138880000Y-89615000D03*
X136275000Y-82800000D03*
X110525000Y-91960000D03*
X149300000Y-114180000D03*
X108885000Y-93435000D03*
X111535000Y-74590000D03*
X165555000Y-78220000D03*
X133450000Y-99200000D03*
X149670000Y-48155000D03*
X163945000Y-67980000D03*
X116850000Y-75655000D03*
X165455000Y-135530000D03*
X146805000Y-108115000D03*
X156250000Y-102750000D03*
X152820000Y-87305000D03*
X173230000Y-64610000D03*
X180200000Y-144410000D03*
X156385000Y-132310000D03*
X171110000Y-52840000D03*
X140795000Y-113460000D03*
X183180000Y-62960000D03*
X150865000Y-134780000D03*
X158630000Y-58370000D03*
X109150000Y-90150000D03*
X109340000Y-115520000D03*
X142395000Y-127500000D03*
X123445000Y-108500000D03*
X126120000Y-97035000D03*
X145790000Y-120810000D03*
X138140000Y-76265000D03*
X175020000Y-55275000D03*
X160710000Y-115140000D03*
X164250000Y-77585000D03*
X155905000Y-86635000D03*
X182095000Y-103700000D03*
X151815000Y-89380000D03*
X147350000Y-111035000D03*
X150610000Y-76405000D03*
X153635000Y-97525000D03*
X110225000Y-108315000D03*
X165870000Y-145050000D03*
X156745000Y-124005000D03*
X131640000Y-111030000D03*
X162170000Y-55305000D03*
X137625000Y-97420000D03*
X157705000Y-49990000D03*
X117910000Y-138820000D03*
X187640000Y-93100000D03*
X142415000Y-82390000D03*
X190560000Y-95785000D03*
X133285000Y-103960000D03*
X160530000Y-97820000D03*
X177350000Y-89035000D03*
X184955000Y-72695000D03*
X168740000Y-89080000D03*
X148400000Y-93270000D03*
X150945000Y-93200000D03*
X155575000Y-117540000D03*
X171455000Y-113680000D03*
X155835000Y-59195000D03*
X117245000Y-81920000D03*
X124835000Y-103725000D03*
X166855000Y-50645000D03*
X130925000Y-119045000D03*
X151750000Y-85295000D03*
X117430000Y-93740000D03*
X133055000Y-73355000D03*
X126330000Y-76490000D03*
X170025000Y-77630000D03*
X158135000Y-143385000D03*
X166330000Y-139685000D03*
X115455000Y-111335000D03*
X113290000Y-73805000D03*
X129190000Y-76390000D03*
X137705000Y-100510000D03*
X165480000Y-110620000D03*
X135120000Y-76505000D03*
X175310000Y-88645000D03*
X179705000Y-82680000D03*
X124720000Y-55670000D03*
X124215000Y-60070000D03*
X159315000Y-72880000D03*
X155905000Y-88510000D03*
X184125000Y-92765000D03*
X145570000Y-122380000D03*
X156970000Y-56325000D03*
X129230000Y-93680000D03*
X158485000Y-118070000D03*
X132155000Y-140625000D03*
X114550000Y-93805000D03*
X138065000Y-70385000D03*
X110090000Y-96220000D03*
X145755000Y-118655000D03*
X152720000Y-93000000D03*
X136320000Y-116325000D03*
X119375000Y-104465000D03*
X152010000Y-113925000D03*
X153750000Y-57250000D03*
X109175000Y-82080000D03*
X130310000Y-74315000D03*
X116180000Y-65945000D03*
X152510000Y-83130000D03*
X184205000Y-76220000D03*
X165255000Y-90455000D03*
X165250000Y-97750000D03*
X129920000Y-57345000D03*
X112215000Y-119695000D03*
X150785000Y-77305000D03*
X132880000Y-109355000D03*
X189715000Y-119695000D03*
X160695000Y-83615000D03*
X162010000Y-110855000D03*
X184955000Y-74725000D03*
X138430000Y-92415000D03*
X156250000Y-108410000D03*
X135255000Y-86295000D03*
X145495000Y-68675000D03*
X159725000Y-82780000D03*
X135625000Y-48795000D03*
X132660000Y-112755000D03*
X140780000Y-82425000D03*
X179245000Y-120075000D03*
X175300000Y-85655000D03*
X136430000Y-76550000D03*
X146210000Y-83140000D03*
X119700000Y-145365000D03*
X151420000Y-46190000D03*
X134815000Y-145085000D03*
X127620000Y-111435000D03*
X143970000Y-77880000D03*
X188120000Y-104500000D03*
X164585000Y-76445000D03*
X116135000Y-68510000D03*
X122505000Y-57905000D03*
X121585000Y-97595000D03*
X157250000Y-97500000D03*
X111205000Y-145280000D03*
X137440000Y-77630000D03*
X131575000Y-101245000D03*
X164160000Y-110715000D03*
X127580000Y-85500000D03*
X160430000Y-92195000D03*
X155200000Y-84420000D03*
X176920000Y-112305000D03*
X116805000Y-77965000D03*
X169175000Y-116425000D03*
X119635000Y-60275000D03*
X169595000Y-119695000D03*
X123160000Y-110125000D03*
X133995000Y-91785000D03*
X170485000Y-84960000D03*
X122495000Y-61755000D03*
X149945000Y-100185000D03*
X120250000Y-84000000D03*
X182850000Y-139250000D03*
X187455000Y-100600000D03*
X145215000Y-131385000D03*
X110040000Y-111075000D03*
X156750000Y-101250000D03*
X108550000Y-97930000D03*
X109800000Y-84600000D03*
X180260000Y-86080000D03*
X176410000Y-68060000D03*
X158685000Y-85160000D03*
X169645000Y-56000000D03*
X159970000Y-78750000D03*
X108920000Y-102655000D03*
X119765000Y-74245000D03*
X190225000Y-91495000D03*
X141040000Y-48290000D03*
X169975000Y-61200000D03*
X150010000Y-102085000D03*
X148300000Y-77830000D03*
X146390000Y-123495000D03*
X177045000Y-57135000D03*
X172690000Y-68000000D03*
X156250000Y-107000000D03*
X129860000Y-135320000D03*
X152065000Y-115650000D03*
X164250000Y-61000000D03*
X113660000Y-69505000D03*
X176715000Y-135765000D03*
X143715000Y-50160000D03*
X136140000Y-61525000D03*
X156645000Y-109875000D03*
X141195000Y-87890000D03*
X118820000Y-115050000D03*
X138800000Y-140470000D03*
X190825000Y-135160000D03*
X154640000Y-45690000D03*
X159625000Y-86535000D03*
%TO.N,/M2-C2*%
X146970000Y-117295000D03*
X145685000Y-97695000D03*
%TO.N,/M1-IN1*%
X149843897Y-85191103D03*
%TO.N,GND*%
X166880000Y-74525000D03*
%TD*%
D21*
%TO.N,+5V*%
X161135000Y-95560000D02*
X159445000Y-97250000D01*
X159445000Y-97250000D02*
X158750000Y-97250000D01*
X158750000Y-97250000D02*
X155207500Y-100792500D01*
X155207500Y-100792500D02*
X155207500Y-111372500D01*
%TO.N,Net-(Q7-E)*%
X161750000Y-56410000D02*
X158340000Y-53000000D01*
X163250000Y-67000000D02*
X162322500Y-66072500D01*
X162322500Y-66072500D02*
X162317500Y-66072500D01*
X162317500Y-66072500D02*
X161750000Y-65505000D01*
X161750000Y-65505000D02*
X161750000Y-56410000D01*
%TO.N,Net-(U3-Y3)*%
X166265000Y-68500000D02*
X166250000Y-68485000D01*
X168250000Y-60300000D02*
X168250000Y-60250000D01*
X166250000Y-68485000D02*
X166250000Y-62300000D01*
X166250000Y-62300000D02*
X168250000Y-60300000D01*
%TO.N,Net-(Q6-E)*%
X151000000Y-57000000D02*
X151000000Y-58250000D01*
X151000000Y-58250000D02*
X156145000Y-63395000D01*
X156145000Y-63395000D02*
X156145000Y-71635000D01*
D22*
%TO.N,Net-(J1-Pin_2)*%
X129660000Y-107070000D02*
X136120000Y-107070000D01*
D21*
%TO.N,Net-(U3-Y4)*%
X158566436Y-72118564D02*
X159246000Y-71439000D01*
X162094000Y-71439000D02*
X171065000Y-80410000D01*
X159246000Y-71439000D02*
X162094000Y-71439000D01*
X158544978Y-72118564D02*
X158566436Y-72118564D01*
%TO.N,Net-(Q8-E)*%
X170500000Y-76580000D02*
X164515000Y-70595000D01*
X164515000Y-70595000D02*
X163545000Y-70595000D01*
X170500000Y-76580000D02*
X181500000Y-76580000D01*
%TO.N,Net-(Q6-E)*%
X146500000Y-53250000D02*
X147250000Y-53250000D01*
X146230000Y-51105000D02*
X146230000Y-52980000D01*
X160290000Y-75780000D02*
X156145000Y-71635000D01*
X146230000Y-52980000D02*
X146500000Y-53250000D01*
X147250000Y-53250000D02*
X151000000Y-57000000D01*
%TO.N,Net-(Q5-E)*%
X157715000Y-74490000D02*
X138455000Y-74490000D01*
X159057500Y-75832500D02*
X157715000Y-74490000D01*
X131420000Y-67455000D02*
X131420000Y-53000000D01*
X138455000Y-74490000D02*
X131420000Y-67455000D01*
%TO.N,Net-(Q4-E)*%
X120795000Y-77580000D02*
X119000000Y-77580000D01*
X122065000Y-78850000D02*
X120795000Y-77580000D01*
X157320000Y-78850000D02*
X122065000Y-78850000D01*
X157690000Y-78480000D02*
X157320000Y-78850000D01*
D22*
%TO.N,+VBAT*%
X160125000Y-112550000D02*
X147175000Y-112550000D01*
D23*
X150095000Y-97960000D02*
X149515000Y-98540000D01*
D22*
X136540000Y-104450000D02*
X137990000Y-104450000D01*
D23*
X145345000Y-99765000D02*
X140660000Y-104450000D01*
X150095000Y-97960000D02*
X152230000Y-97960000D01*
D22*
X139075000Y-104450000D02*
X142645000Y-108020000D01*
D23*
X146355000Y-99765000D02*
X145345000Y-99765000D01*
D22*
X147175000Y-112550000D02*
X142645000Y-108020000D01*
D23*
X149515000Y-98540000D02*
X147580000Y-98540000D01*
X147580000Y-98540000D02*
X146355000Y-99765000D01*
X140660000Y-104450000D02*
X137990000Y-104450000D01*
D22*
X137990000Y-104450000D02*
X139075000Y-104450000D01*
D21*
%TO.N,/M1-IN2*%
X149715000Y-87070000D02*
X149715000Y-86335000D01*
X148435000Y-85055000D02*
X148435000Y-80320000D01*
X149715000Y-86335000D02*
X148435000Y-85055000D01*
%TO.N,/M2-C1*%
X151150000Y-119995000D02*
X151150000Y-124880000D01*
X146912000Y-97848000D02*
X148687000Y-97848000D01*
X147602500Y-116447500D02*
X147592500Y-116447500D01*
X151150000Y-124880000D02*
X153000000Y-126730000D01*
X147592500Y-116447500D02*
X147022500Y-115877500D01*
X148687000Y-97848000D02*
X150975000Y-95560000D01*
X147602500Y-116447500D02*
X151150000Y-119995000D01*
X146270000Y-98490000D02*
X146912000Y-97848000D01*
%TO.N,/M1-C2*%
X143920000Y-121670000D02*
X143920000Y-124770000D01*
X143920000Y-124770000D02*
X148500000Y-129350000D01*
%TO.N,/LED_DEMUX_ENABLE*%
X155470000Y-82150000D02*
X158080000Y-82150000D01*
X158595000Y-81635000D02*
X158595000Y-80320000D01*
X155460000Y-82160000D02*
X155470000Y-82150000D01*
X158080000Y-82150000D02*
X158595000Y-81635000D01*
%TO.N,+5V*%
X112790000Y-104907500D02*
X112790000Y-88730000D01*
X153000000Y-48750000D02*
X152235000Y-49515000D01*
X127400000Y-71765000D02*
X127400000Y-71560000D01*
X151357786Y-109770000D02*
X153018786Y-111431000D01*
X127400000Y-71560000D02*
X123618700Y-67778700D01*
X158500000Y-48750000D02*
X153000000Y-48750000D01*
X112790000Y-88730000D02*
X114755000Y-86765000D01*
X153018786Y-111431000D02*
X155149000Y-111431000D01*
X147200000Y-109770000D02*
X151357786Y-109770000D01*
X123618700Y-67778700D02*
X123618700Y-63307900D01*
X153000000Y-131810000D02*
X148580000Y-131810000D01*
X171588949Y-59254949D02*
X169004949Y-59254949D01*
X155149000Y-111431000D02*
X155207500Y-111372500D01*
X179545000Y-89435000D02*
X184745000Y-84235000D01*
X152235000Y-49515000D02*
X152235000Y-51255000D01*
X169004949Y-59254949D02*
X158500000Y-48750000D01*
X115195000Y-107312500D02*
X112790000Y-104907500D01*
%TO.N,/IRT_READ*%
X160555000Y-72790000D02*
X162336000Y-74571000D01*
X162336000Y-86949000D02*
X157465000Y-91820000D01*
X157465000Y-91820000D02*
X142215000Y-91820000D01*
X162336000Y-74571000D02*
X162336000Y-86949000D01*
X160555000Y-72770000D02*
X160555000Y-72790000D01*
%TO.N,/M2-C2*%
X146265000Y-97115000D02*
X147565000Y-97115000D01*
X145685000Y-97695000D02*
X146265000Y-97115000D01*
X150340000Y-120665000D02*
X146970000Y-117295000D01*
X150350000Y-126620000D02*
X153000000Y-129270000D01*
X150350000Y-120665000D02*
X150340000Y-120665000D01*
X150350000Y-120665000D02*
X150350000Y-126620000D01*
X148435000Y-96245000D02*
X148435000Y-95560000D01*
X147565000Y-97115000D02*
X148435000Y-96245000D01*
%TO.N,/M1-IN1*%
X150975000Y-84060000D02*
X150975000Y-80320000D01*
X149843897Y-85191103D02*
X150975000Y-84060000D01*
%TD*%
%TA.AperFunction,Conductor*%
%TO.N,GND*%
G36*
X150413923Y-79353868D02*
G01*
X150417291Y-79362000D01*
X150413923Y-79370132D01*
X150411012Y-79372246D01*
X150398215Y-79378766D01*
X150398212Y-79378767D01*
X150398212Y-79378768D01*
X150300152Y-79450013D01*
X150258072Y-79480586D01*
X150135586Y-79603072D01*
X150033769Y-79743210D01*
X149955125Y-79897558D01*
X149901597Y-80062301D01*
X149874500Y-80233386D01*
X149874500Y-80406613D01*
X149901597Y-80577698D01*
X149955125Y-80742441D01*
X149955126Y-80742444D01*
X149955127Y-80742445D01*
X150033768Y-80896788D01*
X150135586Y-81036928D01*
X150258072Y-81159414D01*
X150398212Y-81261232D01*
X150468222Y-81296903D01*
X150473937Y-81303595D01*
X150474500Y-81307149D01*
X150474500Y-83847921D01*
X150471132Y-83856053D01*
X149728418Y-84598766D01*
X149723263Y-84601742D01*
X149612113Y-84631525D01*
X149475181Y-84710582D01*
X149363376Y-84822387D01*
X149284322Y-84959314D01*
X149284318Y-84959324D01*
X149243397Y-85112046D01*
X149243397Y-85127819D01*
X149240029Y-85135951D01*
X149231897Y-85139319D01*
X149223765Y-85135951D01*
X148938868Y-84851054D01*
X148935500Y-84842922D01*
X148935500Y-81307149D01*
X148938868Y-81299017D01*
X148941775Y-81296904D01*
X149011788Y-81261232D01*
X149151928Y-81159414D01*
X149274414Y-81036928D01*
X149376232Y-80896788D01*
X149454873Y-80742445D01*
X149508402Y-80577701D01*
X149535500Y-80406611D01*
X149535500Y-80233389D01*
X149526761Y-80178216D01*
X149508402Y-80062301D01*
X149508402Y-80062299D01*
X149454873Y-79897555D01*
X149376232Y-79743212D01*
X149274414Y-79603072D01*
X149151928Y-79480586D01*
X149011788Y-79378768D01*
X148998988Y-79372246D01*
X148993272Y-79365554D01*
X148993963Y-79356779D01*
X149000655Y-79351063D01*
X149004209Y-79350500D01*
X150405791Y-79350500D01*
X150413923Y-79353868D01*
G37*
%TD.AperFunction*%
%TA.AperFunction,Conductor*%
G36*
X150640649Y-45005388D02*
G01*
X151920729Y-45044444D01*
X151920997Y-45044457D01*
X153199336Y-45122534D01*
X153199582Y-45122553D01*
X154474932Y-45239578D01*
X154475184Y-45239605D01*
X155746404Y-45395473D01*
X155746635Y-45395504D01*
X157012478Y-45590062D01*
X157012792Y-45590116D01*
X158272058Y-45823175D01*
X158272348Y-45823233D01*
X159523987Y-46094602D01*
X159524225Y-46094658D01*
X160766963Y-46404060D01*
X160767282Y-46404145D01*
X162000002Y-46751301D01*
X162000254Y-46751376D01*
X162866688Y-47024158D01*
X163221800Y-47135959D01*
X163222132Y-47136068D01*
X164431402Y-47557732D01*
X164431668Y-47557830D01*
X165627483Y-48016163D01*
X165627804Y-48016291D01*
X166809108Y-48510889D01*
X166809391Y-48511013D01*
X167975074Y-49041410D01*
X167975303Y-49041518D01*
X168544608Y-49321819D01*
X169124249Y-49607209D01*
X169124561Y-49607368D01*
X170255750Y-50207848D01*
X170256011Y-50207993D01*
X171368316Y-50842665D01*
X171368577Y-50842818D01*
X172256676Y-51386115D01*
X172461027Y-51511127D01*
X172461314Y-51511308D01*
X173532850Y-52212607D01*
X173533133Y-52212798D01*
X174536516Y-52914108D01*
X174582775Y-52946440D01*
X174583060Y-52946645D01*
X175609862Y-53711973D01*
X175610140Y-53712187D01*
X176613126Y-54508473D01*
X176613397Y-54508696D01*
X177591595Y-55335167D01*
X177591859Y-55335397D01*
X178309370Y-55980127D01*
X178544399Y-56191315D01*
X178544651Y-56191548D01*
X178995342Y-56622077D01*
X179470718Y-57076186D01*
X179470967Y-57076433D01*
X180369521Y-57988796D01*
X180369764Y-57989049D01*
X180672588Y-58315891D01*
X181115670Y-58794117D01*
X181240156Y-58928476D01*
X181240385Y-58928731D01*
X182070412Y-59881284D01*
X182081682Y-59894217D01*
X182081895Y-59894469D01*
X182884243Y-60874035D01*
X182893398Y-60885211D01*
X182893600Y-60885466D01*
X183590192Y-61790898D01*
X183674501Y-61900483D01*
X183674710Y-61900764D01*
X184424265Y-62939083D01*
X184424466Y-62939370D01*
X185142032Y-64000100D01*
X185142224Y-64000394D01*
X185827087Y-65082483D01*
X185827270Y-65082782D01*
X186478826Y-66185269D01*
X186478993Y-66185563D01*
X186589137Y-66385624D01*
X187096614Y-67307390D01*
X187096779Y-67307699D01*
X187679924Y-68447882D01*
X187680079Y-68448197D01*
X188228167Y-69605605D01*
X188228312Y-69605924D01*
X188740855Y-70779523D01*
X188740990Y-70779847D01*
X189217484Y-71968478D01*
X189217610Y-71968805D01*
X189657662Y-73171493D01*
X189657777Y-73171825D01*
X190060918Y-74387284D01*
X190061024Y-74387618D01*
X190426933Y-75614886D01*
X190427028Y-75615224D01*
X190755336Y-76853063D01*
X190755420Y-76853403D01*
X191045814Y-78100624D01*
X191045889Y-78100967D01*
X191298123Y-79356519D01*
X191298187Y-79356864D01*
X191512014Y-80619523D01*
X191512067Y-80619870D01*
X191687283Y-81888427D01*
X191687326Y-81888775D01*
X191823778Y-83162119D01*
X191823810Y-83162468D01*
X191921367Y-84439381D01*
X191921388Y-84439731D01*
X191979956Y-85718991D01*
X191979967Y-85719342D01*
X191999499Y-86999934D01*
X191999500Y-87000109D01*
X191999500Y-147488000D01*
X191996132Y-147496132D01*
X191988000Y-147499500D01*
X108012000Y-147499500D01*
X108003868Y-147496132D01*
X108000500Y-147488000D01*
X108000500Y-139355772D01*
X111299500Y-139355772D01*
X111299500Y-139405888D01*
X111299500Y-139644228D01*
X111337151Y-139930217D01*
X111337152Y-139930221D01*
X111337153Y-139930228D01*
X111337153Y-139930229D01*
X111411807Y-140208839D01*
X111411807Y-140208840D01*
X111522197Y-140475348D01*
X111666422Y-140725152D01*
X111666424Y-140725155D01*
X111666425Y-140725156D01*
X111842026Y-140954004D01*
X112045996Y-141157974D01*
X112274844Y-141333575D01*
X112274847Y-141333577D01*
X112524651Y-141477802D01*
X112524652Y-141477802D01*
X112524655Y-141477804D01*
X112791155Y-141588191D01*
X112791159Y-141588192D01*
X113069771Y-141662846D01*
X113069772Y-141662846D01*
X113069783Y-141662849D01*
X113355772Y-141700500D01*
X113355776Y-141700500D01*
X113644224Y-141700500D01*
X113644228Y-141700500D01*
X113930217Y-141662849D01*
X113930228Y-141662846D01*
X113930229Y-141662846D01*
X114003136Y-141643310D01*
X114208845Y-141588191D01*
X114475345Y-141477804D01*
X114725156Y-141333575D01*
X114954004Y-141157974D01*
X115157974Y-140954004D01*
X115333575Y-140725156D01*
X115477804Y-140475345D01*
X115588191Y-140208845D01*
X115662849Y-139930217D01*
X115700500Y-139644228D01*
X115700500Y-139355772D01*
X123299500Y-139355772D01*
X123299500Y-139405888D01*
X123299500Y-139644228D01*
X123337151Y-139930217D01*
X123337152Y-139930221D01*
X123337153Y-139930228D01*
X123337153Y-139930229D01*
X123411807Y-140208839D01*
X123411807Y-140208840D01*
X123522197Y-140475348D01*
X123666422Y-140725152D01*
X123666424Y-140725155D01*
X123666425Y-140725156D01*
X123842026Y-140954004D01*
X124045996Y-141157974D01*
X124274844Y-141333575D01*
X124274847Y-141333577D01*
X124524651Y-141477802D01*
X124524652Y-141477802D01*
X124524655Y-141477804D01*
X124791155Y-141588191D01*
X124791159Y-141588192D01*
X125069771Y-141662846D01*
X125069772Y-141662846D01*
X125069783Y-141662849D01*
X125355772Y-141700500D01*
X125355776Y-141700500D01*
X125644224Y-141700500D01*
X125644228Y-141700500D01*
X125930217Y-141662849D01*
X125930228Y-141662846D01*
X125930229Y-141662846D01*
X126003136Y-141643310D01*
X126208845Y-141588191D01*
X126475345Y-141477804D01*
X126725156Y-141333575D01*
X126954004Y-141157974D01*
X127157974Y-140954004D01*
X127333575Y-140725156D01*
X127477804Y-140475345D01*
X127588191Y-140208845D01*
X127662849Y-139930217D01*
X127700500Y-139644228D01*
X127700500Y-139355772D01*
X172299500Y-139355772D01*
X172299500Y-139405888D01*
X172299500Y-139644228D01*
X172337151Y-139930217D01*
X172337152Y-139930221D01*
X172337153Y-139930228D01*
X172337153Y-139930229D01*
X172411807Y-140208839D01*
X172411807Y-140208840D01*
X172522197Y-140475348D01*
X172666422Y-140725152D01*
X172666424Y-140725155D01*
X172666425Y-140725156D01*
X172842026Y-140954004D01*
X173045996Y-141157974D01*
X173274844Y-141333575D01*
X173274847Y-141333577D01*
X173524651Y-141477802D01*
X173524652Y-141477802D01*
X173524655Y-141477804D01*
X173791155Y-141588191D01*
X173791159Y-141588192D01*
X174069771Y-141662846D01*
X174069772Y-141662846D01*
X174069783Y-141662849D01*
X174355772Y-141700500D01*
X174355776Y-141700500D01*
X174644224Y-141700500D01*
X174644228Y-141700500D01*
X174930217Y-141662849D01*
X174930228Y-141662846D01*
X174930229Y-141662846D01*
X175003136Y-141643310D01*
X175208845Y-141588191D01*
X175475345Y-141477804D01*
X175725156Y-141333575D01*
X175954004Y-141157974D01*
X176157974Y-140954004D01*
X176333575Y-140725156D01*
X176477804Y-140475345D01*
X176588191Y-140208845D01*
X176662849Y-139930217D01*
X176700500Y-139644228D01*
X176700500Y-139355772D01*
X184299500Y-139355772D01*
X184299500Y-139405888D01*
X184299500Y-139644228D01*
X184337151Y-139930217D01*
X184337152Y-139930221D01*
X184337153Y-139930228D01*
X184337153Y-139930229D01*
X184411807Y-140208839D01*
X184411807Y-140208840D01*
X184522197Y-140475348D01*
X184666422Y-140725152D01*
X184666424Y-140725155D01*
X184666425Y-140725156D01*
X184842026Y-140954004D01*
X185045996Y-141157974D01*
X185274844Y-141333575D01*
X185274847Y-141333577D01*
X185524651Y-141477802D01*
X185524652Y-141477802D01*
X185524655Y-141477804D01*
X185791155Y-141588191D01*
X185791159Y-141588192D01*
X186069771Y-141662846D01*
X186069772Y-141662846D01*
X186069783Y-141662849D01*
X186355772Y-141700500D01*
X186355776Y-141700500D01*
X186644224Y-141700500D01*
X186644228Y-141700500D01*
X186930217Y-141662849D01*
X186930228Y-141662846D01*
X186930229Y-141662846D01*
X187003136Y-141643310D01*
X187208845Y-141588191D01*
X187475345Y-141477804D01*
X187725156Y-141333575D01*
X187954004Y-141157974D01*
X188157974Y-140954004D01*
X188333575Y-140725156D01*
X188477804Y-140475345D01*
X188588191Y-140208845D01*
X188662849Y-139930217D01*
X188700500Y-139644228D01*
X188700500Y-139355772D01*
X188662849Y-139069783D01*
X188588191Y-138791155D01*
X188477804Y-138524655D01*
X188450439Y-138477258D01*
X188333577Y-138274847D01*
X188333575Y-138274844D01*
X188157974Y-138045996D01*
X187954004Y-137842026D01*
X187725156Y-137666425D01*
X187725155Y-137666424D01*
X187725152Y-137666422D01*
X187475348Y-137522197D01*
X187208840Y-137411807D01*
X186930228Y-137337153D01*
X186930221Y-137337152D01*
X186930217Y-137337151D01*
X186699318Y-137306752D01*
X186644229Y-137299500D01*
X186644228Y-137299500D01*
X186355772Y-137299500D01*
X186355770Y-137299500D01*
X186245591Y-137314005D01*
X186069783Y-137337151D01*
X186069779Y-137337151D01*
X186069771Y-137337153D01*
X186069770Y-137337153D01*
X185791160Y-137411807D01*
X185791159Y-137411807D01*
X185524651Y-137522197D01*
X185274847Y-137666422D01*
X185189026Y-137732275D01*
X185045996Y-137842026D01*
X185045991Y-137842031D01*
X185045989Y-137842032D01*
X184842032Y-138045989D01*
X184842031Y-138045991D01*
X184842026Y-138045996D01*
X184732275Y-138189026D01*
X184666422Y-138274847D01*
X184522197Y-138524651D01*
X184411807Y-138791159D01*
X184411807Y-138791160D01*
X184337153Y-139069770D01*
X184337153Y-139069771D01*
X184337151Y-139069779D01*
X184337151Y-139069783D01*
X184299500Y-139355772D01*
X176700500Y-139355772D01*
X176662849Y-139069783D01*
X176588191Y-138791155D01*
X176477804Y-138524655D01*
X176450439Y-138477258D01*
X176333577Y-138274847D01*
X176333575Y-138274844D01*
X176157974Y-138045996D01*
X175954004Y-137842026D01*
X175725156Y-137666425D01*
X175725155Y-137666424D01*
X175725152Y-137666422D01*
X175475348Y-137522197D01*
X175208840Y-137411807D01*
X174930228Y-137337153D01*
X174930221Y-137337152D01*
X174930217Y-137337151D01*
X174699318Y-137306752D01*
X174644229Y-137299500D01*
X174644228Y-137299500D01*
X174355772Y-137299500D01*
X174355770Y-137299500D01*
X174245591Y-137314005D01*
X174069783Y-137337151D01*
X174069779Y-137337151D01*
X174069771Y-137337153D01*
X174069770Y-137337153D01*
X173791160Y-137411807D01*
X173791159Y-137411807D01*
X173524651Y-137522197D01*
X173274847Y-137666422D01*
X173189026Y-137732275D01*
X173045996Y-137842026D01*
X173045991Y-137842031D01*
X173045989Y-137842032D01*
X172842032Y-138045989D01*
X172842031Y-138045991D01*
X172842026Y-138045996D01*
X172732275Y-138189026D01*
X172666422Y-138274847D01*
X172522197Y-138524651D01*
X172411807Y-138791159D01*
X172411807Y-138791160D01*
X172337153Y-139069770D01*
X172337153Y-139069771D01*
X172337151Y-139069779D01*
X172337151Y-139069783D01*
X172299500Y-139355772D01*
X127700500Y-139355772D01*
X127662849Y-139069783D01*
X127588191Y-138791155D01*
X127477804Y-138524655D01*
X127450439Y-138477258D01*
X127333577Y-138274847D01*
X127333575Y-138274844D01*
X127157974Y-138045996D01*
X126954004Y-137842026D01*
X126725156Y-137666425D01*
X126725155Y-137666424D01*
X126725152Y-137666422D01*
X126475348Y-137522197D01*
X126208840Y-137411807D01*
X125930228Y-137337153D01*
X125930221Y-137337152D01*
X125930217Y-137337151D01*
X125699318Y-137306752D01*
X125644229Y-137299500D01*
X125644228Y-137299500D01*
X125355772Y-137299500D01*
X125355770Y-137299500D01*
X125245591Y-137314005D01*
X125069783Y-137337151D01*
X125069779Y-137337151D01*
X125069771Y-137337153D01*
X125069770Y-137337153D01*
X124791160Y-137411807D01*
X124791159Y-137411807D01*
X124524651Y-137522197D01*
X124274847Y-137666422D01*
X124189026Y-137732275D01*
X124045996Y-137842026D01*
X124045991Y-137842031D01*
X124045989Y-137842032D01*
X123842032Y-138045989D01*
X123842031Y-138045991D01*
X123842026Y-138045996D01*
X123732275Y-138189026D01*
X123666422Y-138274847D01*
X123522197Y-138524651D01*
X123411807Y-138791159D01*
X123411807Y-138791160D01*
X123337153Y-139069770D01*
X123337153Y-139069771D01*
X123337151Y-139069779D01*
X123337151Y-139069783D01*
X123299500Y-139355772D01*
X115700500Y-139355772D01*
X115662849Y-139069783D01*
X115588191Y-138791155D01*
X115477804Y-138524655D01*
X115450439Y-138477258D01*
X115333577Y-138274847D01*
X115333575Y-138274844D01*
X115157974Y-138045996D01*
X114954004Y-137842026D01*
X114725156Y-137666425D01*
X114725155Y-137666424D01*
X114725152Y-137666422D01*
X114475348Y-137522197D01*
X114208840Y-137411807D01*
X113930228Y-137337153D01*
X113930221Y-137337152D01*
X113930217Y-137337151D01*
X113699318Y-137306752D01*
X113644229Y-137299500D01*
X113644228Y-137299500D01*
X113355772Y-137299500D01*
X113355770Y-137299500D01*
X113245591Y-137314005D01*
X113069783Y-137337151D01*
X113069779Y-137337151D01*
X113069771Y-137337153D01*
X113069770Y-137337153D01*
X112791160Y-137411807D01*
X112791159Y-137411807D01*
X112524651Y-137522197D01*
X112274847Y-137666422D01*
X112189026Y-137732275D01*
X112045996Y-137842026D01*
X112045991Y-137842031D01*
X112045989Y-137842032D01*
X111842032Y-138045989D01*
X111842031Y-138045991D01*
X111842026Y-138045996D01*
X111732275Y-138189026D01*
X111666422Y-138274847D01*
X111522197Y-138524651D01*
X111411807Y-138791159D01*
X111411807Y-138791160D01*
X111337153Y-139069770D01*
X111337153Y-139069771D01*
X111337151Y-139069779D01*
X111337151Y-139069783D01*
X111299500Y-139355772D01*
X108000500Y-139355772D01*
X108000500Y-134339451D01*
X147349500Y-134339451D01*
X147349500Y-134520548D01*
X147377828Y-134699406D01*
X147433787Y-134871635D01*
X147433788Y-134871638D01*
X147433789Y-134871639D01*
X147516004Y-135032994D01*
X147622447Y-135179501D01*
X147750499Y-135307553D01*
X147897006Y-135413996D01*
X148058361Y-135496211D01*
X148230591Y-135552171D01*
X148320022Y-135566335D01*
X148409452Y-135580500D01*
X148409454Y-135580500D01*
X148590548Y-135580500D01*
X148662091Y-135569168D01*
X148769409Y-135552171D01*
X148941639Y-135496211D01*
X149102994Y-135413996D01*
X149249501Y-135307553D01*
X149377553Y-135179501D01*
X149483996Y-135032994D01*
X149566211Y-134871639D01*
X149622171Y-134699409D01*
X149650500Y-134520546D01*
X149650500Y-134339454D01*
X149637829Y-134259454D01*
X149637829Y-134259451D01*
X151849500Y-134259451D01*
X151849500Y-134440548D01*
X151877828Y-134619406D01*
X151933787Y-134791635D01*
X151933788Y-134791638D01*
X151933789Y-134791639D01*
X152016004Y-134952994D01*
X152122447Y-135099501D01*
X152250499Y-135227553D01*
X152397006Y-135333996D01*
X152558361Y-135416211D01*
X152730591Y-135472171D01*
X152820022Y-135486335D01*
X152909452Y-135500500D01*
X152909454Y-135500500D01*
X153090548Y-135500500D01*
X153162091Y-135489168D01*
X153269409Y-135472171D01*
X153441639Y-135416211D01*
X153602994Y-135333996D01*
X153749501Y-135227553D01*
X153877553Y-135099501D01*
X153983996Y-134952994D01*
X154066211Y-134791639D01*
X154122171Y-134619409D01*
X154150500Y-134440546D01*
X154150500Y-134259454D01*
X154122171Y-134080591D01*
X154066211Y-133908361D01*
X153983996Y-133747006D01*
X153877553Y-133600499D01*
X153749501Y-133472447D01*
X153602994Y-133366004D01*
X153441639Y-133283789D01*
X153441638Y-133283788D01*
X153441635Y-133283787D01*
X153269406Y-133227828D01*
X153090548Y-133199500D01*
X153090546Y-133199500D01*
X152909454Y-133199500D01*
X152909452Y-133199500D01*
X152730593Y-133227828D01*
X152558364Y-133283787D01*
X152397004Y-133366005D01*
X152250499Y-133472447D01*
X152122447Y-133600499D01*
X152016005Y-133747004D01*
X151933787Y-133908364D01*
X151877828Y-134080593D01*
X151849500Y-134259451D01*
X149637829Y-134259451D01*
X149622171Y-134160593D01*
X149622171Y-134160591D01*
X149566211Y-133988361D01*
X149483996Y-133827006D01*
X149377553Y-133680499D01*
X149249501Y-133552447D01*
X149102994Y-133446004D01*
X148941639Y-133363789D01*
X148941638Y-133363788D01*
X148941635Y-133363787D01*
X148769406Y-133307828D01*
X148590548Y-133279500D01*
X148590546Y-133279500D01*
X148409454Y-133279500D01*
X148409452Y-133279500D01*
X148230593Y-133307828D01*
X148058364Y-133363787D01*
X147897004Y-133446005D01*
X147750499Y-133552447D01*
X147622447Y-133680499D01*
X147516005Y-133827004D01*
X147433787Y-133988364D01*
X147377828Y-134160593D01*
X147349500Y-134339451D01*
X108000500Y-134339451D01*
X108000500Y-131799451D01*
X147349500Y-131799451D01*
X147349500Y-131980548D01*
X147377828Y-132159406D01*
X147433787Y-132331635D01*
X147433788Y-132331638D01*
X147433789Y-132331639D01*
X147516004Y-132492994D01*
X147622447Y-132639501D01*
X147750499Y-132767553D01*
X147897006Y-132873996D01*
X148058361Y-132956211D01*
X148230591Y-133012171D01*
X148320022Y-133026335D01*
X148409452Y-133040500D01*
X148409454Y-133040500D01*
X148590548Y-133040500D01*
X148662091Y-133029168D01*
X148769409Y-133012171D01*
X148941639Y-132956211D01*
X149102994Y-132873996D01*
X149249501Y-132767553D01*
X149377553Y-132639501D01*
X149483996Y-132492994D01*
X149566211Y-132331639D01*
X149570497Y-132318446D01*
X149576212Y-132311754D01*
X149581434Y-132310500D01*
X151956732Y-132310500D01*
X151964864Y-132313868D01*
X151966979Y-132316779D01*
X152016004Y-132412994D01*
X152122447Y-132559501D01*
X152250499Y-132687553D01*
X152397006Y-132793996D01*
X152558361Y-132876211D01*
X152730591Y-132932171D01*
X152820022Y-132946335D01*
X152909452Y-132960500D01*
X152909454Y-132960500D01*
X153090548Y-132960500D01*
X153162091Y-132949168D01*
X153269409Y-132932171D01*
X153441639Y-132876211D01*
X153602994Y-132793996D01*
X153749501Y-132687553D01*
X153877553Y-132559501D01*
X153983996Y-132412994D01*
X154066211Y-132251639D01*
X154122171Y-132079409D01*
X154150500Y-131900546D01*
X154150500Y-131719454D01*
X154122171Y-131540591D01*
X154066211Y-131368361D01*
X153983996Y-131207006D01*
X153877553Y-131060499D01*
X153749501Y-130932447D01*
X153602994Y-130826004D01*
X153441639Y-130743789D01*
X153441638Y-130743788D01*
X153441635Y-130743787D01*
X153269406Y-130687828D01*
X153090548Y-130659500D01*
X153090546Y-130659500D01*
X152909454Y-130659500D01*
X152909452Y-130659500D01*
X152730593Y-130687828D01*
X152558364Y-130743787D01*
X152397004Y-130826005D01*
X152286895Y-130906004D01*
X152250499Y-130932447D01*
X152122447Y-131060499D01*
X152016004Y-131207006D01*
X151987046Y-131263838D01*
X151966979Y-131303221D01*
X151960286Y-131308937D01*
X151956732Y-131309500D01*
X149502504Y-131309500D01*
X149494372Y-131306132D01*
X149492259Y-131303224D01*
X149483996Y-131287006D01*
X149377553Y-131140499D01*
X149249501Y-131012447D01*
X149102994Y-130906004D01*
X148941639Y-130823789D01*
X148941638Y-130823788D01*
X148941635Y-130823787D01*
X148769406Y-130767828D01*
X148590548Y-130739500D01*
X148590546Y-130739500D01*
X148409454Y-130739500D01*
X148409452Y-130739500D01*
X148230593Y-130767828D01*
X148058364Y-130823787D01*
X147897004Y-130906005D01*
X147750499Y-131012447D01*
X147622447Y-131140499D01*
X147516005Y-131287004D01*
X147433787Y-131448364D01*
X147377828Y-131620593D01*
X147349500Y-131799451D01*
X108000500Y-131799451D01*
X108000500Y-121590943D01*
X143319500Y-121590943D01*
X143319500Y-121749057D01*
X143360423Y-121901784D01*
X143417959Y-122001440D01*
X143419500Y-122007189D01*
X143419500Y-124835891D01*
X143453606Y-124963180D01*
X143453610Y-124963190D01*
X143519499Y-125077313D01*
X147408392Y-128966206D01*
X147411760Y-128974338D01*
X147411197Y-128977892D01*
X147377828Y-129080593D01*
X147349500Y-129259451D01*
X147349500Y-129440548D01*
X147377828Y-129619406D01*
X147433787Y-129791635D01*
X147433788Y-129791638D01*
X147433789Y-129791639D01*
X147516004Y-129952994D01*
X147622447Y-130099501D01*
X147750499Y-130227553D01*
X147897006Y-130333996D01*
X148058361Y-130416211D01*
X148230591Y-130472171D01*
X148320022Y-130486335D01*
X148409452Y-130500500D01*
X148409454Y-130500500D01*
X148590548Y-130500500D01*
X148662091Y-130489168D01*
X148769409Y-130472171D01*
X148941639Y-130416211D01*
X149102994Y-130333996D01*
X149249501Y-130227553D01*
X149377553Y-130099501D01*
X149483996Y-129952994D01*
X149566211Y-129791639D01*
X149622171Y-129619409D01*
X149650500Y-129440546D01*
X149650500Y-129259454D01*
X149622171Y-129080591D01*
X149566211Y-128908361D01*
X149483996Y-128747006D01*
X149377553Y-128600499D01*
X149249501Y-128472447D01*
X149102994Y-128366004D01*
X148941639Y-128283789D01*
X148941638Y-128283788D01*
X148941635Y-128283787D01*
X148769406Y-128227828D01*
X148590548Y-128199500D01*
X148590546Y-128199500D01*
X148409454Y-128199500D01*
X148409452Y-128199500D01*
X148230593Y-128227828D01*
X148127892Y-128261197D01*
X148119117Y-128260507D01*
X148116206Y-128258392D01*
X146577265Y-126719451D01*
X147349500Y-126719451D01*
X147349500Y-126900548D01*
X147377828Y-127079406D01*
X147433787Y-127251635D01*
X147433788Y-127251638D01*
X147433789Y-127251639D01*
X147516004Y-127412994D01*
X147622447Y-127559501D01*
X147750499Y-127687553D01*
X147897006Y-127793996D01*
X148058361Y-127876211D01*
X148230591Y-127932171D01*
X148320022Y-127946335D01*
X148409452Y-127960500D01*
X148409454Y-127960500D01*
X148590548Y-127960500D01*
X148662091Y-127949168D01*
X148769409Y-127932171D01*
X148941639Y-127876211D01*
X149102994Y-127793996D01*
X149249501Y-127687553D01*
X149377553Y-127559501D01*
X149483996Y-127412994D01*
X149566211Y-127251639D01*
X149622171Y-127079409D01*
X149639168Y-126972091D01*
X149650500Y-126900548D01*
X149650500Y-126719451D01*
X149622171Y-126540593D01*
X149622171Y-126540591D01*
X149566211Y-126368361D01*
X149483996Y-126207006D01*
X149377553Y-126060499D01*
X149249501Y-125932447D01*
X149102994Y-125826004D01*
X148941639Y-125743789D01*
X148941638Y-125743788D01*
X148941635Y-125743787D01*
X148769406Y-125687828D01*
X148590548Y-125659500D01*
X148590546Y-125659500D01*
X148409454Y-125659500D01*
X148409452Y-125659500D01*
X148230593Y-125687828D01*
X148058364Y-125743787D01*
X147897004Y-125826005D01*
X147750499Y-125932447D01*
X147622447Y-126060499D01*
X147516005Y-126207004D01*
X147433787Y-126368364D01*
X147377828Y-126540593D01*
X147349500Y-126719451D01*
X146577265Y-126719451D01*
X144423868Y-124566054D01*
X144420500Y-124557922D01*
X144420500Y-122007189D01*
X144422040Y-122001440D01*
X144479577Y-121901784D01*
X144520500Y-121749057D01*
X144520500Y-121590943D01*
X144479577Y-121438216D01*
X144400520Y-121301284D01*
X144288716Y-121189480D01*
X144288715Y-121189479D01*
X144151788Y-121110425D01*
X144151786Y-121110424D01*
X144151784Y-121110423D01*
X144151780Y-121110422D01*
X144151778Y-121110421D01*
X143999057Y-121069500D01*
X143840943Y-121069500D01*
X143688221Y-121110421D01*
X143688211Y-121110425D01*
X143551284Y-121189479D01*
X143439479Y-121301284D01*
X143360425Y-121438211D01*
X143360421Y-121438221D01*
X143319500Y-121590943D01*
X108000500Y-121590943D01*
X108000500Y-120835128D01*
X147349500Y-120835128D01*
X147349500Y-122624869D01*
X147349501Y-122624871D01*
X147352414Y-122649990D01*
X147352414Y-122649992D01*
X147397791Y-122752760D01*
X147397793Y-122752763D01*
X147397794Y-122752765D01*
X147477235Y-122832206D01*
X147477237Y-122832207D01*
X147477239Y-122832208D01*
X147580005Y-122877584D01*
X147580013Y-122877586D01*
X147598608Y-122879742D01*
X147605135Y-122880500D01*
X149394864Y-122880499D01*
X149394869Y-122880499D01*
X149394870Y-122880498D01*
X149419991Y-122877585D01*
X149419992Y-122877585D01*
X149522760Y-122832208D01*
X149522759Y-122832208D01*
X149522765Y-122832206D01*
X149602206Y-122752765D01*
X149619913Y-122712662D01*
X149647584Y-122649994D01*
X149647584Y-122649992D01*
X149647585Y-122649991D01*
X149650500Y-122624865D01*
X149650499Y-120835136D01*
X149650499Y-120835135D01*
X149650499Y-120835130D01*
X149650498Y-120835128D01*
X149647585Y-120810009D01*
X149647585Y-120810007D01*
X149602208Y-120707239D01*
X149602206Y-120707236D01*
X149602206Y-120707235D01*
X149522765Y-120627794D01*
X149522763Y-120627793D01*
X149522760Y-120627791D01*
X149419994Y-120582415D01*
X149419986Y-120582413D01*
X149394871Y-120579500D01*
X147605130Y-120579500D01*
X147605128Y-120579501D01*
X147580009Y-120582414D01*
X147580007Y-120582414D01*
X147477239Y-120627791D01*
X147477236Y-120627793D01*
X147397793Y-120707236D01*
X147397791Y-120707239D01*
X147352415Y-120810005D01*
X147352413Y-120810013D01*
X147349500Y-120835128D01*
X108000500Y-120835128D01*
X108000500Y-115355770D01*
X111299500Y-115355770D01*
X111299500Y-115644229D01*
X111306752Y-115699318D01*
X111337151Y-115930217D01*
X111337152Y-115930221D01*
X111337153Y-115930228D01*
X111337153Y-115930229D01*
X111411807Y-116208839D01*
X111411807Y-116208840D01*
X111522197Y-116475348D01*
X111666422Y-116725152D01*
X111666424Y-116725155D01*
X111666425Y-116725156D01*
X111842026Y-116954004D01*
X112045996Y-117157974D01*
X112274844Y-117333575D01*
X112274847Y-117333577D01*
X112524651Y-117477802D01*
X112524652Y-117477802D01*
X112524655Y-117477804D01*
X112791155Y-117588191D01*
X112791159Y-117588192D01*
X113069771Y-117662846D01*
X113069772Y-117662846D01*
X113069783Y-117662849D01*
X113355772Y-117700500D01*
X113355776Y-117700500D01*
X113644224Y-117700500D01*
X113644228Y-117700500D01*
X113930217Y-117662849D01*
X113930228Y-117662846D01*
X113930229Y-117662846D01*
X114003136Y-117643310D01*
X114208845Y-117588191D01*
X114475345Y-117477804D01*
X114725156Y-117333575D01*
X114954004Y-117157974D01*
X115157974Y-116954004D01*
X115333575Y-116725156D01*
X115477804Y-116475345D01*
X115588191Y-116208845D01*
X115662849Y-115930217D01*
X115700500Y-115644228D01*
X115700500Y-115355772D01*
X115700500Y-115355770D01*
X123299500Y-115355770D01*
X123299500Y-115644229D01*
X123306752Y-115699318D01*
X123337151Y-115930217D01*
X123337152Y-115930221D01*
X123337153Y-115930228D01*
X123337153Y-115930229D01*
X123411807Y-116208839D01*
X123411807Y-116208840D01*
X123522197Y-116475348D01*
X123666422Y-116725152D01*
X123666424Y-116725155D01*
X123666425Y-116725156D01*
X123842026Y-116954004D01*
X124045996Y-117157974D01*
X124274844Y-117333575D01*
X124274847Y-117333577D01*
X124524651Y-117477802D01*
X124524652Y-117477802D01*
X124524655Y-117477804D01*
X124791155Y-117588191D01*
X124791159Y-117588192D01*
X125069771Y-117662846D01*
X125069772Y-117662846D01*
X125069783Y-117662849D01*
X125355772Y-117700500D01*
X125355776Y-117700500D01*
X125644224Y-117700500D01*
X125644228Y-117700500D01*
X125930217Y-117662849D01*
X125930228Y-117662846D01*
X125930229Y-117662846D01*
X126003136Y-117643310D01*
X126208845Y-117588191D01*
X126475345Y-117477804D01*
X126725156Y-117333575D01*
X126878457Y-117215943D01*
X146369500Y-117215943D01*
X146369500Y-117374056D01*
X146410421Y-117526778D01*
X146410425Y-117526788D01*
X146488977Y-117662846D01*
X146489480Y-117663716D01*
X146601284Y-117775520D01*
X146738216Y-117854577D01*
X146849365Y-117884359D01*
X146854521Y-117887335D01*
X149846132Y-120878946D01*
X149849500Y-120887078D01*
X149849500Y-126685891D01*
X149883606Y-126813180D01*
X149883610Y-126813190D01*
X149949499Y-126927313D01*
X151908392Y-128886206D01*
X151911760Y-128894338D01*
X151911197Y-128897892D01*
X151877828Y-129000593D01*
X151849500Y-129179451D01*
X151849500Y-129360548D01*
X151877828Y-129539406D01*
X151933787Y-129711635D01*
X151933788Y-129711638D01*
X151933789Y-129711639D01*
X152016004Y-129872994D01*
X152122447Y-130019501D01*
X152250499Y-130147553D01*
X152397006Y-130253996D01*
X152558361Y-130336211D01*
X152730591Y-130392171D01*
X152820022Y-130406335D01*
X152909452Y-130420500D01*
X152909454Y-130420500D01*
X153090548Y-130420500D01*
X153162091Y-130409168D01*
X153269409Y-130392171D01*
X153441639Y-130336211D01*
X153602994Y-130253996D01*
X153749501Y-130147553D01*
X153877553Y-130019501D01*
X153983996Y-129872994D01*
X154066211Y-129711639D01*
X154122171Y-129539409D01*
X154150500Y-129360546D01*
X154150500Y-129179454D01*
X154122171Y-129000591D01*
X154066211Y-128828361D01*
X153983996Y-128667006D01*
X153877553Y-128520499D01*
X153749501Y-128392447D01*
X153602994Y-128286004D01*
X153441639Y-128203789D01*
X153441638Y-128203788D01*
X153441635Y-128203787D01*
X153269406Y-128147828D01*
X153090548Y-128119500D01*
X153090546Y-128119500D01*
X152909454Y-128119500D01*
X152909452Y-128119500D01*
X152730593Y-128147828D01*
X152627892Y-128181197D01*
X152619117Y-128180507D01*
X152616206Y-128178392D01*
X150853868Y-126416054D01*
X150850500Y-126407922D01*
X150850500Y-125316078D01*
X150853868Y-125307946D01*
X150862000Y-125304578D01*
X150870132Y-125307946D01*
X151908392Y-126346206D01*
X151911760Y-126354338D01*
X151911197Y-126357892D01*
X151877828Y-126460593D01*
X151849500Y-126639451D01*
X151849500Y-126820548D01*
X151877828Y-126999406D01*
X151933787Y-127171635D01*
X151933788Y-127171638D01*
X151933789Y-127171639D01*
X152016004Y-127332994D01*
X152122447Y-127479501D01*
X152250499Y-127607553D01*
X152397006Y-127713996D01*
X152558361Y-127796211D01*
X152730591Y-127852171D01*
X152820022Y-127866335D01*
X152909452Y-127880500D01*
X152909454Y-127880500D01*
X153090548Y-127880500D01*
X153162091Y-127869168D01*
X153269409Y-127852171D01*
X153441639Y-127796211D01*
X153602994Y-127713996D01*
X153749501Y-127607553D01*
X153877553Y-127479501D01*
X153983996Y-127332994D01*
X154066211Y-127171639D01*
X154122171Y-126999409D01*
X154150500Y-126820546D01*
X154150500Y-126639454D01*
X154122171Y-126460591D01*
X154066211Y-126288361D01*
X153983996Y-126127006D01*
X153877553Y-125980499D01*
X153749501Y-125852447D01*
X153602994Y-125746004D01*
X153441639Y-125663789D01*
X153441638Y-125663788D01*
X153441635Y-125663787D01*
X153269406Y-125607828D01*
X153090548Y-125579500D01*
X153090546Y-125579500D01*
X152909454Y-125579500D01*
X152909452Y-125579500D01*
X152730593Y-125607828D01*
X152627892Y-125641197D01*
X152619117Y-125640507D01*
X152616206Y-125638392D01*
X151653868Y-124676054D01*
X151650500Y-124667922D01*
X151650500Y-120755128D01*
X151849500Y-120755128D01*
X151849500Y-122544869D01*
X151849501Y-122544871D01*
X151852414Y-122569990D01*
X151852414Y-122569992D01*
X151897791Y-122672760D01*
X151897793Y-122672763D01*
X151897794Y-122672765D01*
X151977235Y-122752206D01*
X151977237Y-122752207D01*
X151977239Y-122752208D01*
X152080005Y-122797584D01*
X152080013Y-122797586D01*
X152098608Y-122799742D01*
X152105135Y-122800500D01*
X153894864Y-122800499D01*
X153894869Y-122800499D01*
X153894870Y-122800498D01*
X153919991Y-122797585D01*
X153919992Y-122797585D01*
X154021499Y-122752765D01*
X154022765Y-122752206D01*
X154102206Y-122672765D01*
X154147585Y-122569991D01*
X154150500Y-122544865D01*
X154150499Y-120755136D01*
X154150499Y-120755135D01*
X154150499Y-120755130D01*
X154150498Y-120755128D01*
X154147585Y-120730009D01*
X154147585Y-120730007D01*
X154102208Y-120627239D01*
X154102206Y-120627236D01*
X154102206Y-120627235D01*
X154022765Y-120547794D01*
X154022763Y-120547793D01*
X154022760Y-120547791D01*
X153919994Y-120502415D01*
X153919986Y-120502413D01*
X153894871Y-120499500D01*
X152105130Y-120499500D01*
X152105128Y-120499501D01*
X152080009Y-120502414D01*
X152080007Y-120502414D01*
X151977239Y-120547791D01*
X151977236Y-120547793D01*
X151897793Y-120627236D01*
X151897791Y-120627239D01*
X151852415Y-120730005D01*
X151852413Y-120730013D01*
X151849500Y-120755128D01*
X151650500Y-120755128D01*
X151650500Y-119929108D01*
X151616393Y-119801819D01*
X151616392Y-119801814D01*
X151550500Y-119687686D01*
X151457314Y-119594500D01*
X147909814Y-116047000D01*
X147909813Y-116046999D01*
X147887466Y-116034097D01*
X147885084Y-116032270D01*
X147614835Y-115762021D01*
X147611859Y-115756865D01*
X147582078Y-115645721D01*
X147582077Y-115645716D01*
X147503020Y-115508784D01*
X147391216Y-115396980D01*
X147391215Y-115396979D01*
X147336439Y-115365355D01*
X147319837Y-115355770D01*
X172299500Y-115355770D01*
X172299500Y-115644229D01*
X172306752Y-115699318D01*
X172337151Y-115930217D01*
X172337152Y-115930221D01*
X172337153Y-115930228D01*
X172337153Y-115930229D01*
X172411807Y-116208839D01*
X172411807Y-116208840D01*
X172522197Y-116475348D01*
X172666422Y-116725152D01*
X172666424Y-116725155D01*
X172666425Y-116725156D01*
X172842026Y-116954004D01*
X173045996Y-117157974D01*
X173274844Y-117333575D01*
X173274847Y-117333577D01*
X173524651Y-117477802D01*
X173524652Y-117477802D01*
X173524655Y-117477804D01*
X173791155Y-117588191D01*
X173791159Y-117588192D01*
X174069771Y-117662846D01*
X174069772Y-117662846D01*
X174069783Y-117662849D01*
X174355772Y-117700500D01*
X174355776Y-117700500D01*
X174644224Y-117700500D01*
X174644228Y-117700500D01*
X174930217Y-117662849D01*
X174930228Y-117662846D01*
X174930229Y-117662846D01*
X175003136Y-117643310D01*
X175208845Y-117588191D01*
X175475345Y-117477804D01*
X175725156Y-117333575D01*
X175954004Y-117157974D01*
X176157974Y-116954004D01*
X176333575Y-116725156D01*
X176477804Y-116475345D01*
X176588191Y-116208845D01*
X176662849Y-115930217D01*
X176700500Y-115644228D01*
X176700500Y-115355772D01*
X176700500Y-115355770D01*
X184299500Y-115355770D01*
X184299500Y-115644229D01*
X184306752Y-115699318D01*
X184337151Y-115930217D01*
X184337152Y-115930221D01*
X184337153Y-115930228D01*
X184337153Y-115930229D01*
X184411807Y-116208839D01*
X184411807Y-116208840D01*
X184522197Y-116475348D01*
X184666422Y-116725152D01*
X184666424Y-116725155D01*
X184666425Y-116725156D01*
X184842026Y-116954004D01*
X185045996Y-117157974D01*
X185274844Y-117333575D01*
X185274847Y-117333577D01*
X185524651Y-117477802D01*
X185524652Y-117477802D01*
X185524655Y-117477804D01*
X185791155Y-117588191D01*
X185791159Y-117588192D01*
X186069771Y-117662846D01*
X186069772Y-117662846D01*
X186069783Y-117662849D01*
X186355772Y-117700500D01*
X186355776Y-117700500D01*
X186644224Y-117700500D01*
X186644228Y-117700500D01*
X186930217Y-117662849D01*
X186930228Y-117662846D01*
X186930229Y-117662846D01*
X187003136Y-117643310D01*
X187208845Y-117588191D01*
X187475345Y-117477804D01*
X187725156Y-117333575D01*
X187954004Y-117157974D01*
X188157974Y-116954004D01*
X188333575Y-116725156D01*
X188477804Y-116475345D01*
X188588191Y-116208845D01*
X188662849Y-115930217D01*
X188700500Y-115644228D01*
X188700500Y-115355772D01*
X188662849Y-115069783D01*
X188588191Y-114791155D01*
X188477804Y-114524655D01*
X188450439Y-114477258D01*
X188333577Y-114274847D01*
X188333575Y-114274844D01*
X188157974Y-114045996D01*
X187954004Y-113842026D01*
X187725156Y-113666425D01*
X187725155Y-113666424D01*
X187725152Y-113666422D01*
X187475348Y-113522197D01*
X187208840Y-113411807D01*
X186930228Y-113337153D01*
X186930221Y-113337152D01*
X186930217Y-113337151D01*
X186699318Y-113306752D01*
X186644229Y-113299500D01*
X186644228Y-113299500D01*
X186355772Y-113299500D01*
X186355770Y-113299500D01*
X186245591Y-113314005D01*
X186069783Y-113337151D01*
X186069779Y-113337151D01*
X186069771Y-113337153D01*
X186069770Y-113337153D01*
X185791160Y-113411807D01*
X185791159Y-113411807D01*
X185524651Y-113522197D01*
X185274847Y-113666422D01*
X185189026Y-113732275D01*
X185045996Y-113842026D01*
X185045991Y-113842031D01*
X185045989Y-113842032D01*
X184842032Y-114045989D01*
X184842031Y-114045991D01*
X184842026Y-114045996D01*
X184732275Y-114189026D01*
X184666422Y-114274847D01*
X184522197Y-114524651D01*
X184411807Y-114791159D01*
X184411807Y-114791160D01*
X184337153Y-115069770D01*
X184337153Y-115069771D01*
X184299500Y-115355770D01*
X176700500Y-115355770D01*
X176662849Y-115069783D01*
X176588191Y-114791155D01*
X176477804Y-114524655D01*
X176450439Y-114477258D01*
X176333577Y-114274847D01*
X176333575Y-114274844D01*
X176157974Y-114045996D01*
X175954004Y-113842026D01*
X175725156Y-113666425D01*
X175725155Y-113666424D01*
X175725152Y-113666422D01*
X175475348Y-113522197D01*
X175208840Y-113411807D01*
X174930228Y-113337153D01*
X174930221Y-113337152D01*
X174930217Y-113337151D01*
X174699318Y-113306752D01*
X174644229Y-113299500D01*
X174644228Y-113299500D01*
X174355772Y-113299500D01*
X174355770Y-113299500D01*
X174245591Y-113314005D01*
X174069783Y-113337151D01*
X174069779Y-113337151D01*
X174069771Y-113337153D01*
X174069770Y-113337153D01*
X173791160Y-113411807D01*
X173791159Y-113411807D01*
X173524651Y-113522197D01*
X173274847Y-113666422D01*
X173189026Y-113732275D01*
X173045996Y-113842026D01*
X173045991Y-113842031D01*
X173045989Y-113842032D01*
X172842032Y-114045989D01*
X172842031Y-114045991D01*
X172842026Y-114045996D01*
X172732275Y-114189026D01*
X172666422Y-114274847D01*
X172522197Y-114524651D01*
X172411807Y-114791159D01*
X172411807Y-114791160D01*
X172337153Y-115069770D01*
X172337153Y-115069771D01*
X172299500Y-115355770D01*
X147319837Y-115355770D01*
X147301862Y-115345392D01*
X147254288Y-115317925D01*
X147254286Y-115317924D01*
X147254284Y-115317923D01*
X147254280Y-115317922D01*
X147254278Y-115317921D01*
X147101557Y-115277000D01*
X146943443Y-115277000D01*
X146790721Y-115317921D01*
X146790711Y-115317925D01*
X146653784Y-115396979D01*
X146541979Y-115508784D01*
X146462925Y-115645711D01*
X146462921Y-115645721D01*
X146433141Y-115756865D01*
X146422000Y-115798443D01*
X146422000Y-115956557D01*
X146438606Y-116018534D01*
X146462921Y-116109278D01*
X146462925Y-116109288D01*
X146520400Y-116208839D01*
X146541980Y-116246216D01*
X146653784Y-116358020D01*
X146790716Y-116437077D01*
X146901865Y-116466859D01*
X146907021Y-116469835D01*
X147131582Y-116694396D01*
X147134950Y-116702528D01*
X147131582Y-116710660D01*
X147123450Y-116714028D01*
X147120474Y-116713636D01*
X147049057Y-116694500D01*
X146890943Y-116694500D01*
X146738221Y-116735421D01*
X146738211Y-116735425D01*
X146601284Y-116814479D01*
X146489479Y-116926284D01*
X146410425Y-117063211D01*
X146410421Y-117063221D01*
X146369500Y-117215943D01*
X126878457Y-117215943D01*
X126954004Y-117157974D01*
X127157974Y-116954004D01*
X127333575Y-116725156D01*
X127477804Y-116475345D01*
X127588191Y-116208845D01*
X127662849Y-115930217D01*
X127700500Y-115644228D01*
X127700500Y-115355772D01*
X127662849Y-115069783D01*
X127588191Y-114791155D01*
X127477804Y-114524655D01*
X127450439Y-114477258D01*
X127333577Y-114274847D01*
X127333575Y-114274844D01*
X127157974Y-114045996D01*
X126954004Y-113842026D01*
X126725156Y-113666425D01*
X126725155Y-113666424D01*
X126725152Y-113666422D01*
X126475348Y-113522197D01*
X126208840Y-113411807D01*
X125930228Y-113337153D01*
X125930221Y-113337152D01*
X125930217Y-113337151D01*
X125699318Y-113306752D01*
X125644229Y-113299500D01*
X125644228Y-113299500D01*
X125355772Y-113299500D01*
X125355770Y-113299500D01*
X125245591Y-113314005D01*
X125069783Y-113337151D01*
X125069779Y-113337151D01*
X125069771Y-113337153D01*
X125069770Y-113337153D01*
X124791160Y-113411807D01*
X124791159Y-113411807D01*
X124524651Y-113522197D01*
X124274847Y-113666422D01*
X124189026Y-113732275D01*
X124045996Y-113842026D01*
X124045991Y-113842031D01*
X124045989Y-113842032D01*
X123842032Y-114045989D01*
X123842031Y-114045991D01*
X123842026Y-114045996D01*
X123732275Y-114189026D01*
X123666422Y-114274847D01*
X123522197Y-114524651D01*
X123411807Y-114791159D01*
X123411807Y-114791160D01*
X123337153Y-115069770D01*
X123337153Y-115069771D01*
X123299500Y-115355770D01*
X115700500Y-115355770D01*
X115662849Y-115069783D01*
X115588191Y-114791155D01*
X115477804Y-114524655D01*
X115450439Y-114477258D01*
X115333577Y-114274847D01*
X115333575Y-114274844D01*
X115157974Y-114045996D01*
X114954004Y-113842026D01*
X114725156Y-113666425D01*
X114725155Y-113666424D01*
X114725152Y-113666422D01*
X114475348Y-113522197D01*
X114208840Y-113411807D01*
X113930228Y-113337153D01*
X113930221Y-113337152D01*
X113930217Y-113337151D01*
X113699318Y-113306752D01*
X113644229Y-113299500D01*
X113644228Y-113299500D01*
X113355772Y-113299500D01*
X113355770Y-113299500D01*
X113245591Y-113314005D01*
X113069783Y-113337151D01*
X113069779Y-113337151D01*
X113069771Y-113337153D01*
X113069770Y-113337153D01*
X112791160Y-113411807D01*
X112791159Y-113411807D01*
X112524651Y-113522197D01*
X112274847Y-113666422D01*
X112189026Y-113732275D01*
X112045996Y-113842026D01*
X112045991Y-113842031D01*
X112045989Y-113842032D01*
X111842032Y-114045989D01*
X111842031Y-114045991D01*
X111842026Y-114045996D01*
X111732275Y-114189026D01*
X111666422Y-114274847D01*
X111522197Y-114524651D01*
X111411807Y-114791159D01*
X111411807Y-114791160D01*
X111337153Y-115069770D01*
X111337153Y-115069771D01*
X111299500Y-115355770D01*
X108000500Y-115355770D01*
X108000500Y-109439451D01*
X135389500Y-109439451D01*
X135389500Y-109620548D01*
X135417828Y-109799406D01*
X135473787Y-109971635D01*
X135473788Y-109971638D01*
X135473789Y-109971639D01*
X135556004Y-110132994D01*
X135662447Y-110279501D01*
X135790499Y-110407553D01*
X135937006Y-110513996D01*
X136098361Y-110596211D01*
X136270591Y-110652171D01*
X136360022Y-110666335D01*
X136449452Y-110680500D01*
X136449454Y-110680500D01*
X136630548Y-110680500D01*
X136702091Y-110669168D01*
X136809409Y-110652171D01*
X136981639Y-110596211D01*
X137142994Y-110513996D01*
X137289501Y-110407553D01*
X137417553Y-110279501D01*
X137523996Y-110132994D01*
X137606211Y-109971639D01*
X137662171Y-109799409D01*
X137690500Y-109620546D01*
X137690500Y-109439454D01*
X137690299Y-109438186D01*
X137672128Y-109323458D01*
X137662171Y-109260591D01*
X137606211Y-109088361D01*
X137523996Y-108927006D01*
X137417553Y-108780499D01*
X137289501Y-108652447D01*
X137142994Y-108546004D01*
X136981639Y-108463789D01*
X136981638Y-108463788D01*
X136981635Y-108463787D01*
X136809406Y-108407828D01*
X136630548Y-108379500D01*
X136630546Y-108379500D01*
X136449454Y-108379500D01*
X136449452Y-108379500D01*
X136270593Y-108407828D01*
X136098364Y-108463787D01*
X135937004Y-108546005D01*
X135790499Y-108652447D01*
X135662447Y-108780499D01*
X135556005Y-108927004D01*
X135473787Y-109088364D01*
X135417828Y-109260593D01*
X135389500Y-109439451D01*
X108000500Y-109439451D01*
X108000500Y-88664108D01*
X112289500Y-88664108D01*
X112289500Y-104973391D01*
X112323606Y-105100680D01*
X112323610Y-105100690D01*
X112389499Y-105214813D01*
X114143073Y-106968387D01*
X114146441Y-106976519D01*
X114145878Y-106980073D01*
X114121597Y-107054801D01*
X114094500Y-107225886D01*
X114094500Y-107399113D01*
X114121597Y-107570198D01*
X114175125Y-107734941D01*
X114175126Y-107734944D01*
X114175127Y-107734945D01*
X114253768Y-107889288D01*
X114355586Y-108029428D01*
X114478072Y-108151914D01*
X114618212Y-108253732D01*
X114772555Y-108332373D01*
X114937299Y-108385902D01*
X115022844Y-108399451D01*
X115108387Y-108413000D01*
X115108389Y-108413000D01*
X115281613Y-108413000D01*
X115350047Y-108402160D01*
X115452701Y-108385902D01*
X115617445Y-108332373D01*
X115771788Y-108253732D01*
X115911928Y-108151914D01*
X116034414Y-108029428D01*
X116136232Y-107889288D01*
X116214873Y-107734945D01*
X116268402Y-107570201D01*
X116295500Y-107399111D01*
X116295500Y-107225889D01*
X116295500Y-107225886D01*
X116634500Y-107225886D01*
X116634500Y-107399113D01*
X116661597Y-107570198D01*
X116715125Y-107734941D01*
X116715126Y-107734944D01*
X116715127Y-107734945D01*
X116793768Y-107889288D01*
X116895586Y-108029428D01*
X117018072Y-108151914D01*
X117158212Y-108253732D01*
X117312555Y-108332373D01*
X117477299Y-108385902D01*
X117562844Y-108399451D01*
X117648387Y-108413000D01*
X117648389Y-108413000D01*
X117821613Y-108413000D01*
X117890047Y-108402160D01*
X117992701Y-108385902D01*
X118157445Y-108332373D01*
X118311788Y-108253732D01*
X118451928Y-108151914D01*
X118574414Y-108029428D01*
X118676232Y-107889288D01*
X118754873Y-107734945D01*
X118808402Y-107570201D01*
X118835500Y-107399111D01*
X118835500Y-107225889D01*
X118808402Y-107054799D01*
X118787169Y-106989451D01*
X128514500Y-106989451D01*
X128514500Y-107170548D01*
X128542828Y-107349406D01*
X128598787Y-107521635D01*
X128598788Y-107521638D01*
X128598789Y-107521639D01*
X128681004Y-107682994D01*
X128787447Y-107829501D01*
X128915499Y-107957553D01*
X129062006Y-108063996D01*
X129223361Y-108146211D01*
X129395591Y-108202171D01*
X129485022Y-108216335D01*
X129574452Y-108230500D01*
X129574454Y-108230500D01*
X129755548Y-108230500D01*
X129827091Y-108219168D01*
X129934409Y-108202171D01*
X130106639Y-108146211D01*
X130267994Y-108063996D01*
X130414501Y-107957553D01*
X130542553Y-107829501D01*
X130618301Y-107725240D01*
X130625806Y-107720642D01*
X130627605Y-107720500D01*
X135642782Y-107720500D01*
X135650914Y-107723868D01*
X135652084Y-107725238D01*
X135662447Y-107739501D01*
X135790499Y-107867553D01*
X135937006Y-107973996D01*
X136098361Y-108056211D01*
X136270591Y-108112171D01*
X136360022Y-108126335D01*
X136449452Y-108140500D01*
X136449454Y-108140500D01*
X136630548Y-108140500D01*
X136702091Y-108129168D01*
X136809409Y-108112171D01*
X136981639Y-108056211D01*
X137142994Y-107973996D01*
X137289501Y-107867553D01*
X137417553Y-107739501D01*
X137523996Y-107592994D01*
X137606211Y-107431639D01*
X137662171Y-107259409D01*
X137690500Y-107080546D01*
X137690500Y-106899454D01*
X137689011Y-106890055D01*
X137664566Y-106735712D01*
X137662171Y-106720591D01*
X137606211Y-106548361D01*
X137523996Y-106387006D01*
X137417553Y-106240499D01*
X137289501Y-106112447D01*
X137142994Y-106006004D01*
X136981639Y-105923789D01*
X136981638Y-105923788D01*
X136981635Y-105923787D01*
X136809406Y-105867828D01*
X136630548Y-105839500D01*
X136630546Y-105839500D01*
X136449454Y-105839500D01*
X136449452Y-105839500D01*
X136270593Y-105867828D01*
X136098364Y-105923787D01*
X135937004Y-106006005D01*
X135790499Y-106112447D01*
X135662447Y-106240499D01*
X135556004Y-106387006D01*
X135542645Y-106413221D01*
X135535954Y-106418937D01*
X135532400Y-106419500D01*
X130613076Y-106419500D01*
X130604944Y-106416132D01*
X130603772Y-106414760D01*
X130583608Y-106387007D01*
X130542553Y-106330499D01*
X130414501Y-106202447D01*
X130267994Y-106096004D01*
X130106639Y-106013789D01*
X130106638Y-106013788D01*
X130106635Y-106013787D01*
X129934406Y-105957828D01*
X129755548Y-105929500D01*
X129755546Y-105929500D01*
X129574454Y-105929500D01*
X129574452Y-105929500D01*
X129395593Y-105957828D01*
X129223364Y-106013787D01*
X129062004Y-106096005D01*
X128915499Y-106202447D01*
X128787447Y-106330499D01*
X128681005Y-106477004D01*
X128598787Y-106638364D01*
X128542828Y-106810593D01*
X128514500Y-106989451D01*
X118787169Y-106989451D01*
X118754873Y-106890055D01*
X118676232Y-106735712D01*
X118574414Y-106595572D01*
X118451928Y-106473086D01*
X118311788Y-106371268D01*
X118157445Y-106292627D01*
X118157444Y-106292626D01*
X118157441Y-106292625D01*
X117992698Y-106239097D01*
X117821613Y-106212000D01*
X117821611Y-106212000D01*
X117648389Y-106212000D01*
X117648387Y-106212000D01*
X117477301Y-106239097D01*
X117312558Y-106292625D01*
X117158210Y-106371269D01*
X117018072Y-106473086D01*
X116895586Y-106595572D01*
X116793769Y-106735710D01*
X116715125Y-106890058D01*
X116661597Y-107054801D01*
X116634500Y-107225886D01*
X116295500Y-107225886D01*
X116268402Y-107054799D01*
X116214873Y-106890055D01*
X116136232Y-106735712D01*
X116034414Y-106595572D01*
X115911928Y-106473086D01*
X115771788Y-106371268D01*
X115617445Y-106292627D01*
X115617444Y-106292626D01*
X115617441Y-106292625D01*
X115452698Y-106239097D01*
X115281613Y-106212000D01*
X115281611Y-106212000D01*
X115108389Y-106212000D01*
X115108387Y-106212000D01*
X114937301Y-106239097D01*
X114862573Y-106263378D01*
X114853798Y-106262688D01*
X114850887Y-106260573D01*
X113293868Y-104703554D01*
X113290500Y-104695422D01*
X113290500Y-103555128D01*
X135389500Y-103555128D01*
X135389500Y-105344869D01*
X135389501Y-105344871D01*
X135392414Y-105369990D01*
X135392414Y-105369992D01*
X135437791Y-105472760D01*
X135437793Y-105472763D01*
X135437794Y-105472765D01*
X135517235Y-105552206D01*
X135517237Y-105552207D01*
X135517239Y-105552208D01*
X135620005Y-105597584D01*
X135620013Y-105597586D01*
X135638608Y-105599742D01*
X135645135Y-105600500D01*
X137434864Y-105600499D01*
X137434869Y-105600499D01*
X137434870Y-105600498D01*
X137459991Y-105597585D01*
X137459992Y-105597585D01*
X137562760Y-105552208D01*
X137562759Y-105552208D01*
X137562765Y-105552206D01*
X137642206Y-105472765D01*
X137687585Y-105369991D01*
X137690499Y-105344870D01*
X137690500Y-105344870D01*
X137690500Y-105112000D01*
X137693868Y-105103868D01*
X137702000Y-105100500D01*
X137925931Y-105100500D01*
X138800790Y-105100500D01*
X138808922Y-105103868D01*
X142139723Y-108434669D01*
X146760330Y-113055276D01*
X146866873Y-113126465D01*
X146985256Y-113175501D01*
X147110931Y-113200500D01*
X159862663Y-113200500D01*
X159867064Y-113201375D01*
X159920672Y-113223580D01*
X160056007Y-113250500D01*
X160056009Y-113250500D01*
X160193991Y-113250500D01*
X160193993Y-113250500D01*
X160329328Y-113223580D01*
X160456811Y-113170775D01*
X160571542Y-113094114D01*
X160669114Y-112996542D01*
X160745775Y-112881811D01*
X160798580Y-112754328D01*
X160825500Y-112618993D01*
X160825500Y-112481007D01*
X160798580Y-112345672D01*
X160745775Y-112218189D01*
X160669114Y-112103458D01*
X160571542Y-112005886D01*
X160571538Y-112005883D01*
X160456813Y-111929226D01*
X160329326Y-111876419D01*
X160247831Y-111860209D01*
X160193993Y-111849500D01*
X160056007Y-111849500D01*
X159988800Y-111862868D01*
X159920675Y-111876419D01*
X159920672Y-111876419D01*
X159867064Y-111898625D01*
X159862663Y-111899500D01*
X155698920Y-111899500D01*
X155690788Y-111896132D01*
X155687420Y-111888000D01*
X155690788Y-111879868D01*
X155694237Y-111876419D01*
X155751614Y-111819042D01*
X155828275Y-111704311D01*
X155881080Y-111576828D01*
X155908000Y-111441493D01*
X155908000Y-111303507D01*
X155881080Y-111168172D01*
X155828275Y-111040689D01*
X155751614Y-110925958D01*
X155711368Y-110885712D01*
X155708000Y-110877580D01*
X155708000Y-101004578D01*
X155711368Y-100996446D01*
X158953946Y-97753868D01*
X158962078Y-97750500D01*
X159510892Y-97750500D01*
X159638186Y-97716392D01*
X159752314Y-97650500D01*
X160790887Y-96611925D01*
X160799018Y-96608558D01*
X160802572Y-96609121D01*
X160811205Y-96611926D01*
X160877299Y-96633402D01*
X160962844Y-96646951D01*
X161048387Y-96660500D01*
X161048389Y-96660500D01*
X161221613Y-96660500D01*
X161296694Y-96648608D01*
X161392701Y-96633402D01*
X161557445Y-96579873D01*
X161711788Y-96501232D01*
X161851928Y-96399414D01*
X161974414Y-96276928D01*
X162076232Y-96136788D01*
X162154873Y-95982445D01*
X162208402Y-95817701D01*
X162235500Y-95646611D01*
X162235500Y-95473389D01*
X162235500Y-95473386D01*
X162574500Y-95473386D01*
X162574500Y-95646613D01*
X162601597Y-95817698D01*
X162655125Y-95982441D01*
X162655126Y-95982444D01*
X162655127Y-95982445D01*
X162733768Y-96136788D01*
X162835586Y-96276928D01*
X162958072Y-96399414D01*
X163098212Y-96501232D01*
X163252555Y-96579873D01*
X163417299Y-96633402D01*
X163502844Y-96646951D01*
X163588387Y-96660500D01*
X163588389Y-96660500D01*
X163761613Y-96660500D01*
X163836694Y-96648608D01*
X163932701Y-96633402D01*
X164097445Y-96579873D01*
X164251788Y-96501232D01*
X164391928Y-96399414D01*
X164514414Y-96276928D01*
X164616232Y-96136788D01*
X164694873Y-95982445D01*
X164748402Y-95817701D01*
X164775500Y-95646611D01*
X164775500Y-95473389D01*
X164775500Y-95473386D01*
X167654500Y-95473386D01*
X167654500Y-95646613D01*
X167681597Y-95817698D01*
X167735125Y-95982441D01*
X167735126Y-95982444D01*
X167735127Y-95982445D01*
X167813768Y-96136788D01*
X167915586Y-96276928D01*
X168038072Y-96399414D01*
X168178212Y-96501232D01*
X168332555Y-96579873D01*
X168497299Y-96633402D01*
X168582844Y-96646951D01*
X168668387Y-96660500D01*
X168668389Y-96660500D01*
X168841613Y-96660500D01*
X168916694Y-96648608D01*
X169012701Y-96633402D01*
X169177445Y-96579873D01*
X169331788Y-96501232D01*
X169471928Y-96399414D01*
X169594414Y-96276928D01*
X169696232Y-96136788D01*
X169774873Y-95982445D01*
X169828402Y-95817701D01*
X169855500Y-95646611D01*
X169855500Y-95473389D01*
X169828402Y-95302299D01*
X169774873Y-95137555D01*
X169696232Y-94983212D01*
X169594414Y-94843072D01*
X169471928Y-94720586D01*
X169331788Y-94618768D01*
X169177445Y-94540127D01*
X169177444Y-94540126D01*
X169177441Y-94540125D01*
X169012698Y-94486597D01*
X168841613Y-94459500D01*
X168841611Y-94459500D01*
X168668389Y-94459500D01*
X168668387Y-94459500D01*
X168497301Y-94486597D01*
X168332558Y-94540125D01*
X168178210Y-94618769D01*
X168038072Y-94720586D01*
X167915586Y-94843072D01*
X167813769Y-94983210D01*
X167735125Y-95137558D01*
X167681597Y-95302301D01*
X167654500Y-95473386D01*
X164775500Y-95473386D01*
X164748402Y-95302299D01*
X164694873Y-95137555D01*
X164616232Y-94983212D01*
X164514414Y-94843072D01*
X164391928Y-94720586D01*
X164251788Y-94618768D01*
X164097445Y-94540127D01*
X164097444Y-94540126D01*
X164097441Y-94540125D01*
X163932698Y-94486597D01*
X163761613Y-94459500D01*
X163761611Y-94459500D01*
X163588389Y-94459500D01*
X163588387Y-94459500D01*
X163417301Y-94486597D01*
X163252558Y-94540125D01*
X163098210Y-94618769D01*
X162958072Y-94720586D01*
X162835586Y-94843072D01*
X162733769Y-94983210D01*
X162655125Y-95137558D01*
X162601597Y-95302301D01*
X162574500Y-95473386D01*
X162235500Y-95473386D01*
X162208402Y-95302299D01*
X162154873Y-95137555D01*
X162076232Y-94983212D01*
X161974414Y-94843072D01*
X161851928Y-94720586D01*
X161711788Y-94618768D01*
X161557445Y-94540127D01*
X161557444Y-94540126D01*
X161557441Y-94540125D01*
X161392698Y-94486597D01*
X161221613Y-94459500D01*
X161221611Y-94459500D01*
X161048389Y-94459500D01*
X161048387Y-94459500D01*
X160877301Y-94486597D01*
X160712558Y-94540125D01*
X160558210Y-94618769D01*
X160418072Y-94720586D01*
X160295586Y-94843072D01*
X160193769Y-94983210D01*
X160115125Y-95137558D01*
X160061597Y-95302301D01*
X160034500Y-95473386D01*
X160034500Y-95646613D01*
X160061597Y-95817698D01*
X160085878Y-95892426D01*
X160085188Y-95901201D01*
X160083073Y-95904112D01*
X159241054Y-96746132D01*
X159232922Y-96749500D01*
X158684108Y-96749500D01*
X158556819Y-96783606D01*
X158556809Y-96783610D01*
X158515110Y-96807686D01*
X158442686Y-96849499D01*
X154806999Y-100485186D01*
X154741110Y-100599309D01*
X154741106Y-100599319D01*
X154707000Y-100726608D01*
X154707000Y-110877580D01*
X154703632Y-110885712D01*
X154663380Y-110925964D01*
X154663104Y-110926301D01*
X154655339Y-110930445D01*
X154654219Y-110930500D01*
X153230864Y-110930500D01*
X153222732Y-110927132D01*
X151665099Y-109369499D01*
X151550976Y-109303610D01*
X151550974Y-109303609D01*
X151550972Y-109303608D01*
X151550968Y-109303607D01*
X151550966Y-109303606D01*
X151423678Y-109269500D01*
X147694920Y-109269500D01*
X147686788Y-109266132D01*
X147681247Y-109260591D01*
X147646542Y-109225886D01*
X147646538Y-109225883D01*
X147531813Y-109149226D01*
X147404326Y-109096419D01*
X147322831Y-109080209D01*
X147268993Y-109069500D01*
X147131007Y-109069500D01*
X147063800Y-109082868D01*
X146995675Y-109096419D01*
X146995672Y-109096419D01*
X146868186Y-109149226D01*
X146753461Y-109225883D01*
X146655883Y-109323461D01*
X146579226Y-109438186D01*
X146526419Y-109565672D01*
X146526419Y-109565675D01*
X146499500Y-109701008D01*
X146499500Y-109838991D01*
X146526419Y-109974324D01*
X146526419Y-109974327D01*
X146579226Y-110101813D01*
X146655883Y-110216538D01*
X146655886Y-110216542D01*
X146753458Y-110314114D01*
X146868189Y-110390775D01*
X146995672Y-110443580D01*
X147131007Y-110470500D01*
X147131009Y-110470500D01*
X147268991Y-110470500D01*
X147268993Y-110470500D01*
X147404328Y-110443580D01*
X147531811Y-110390775D01*
X147646542Y-110314114D01*
X147686788Y-110273868D01*
X147694920Y-110270500D01*
X151145708Y-110270500D01*
X151153840Y-110273868D01*
X152711472Y-111831500D01*
X152792083Y-111878041D01*
X152797441Y-111885024D01*
X152796292Y-111893750D01*
X152789309Y-111899108D01*
X152786333Y-111899500D01*
X147449210Y-111899500D01*
X147441078Y-111896132D01*
X140615079Y-105070133D01*
X140611711Y-105062001D01*
X140615079Y-105053869D01*
X140623211Y-105050501D01*
X140739057Y-105050501D01*
X140891785Y-105009577D01*
X140954459Y-104973392D01*
X141028716Y-104930520D01*
X141140520Y-104818716D01*
X141140520Y-104818714D01*
X141141462Y-104817773D01*
X141141465Y-104817768D01*
X145590368Y-100368868D01*
X145598500Y-100365500D01*
X146275230Y-100365500D01*
X146275246Y-100365501D01*
X146275943Y-100365501D01*
X146434057Y-100365501D01*
X146586785Y-100324577D01*
X146636904Y-100295639D01*
X146723716Y-100245520D01*
X146835520Y-100133716D01*
X146835520Y-100133714D01*
X146836462Y-100132773D01*
X146836465Y-100132768D01*
X147825368Y-99143868D01*
X147833500Y-99140500D01*
X149435230Y-99140500D01*
X149435246Y-99140501D01*
X149435943Y-99140501D01*
X149594057Y-99140501D01*
X149746785Y-99099577D01*
X149833387Y-99049577D01*
X149883716Y-99020520D01*
X149995520Y-98908716D01*
X149995520Y-98908714D01*
X149996462Y-98907773D01*
X149996465Y-98907768D01*
X150340367Y-98563868D01*
X150348499Y-98560500D01*
X151864356Y-98560500D01*
X151870745Y-98562438D01*
X151898186Y-98580773D01*
X151898189Y-98580775D01*
X152025672Y-98633580D01*
X152161007Y-98660500D01*
X152161009Y-98660500D01*
X152298991Y-98660500D01*
X152298993Y-98660500D01*
X152434328Y-98633580D01*
X152561811Y-98580775D01*
X152676542Y-98504114D01*
X152774114Y-98406542D01*
X152850775Y-98291811D01*
X152903580Y-98164328D01*
X152930500Y-98028993D01*
X152930500Y-97891007D01*
X152903580Y-97755672D01*
X152850775Y-97628189D01*
X152774114Y-97513458D01*
X152676542Y-97415886D01*
X152676538Y-97415883D01*
X152561813Y-97339226D01*
X152534392Y-97327868D01*
X152434328Y-97286420D01*
X152434326Y-97286419D01*
X152352831Y-97270209D01*
X152298993Y-97259500D01*
X152161007Y-97259500D01*
X152093800Y-97272868D01*
X152025675Y-97286419D01*
X152025672Y-97286419D01*
X151898186Y-97339226D01*
X151870745Y-97357562D01*
X151864356Y-97359500D01*
X150174770Y-97359500D01*
X150174754Y-97359499D01*
X150174057Y-97359499D01*
X150015943Y-97359499D01*
X149876224Y-97396936D01*
X149867498Y-97395787D01*
X149862140Y-97388804D01*
X149863289Y-97380078D01*
X149865112Y-97377700D01*
X150630887Y-96611925D01*
X150639018Y-96608558D01*
X150642572Y-96609121D01*
X150651205Y-96611926D01*
X150717299Y-96633402D01*
X150802844Y-96646951D01*
X150888387Y-96660500D01*
X150888389Y-96660500D01*
X151061613Y-96660500D01*
X151136694Y-96648608D01*
X151232701Y-96633402D01*
X151397445Y-96579873D01*
X151551788Y-96501232D01*
X151691928Y-96399414D01*
X151814414Y-96276928D01*
X151916232Y-96136788D01*
X151994873Y-95982445D01*
X152048402Y-95817701D01*
X152075500Y-95646611D01*
X152075500Y-95473389D01*
X152075500Y-95473386D01*
X152414500Y-95473386D01*
X152414500Y-95646613D01*
X152441597Y-95817698D01*
X152495125Y-95982441D01*
X152495126Y-95982444D01*
X152495127Y-95982445D01*
X152573768Y-96136788D01*
X152675586Y-96276928D01*
X152798072Y-96399414D01*
X152938212Y-96501232D01*
X153092555Y-96579873D01*
X153257299Y-96633402D01*
X153342844Y-96646951D01*
X153428387Y-96660500D01*
X153428389Y-96660500D01*
X153601613Y-96660500D01*
X153676694Y-96648608D01*
X153772701Y-96633402D01*
X153937445Y-96579873D01*
X154091788Y-96501232D01*
X154231928Y-96399414D01*
X154354414Y-96276928D01*
X154456232Y-96136788D01*
X154534873Y-95982445D01*
X154588402Y-95817701D01*
X154615500Y-95646611D01*
X154615500Y-95473389D01*
X154615500Y-95473386D01*
X154954500Y-95473386D01*
X154954500Y-95646613D01*
X154981597Y-95817698D01*
X155035125Y-95982441D01*
X155035126Y-95982444D01*
X155035127Y-95982445D01*
X155113768Y-96136788D01*
X155215586Y-96276928D01*
X155338072Y-96399414D01*
X155478212Y-96501232D01*
X155632555Y-96579873D01*
X155797299Y-96633402D01*
X155882844Y-96646951D01*
X155968387Y-96660500D01*
X155968389Y-96660500D01*
X156141613Y-96660500D01*
X156216694Y-96648608D01*
X156312701Y-96633402D01*
X156477445Y-96579873D01*
X156631788Y-96501232D01*
X156771928Y-96399414D01*
X156894414Y-96276928D01*
X156996232Y-96136788D01*
X157074873Y-95982445D01*
X157128402Y-95817701D01*
X157155500Y-95646611D01*
X157155500Y-95473389D01*
X157155500Y-95473386D01*
X157494500Y-95473386D01*
X157494500Y-95646613D01*
X157521597Y-95817698D01*
X157575125Y-95982441D01*
X157575126Y-95982444D01*
X157575127Y-95982445D01*
X157653768Y-96136788D01*
X157755586Y-96276928D01*
X157878072Y-96399414D01*
X158018212Y-96501232D01*
X158172555Y-96579873D01*
X158337299Y-96633402D01*
X158422844Y-96646951D01*
X158508387Y-96660500D01*
X158508389Y-96660500D01*
X158681613Y-96660500D01*
X158756694Y-96648608D01*
X158852701Y-96633402D01*
X159017445Y-96579873D01*
X159171788Y-96501232D01*
X159311928Y-96399414D01*
X159434414Y-96276928D01*
X159536232Y-96136788D01*
X159614873Y-95982445D01*
X159668402Y-95817701D01*
X159695500Y-95646611D01*
X159695500Y-95473389D01*
X159668402Y-95302299D01*
X159614873Y-95137555D01*
X159536232Y-94983212D01*
X159434414Y-94843072D01*
X159311928Y-94720586D01*
X159171788Y-94618768D01*
X159017445Y-94540127D01*
X159017444Y-94540126D01*
X159017441Y-94540125D01*
X158852698Y-94486597D01*
X158681613Y-94459500D01*
X158681611Y-94459500D01*
X158508389Y-94459500D01*
X158508387Y-94459500D01*
X158337301Y-94486597D01*
X158172558Y-94540125D01*
X158018210Y-94618769D01*
X157878072Y-94720586D01*
X157755586Y-94843072D01*
X157653769Y-94983210D01*
X157575125Y-95137558D01*
X157521597Y-95302301D01*
X157494500Y-95473386D01*
X157155500Y-95473386D01*
X157128402Y-95302299D01*
X157074873Y-95137555D01*
X156996232Y-94983212D01*
X156894414Y-94843072D01*
X156771928Y-94720586D01*
X156631788Y-94618768D01*
X156477445Y-94540127D01*
X156477444Y-94540126D01*
X156477441Y-94540125D01*
X156312698Y-94486597D01*
X156141613Y-94459500D01*
X156141611Y-94459500D01*
X155968389Y-94459500D01*
X155968387Y-94459500D01*
X155797301Y-94486597D01*
X155632558Y-94540125D01*
X155478210Y-94618769D01*
X155338072Y-94720586D01*
X155215586Y-94843072D01*
X155113769Y-94983210D01*
X155035125Y-95137558D01*
X154981597Y-95302301D01*
X154954500Y-95473386D01*
X154615500Y-95473386D01*
X154588402Y-95302299D01*
X154534873Y-95137555D01*
X154456232Y-94983212D01*
X154354414Y-94843072D01*
X154231928Y-94720586D01*
X154091788Y-94618768D01*
X153937445Y-94540127D01*
X153937444Y-94540126D01*
X153937441Y-94540125D01*
X153772698Y-94486597D01*
X153601613Y-94459500D01*
X153601611Y-94459500D01*
X153428389Y-94459500D01*
X153428387Y-94459500D01*
X153257301Y-94486597D01*
X153092558Y-94540125D01*
X152938210Y-94618769D01*
X152798072Y-94720586D01*
X152675586Y-94843072D01*
X152573769Y-94983210D01*
X152495125Y-95137558D01*
X152441597Y-95302301D01*
X152414500Y-95473386D01*
X152075500Y-95473386D01*
X152048402Y-95302299D01*
X151994873Y-95137555D01*
X151916232Y-94983212D01*
X151814414Y-94843072D01*
X151691928Y-94720586D01*
X151551788Y-94618768D01*
X151397445Y-94540127D01*
X151397444Y-94540126D01*
X151397441Y-94540125D01*
X151232698Y-94486597D01*
X151061613Y-94459500D01*
X151061611Y-94459500D01*
X150888389Y-94459500D01*
X150888387Y-94459500D01*
X150717301Y-94486597D01*
X150552558Y-94540125D01*
X150398210Y-94618769D01*
X150258072Y-94720586D01*
X150135586Y-94843072D01*
X150033769Y-94983210D01*
X149955125Y-95137558D01*
X149901597Y-95302301D01*
X149874500Y-95473386D01*
X149874500Y-95646613D01*
X149901597Y-95817698D01*
X149925878Y-95892425D01*
X149925188Y-95901200D01*
X149923073Y-95904111D01*
X148483054Y-97344132D01*
X148474922Y-97347500D01*
X148068078Y-97347500D01*
X148059946Y-97344132D01*
X148056578Y-97336000D01*
X148059946Y-97327868D01*
X148173335Y-97214479D01*
X148782164Y-96605648D01*
X148786739Y-96602845D01*
X148857445Y-96579873D01*
X149011788Y-96501232D01*
X149151928Y-96399414D01*
X149274414Y-96276928D01*
X149376232Y-96136788D01*
X149454873Y-95982445D01*
X149508402Y-95817701D01*
X149535500Y-95646611D01*
X149535500Y-95473389D01*
X149508402Y-95302299D01*
X149454873Y-95137555D01*
X149376232Y-94983212D01*
X149274414Y-94843072D01*
X149151928Y-94720586D01*
X149011788Y-94618768D01*
X148857445Y-94540127D01*
X148857444Y-94540126D01*
X148857441Y-94540125D01*
X148692698Y-94486597D01*
X148521613Y-94459500D01*
X148521611Y-94459500D01*
X148348389Y-94459500D01*
X148348387Y-94459500D01*
X148177301Y-94486597D01*
X148012558Y-94540125D01*
X147858210Y-94618769D01*
X147718072Y-94720586D01*
X147595586Y-94843072D01*
X147493769Y-94983210D01*
X147415125Y-95137558D01*
X147361597Y-95302301D01*
X147334500Y-95473386D01*
X147334500Y-95646613D01*
X147361597Y-95817698D01*
X147415125Y-95982441D01*
X147415126Y-95982444D01*
X147415127Y-95982445D01*
X147493768Y-96136788D01*
X147595586Y-96276928D01*
X147637290Y-96318632D01*
X147640658Y-96326763D01*
X147637290Y-96334895D01*
X147361054Y-96611132D01*
X147352922Y-96614500D01*
X146283483Y-96614500D01*
X146275351Y-96611132D01*
X146271983Y-96603000D01*
X146275351Y-96594868D01*
X146279929Y-96592063D01*
X146295133Y-96587122D01*
X146317445Y-96579873D01*
X146471788Y-96501232D01*
X146611928Y-96399414D01*
X146734414Y-96276928D01*
X146836232Y-96136788D01*
X146914873Y-95982445D01*
X146968402Y-95817701D01*
X146995500Y-95646611D01*
X146995500Y-95473389D01*
X146968402Y-95302299D01*
X146914873Y-95137555D01*
X146836232Y-94983212D01*
X146734414Y-94843072D01*
X146611928Y-94720586D01*
X146471788Y-94618768D01*
X146317445Y-94540127D01*
X146317444Y-94540126D01*
X146317441Y-94540125D01*
X146152698Y-94486597D01*
X145981613Y-94459500D01*
X145981611Y-94459500D01*
X145808389Y-94459500D01*
X145808387Y-94459500D01*
X145637301Y-94486597D01*
X145472558Y-94540125D01*
X145318210Y-94618769D01*
X145178072Y-94720586D01*
X145055586Y-94843072D01*
X144953769Y-94983210D01*
X144875125Y-95137558D01*
X144821597Y-95302301D01*
X144794500Y-95473386D01*
X144794500Y-95646613D01*
X144821597Y-95817698D01*
X144875125Y-95982441D01*
X144875126Y-95982444D01*
X144875127Y-95982445D01*
X144953768Y-96136788D01*
X145055586Y-96276928D01*
X145178072Y-96399414D01*
X145318212Y-96501232D01*
X145472555Y-96579873D01*
X145637299Y-96633402D01*
X145722844Y-96646951D01*
X145808387Y-96660500D01*
X145808389Y-96660500D01*
X145981613Y-96660500D01*
X146003279Y-96657068D01*
X146016246Y-96655014D01*
X146024804Y-96657068D01*
X146029403Y-96664573D01*
X146027349Y-96673131D01*
X146023795Y-96676331D01*
X145957686Y-96714499D01*
X145569521Y-97102663D01*
X145564366Y-97105639D01*
X145453216Y-97135422D01*
X145316284Y-97214479D01*
X145204479Y-97326284D01*
X145125425Y-97463211D01*
X145125421Y-97463221D01*
X145084500Y-97615943D01*
X145084500Y-97774056D01*
X145125421Y-97926778D01*
X145125425Y-97926788D01*
X145184432Y-98028993D01*
X145204480Y-98063716D01*
X145316284Y-98175520D01*
X145453216Y-98254577D01*
X145605943Y-98295500D01*
X145670446Y-98295500D01*
X145678578Y-98298868D01*
X145681946Y-98307000D01*
X145681554Y-98309976D01*
X145654500Y-98410943D01*
X145654500Y-98569057D01*
X145661429Y-98594915D01*
X145695421Y-98721778D01*
X145695425Y-98721788D01*
X145771229Y-98853086D01*
X145774480Y-98858716D01*
X145886284Y-98970520D01*
X146023216Y-99049577D01*
X146160112Y-99086258D01*
X146167094Y-99091615D01*
X146168243Y-99100341D01*
X146165267Y-99105497D01*
X146109633Y-99161132D01*
X146101501Y-99164500D01*
X145424771Y-99164500D01*
X145424755Y-99164499D01*
X145424058Y-99164499D01*
X145265943Y-99164499D01*
X145113217Y-99205422D01*
X144976284Y-99284479D01*
X140414633Y-103846132D01*
X140406501Y-103849500D01*
X139327391Y-103849500D01*
X139322990Y-103848625D01*
X139264742Y-103824498D01*
X139189065Y-103809445D01*
X139139069Y-103799500D01*
X139139067Y-103799500D01*
X137701999Y-103799500D01*
X137693867Y-103796132D01*
X137690499Y-103788000D01*
X137690499Y-103555130D01*
X137690498Y-103555128D01*
X137687585Y-103530009D01*
X137687585Y-103530007D01*
X137642208Y-103427239D01*
X137642206Y-103427236D01*
X137642206Y-103427235D01*
X137562765Y-103347794D01*
X137562763Y-103347793D01*
X137562760Y-103347791D01*
X137459994Y-103302415D01*
X137459986Y-103302413D01*
X137434871Y-103299500D01*
X135645130Y-103299500D01*
X135645128Y-103299501D01*
X135620009Y-103302414D01*
X135620007Y-103302414D01*
X135517239Y-103347791D01*
X135517236Y-103347793D01*
X135437793Y-103427236D01*
X135437791Y-103427239D01*
X135392415Y-103530005D01*
X135392413Y-103530013D01*
X135389500Y-103555128D01*
X113290500Y-103555128D01*
X113290500Y-99605886D01*
X114094500Y-99605886D01*
X114094500Y-99779113D01*
X114121597Y-99950198D01*
X114175125Y-100114941D01*
X114175126Y-100114944D01*
X114175127Y-100114945D01*
X114253768Y-100269288D01*
X114355586Y-100409428D01*
X114478072Y-100531914D01*
X114618212Y-100633732D01*
X114772555Y-100712373D01*
X114937299Y-100765902D01*
X115022844Y-100779451D01*
X115108387Y-100793000D01*
X115108389Y-100793000D01*
X115281613Y-100793000D01*
X115350047Y-100782160D01*
X115452701Y-100765902D01*
X115617445Y-100712373D01*
X115771788Y-100633732D01*
X115911928Y-100531914D01*
X116034414Y-100409428D01*
X116136232Y-100269288D01*
X116214873Y-100114945D01*
X116268402Y-99950201D01*
X116295500Y-99779111D01*
X116295500Y-99605889D01*
X116268402Y-99434799D01*
X116214873Y-99270055D01*
X116136232Y-99115712D01*
X116034414Y-98975572D01*
X115911928Y-98853086D01*
X115904416Y-98847628D01*
X116634500Y-98847628D01*
X116634500Y-100537369D01*
X116634501Y-100537371D01*
X116637414Y-100562490D01*
X116637414Y-100562492D01*
X116682791Y-100665260D01*
X116682793Y-100665263D01*
X116682794Y-100665265D01*
X116762235Y-100744706D01*
X116762237Y-100744707D01*
X116762239Y-100744708D01*
X116865005Y-100790084D01*
X116865013Y-100790086D01*
X116883608Y-100792242D01*
X116890135Y-100793000D01*
X118579864Y-100792999D01*
X118579869Y-100792999D01*
X118579870Y-100792998D01*
X118604991Y-100790085D01*
X118604992Y-100790085D01*
X118707760Y-100744708D01*
X118707759Y-100744708D01*
X118707765Y-100744706D01*
X118787206Y-100665265D01*
X118832585Y-100562491D01*
X118835500Y-100537365D01*
X118835499Y-98847636D01*
X118835499Y-98847635D01*
X118835499Y-98847630D01*
X118835498Y-98847628D01*
X118832585Y-98822509D01*
X118832585Y-98822507D01*
X118787208Y-98719739D01*
X118787206Y-98719736D01*
X118787206Y-98719735D01*
X118707765Y-98640294D01*
X118707763Y-98640293D01*
X118707760Y-98640291D01*
X118604994Y-98594915D01*
X118604986Y-98594913D01*
X118579871Y-98592000D01*
X116890130Y-98592000D01*
X116890128Y-98592001D01*
X116865009Y-98594914D01*
X116865007Y-98594914D01*
X116762239Y-98640291D01*
X116762236Y-98640293D01*
X116682793Y-98719736D01*
X116682791Y-98719739D01*
X116637415Y-98822505D01*
X116637413Y-98822513D01*
X116634500Y-98847628D01*
X115904416Y-98847628D01*
X115771788Y-98751268D01*
X115617445Y-98672627D01*
X115617444Y-98672626D01*
X115617441Y-98672625D01*
X115452698Y-98619097D01*
X115281613Y-98592000D01*
X115281611Y-98592000D01*
X115108389Y-98592000D01*
X115108387Y-98592000D01*
X114937301Y-98619097D01*
X114772558Y-98672625D01*
X114618210Y-98751269D01*
X114478072Y-98853086D01*
X114355586Y-98975572D01*
X114253769Y-99115710D01*
X114175125Y-99270058D01*
X114121597Y-99434801D01*
X114094500Y-99605886D01*
X113290500Y-99605886D01*
X113290500Y-95473386D01*
X132094500Y-95473386D01*
X132094500Y-95646613D01*
X132121597Y-95817698D01*
X132175125Y-95982441D01*
X132175126Y-95982444D01*
X132175127Y-95982445D01*
X132253768Y-96136788D01*
X132355586Y-96276928D01*
X132478072Y-96399414D01*
X132618212Y-96501232D01*
X132772555Y-96579873D01*
X132937299Y-96633402D01*
X133022844Y-96646951D01*
X133108387Y-96660500D01*
X133108389Y-96660500D01*
X133281613Y-96660500D01*
X133356694Y-96648608D01*
X133452701Y-96633402D01*
X133617445Y-96579873D01*
X133771788Y-96501232D01*
X133911928Y-96399414D01*
X134034414Y-96276928D01*
X134136232Y-96136788D01*
X134214873Y-95982445D01*
X134268402Y-95817701D01*
X134295500Y-95646611D01*
X134295500Y-95473389D01*
X134295500Y-95473386D01*
X134634500Y-95473386D01*
X134634500Y-95646613D01*
X134661597Y-95817698D01*
X134715125Y-95982441D01*
X134715126Y-95982444D01*
X134715127Y-95982445D01*
X134793768Y-96136788D01*
X134895586Y-96276928D01*
X135018072Y-96399414D01*
X135158212Y-96501232D01*
X135312555Y-96579873D01*
X135477299Y-96633402D01*
X135562844Y-96646951D01*
X135648387Y-96660500D01*
X135648389Y-96660500D01*
X135821613Y-96660500D01*
X135896694Y-96648608D01*
X135992701Y-96633402D01*
X136157445Y-96579873D01*
X136311788Y-96501232D01*
X136451928Y-96399414D01*
X136574414Y-96276928D01*
X136676232Y-96136788D01*
X136754873Y-95982445D01*
X136808402Y-95817701D01*
X136835500Y-95646611D01*
X136835500Y-95473389D01*
X136835500Y-95473386D01*
X137174500Y-95473386D01*
X137174500Y-95646613D01*
X137201597Y-95817698D01*
X137255125Y-95982441D01*
X137255126Y-95982444D01*
X137255127Y-95982445D01*
X137333768Y-96136788D01*
X137435586Y-96276928D01*
X137558072Y-96399414D01*
X137698212Y-96501232D01*
X137852555Y-96579873D01*
X138017299Y-96633402D01*
X138102844Y-96646951D01*
X138188387Y-96660500D01*
X138188389Y-96660500D01*
X138361613Y-96660500D01*
X138436694Y-96648608D01*
X138532701Y-96633402D01*
X138697445Y-96579873D01*
X138851788Y-96501232D01*
X138991928Y-96399414D01*
X139114414Y-96276928D01*
X139216232Y-96136788D01*
X139294873Y-95982445D01*
X139348402Y-95817701D01*
X139375500Y-95646611D01*
X139375500Y-95473389D01*
X139375500Y-95473386D01*
X139714500Y-95473386D01*
X139714500Y-95646613D01*
X139741597Y-95817698D01*
X139795125Y-95982441D01*
X139795126Y-95982444D01*
X139795127Y-95982445D01*
X139873768Y-96136788D01*
X139975586Y-96276928D01*
X140098072Y-96399414D01*
X140238212Y-96501232D01*
X140392555Y-96579873D01*
X140557299Y-96633402D01*
X140642844Y-96646951D01*
X140728387Y-96660500D01*
X140728389Y-96660500D01*
X140901613Y-96660500D01*
X140976694Y-96648608D01*
X141072701Y-96633402D01*
X141237445Y-96579873D01*
X141391788Y-96501232D01*
X141531928Y-96399414D01*
X141654414Y-96276928D01*
X141756232Y-96136788D01*
X141834873Y-95982445D01*
X141888402Y-95817701D01*
X141915500Y-95646611D01*
X141915500Y-95473389D01*
X141915500Y-95473386D01*
X142254500Y-95473386D01*
X142254500Y-95646613D01*
X142281597Y-95817698D01*
X142335125Y-95982441D01*
X142335126Y-95982444D01*
X142335127Y-95982445D01*
X142413768Y-96136788D01*
X142515586Y-96276928D01*
X142638072Y-96399414D01*
X142778212Y-96501232D01*
X142932555Y-96579873D01*
X143097299Y-96633402D01*
X143182844Y-96646951D01*
X143268387Y-96660500D01*
X143268389Y-96660500D01*
X143441613Y-96660500D01*
X143516694Y-96648608D01*
X143612701Y-96633402D01*
X143777445Y-96579873D01*
X143931788Y-96501232D01*
X144071928Y-96399414D01*
X144194414Y-96276928D01*
X144296232Y-96136788D01*
X144374873Y-95982445D01*
X144428402Y-95817701D01*
X144455500Y-95646611D01*
X144455500Y-95473389D01*
X144428402Y-95302299D01*
X144374873Y-95137555D01*
X144296232Y-94983212D01*
X144194414Y-94843072D01*
X144071928Y-94720586D01*
X143931788Y-94618768D01*
X143777445Y-94540127D01*
X143777444Y-94540126D01*
X143777441Y-94540125D01*
X143612698Y-94486597D01*
X143441613Y-94459500D01*
X143441611Y-94459500D01*
X143268389Y-94459500D01*
X143268387Y-94459500D01*
X143097301Y-94486597D01*
X142932558Y-94540125D01*
X142778210Y-94618769D01*
X142638072Y-94720586D01*
X142515586Y-94843072D01*
X142413769Y-94983210D01*
X142335125Y-95137558D01*
X142281597Y-95302301D01*
X142254500Y-95473386D01*
X141915500Y-95473386D01*
X141888402Y-95302299D01*
X141834873Y-95137555D01*
X141756232Y-94983212D01*
X141654414Y-94843072D01*
X141531928Y-94720586D01*
X141391788Y-94618768D01*
X141237445Y-94540127D01*
X141237444Y-94540126D01*
X141237441Y-94540125D01*
X141072698Y-94486597D01*
X140901613Y-94459500D01*
X140901611Y-94459500D01*
X140728389Y-94459500D01*
X140728387Y-94459500D01*
X140557301Y-94486597D01*
X140392558Y-94540125D01*
X140238210Y-94618769D01*
X140098072Y-94720586D01*
X139975586Y-94843072D01*
X139873769Y-94983210D01*
X139795125Y-95137558D01*
X139741597Y-95302301D01*
X139714500Y-95473386D01*
X139375500Y-95473386D01*
X139348402Y-95302299D01*
X139294873Y-95137555D01*
X139216232Y-94983212D01*
X139114414Y-94843072D01*
X138991928Y-94720586D01*
X138851788Y-94618768D01*
X138697445Y-94540127D01*
X138697444Y-94540126D01*
X138697441Y-94540125D01*
X138532698Y-94486597D01*
X138361613Y-94459500D01*
X138361611Y-94459500D01*
X138188389Y-94459500D01*
X138188387Y-94459500D01*
X138017301Y-94486597D01*
X137852558Y-94540125D01*
X137698210Y-94618769D01*
X137558072Y-94720586D01*
X137435586Y-94843072D01*
X137333769Y-94983210D01*
X137255125Y-95137558D01*
X137201597Y-95302301D01*
X137174500Y-95473386D01*
X136835500Y-95473386D01*
X136808402Y-95302299D01*
X136754873Y-95137555D01*
X136676232Y-94983212D01*
X136574414Y-94843072D01*
X136451928Y-94720586D01*
X136311788Y-94618768D01*
X136157445Y-94540127D01*
X136157444Y-94540126D01*
X136157441Y-94540125D01*
X135992698Y-94486597D01*
X135821613Y-94459500D01*
X135821611Y-94459500D01*
X135648389Y-94459500D01*
X135648387Y-94459500D01*
X135477301Y-94486597D01*
X135312558Y-94540125D01*
X135158210Y-94618769D01*
X135018072Y-94720586D01*
X134895586Y-94843072D01*
X134793769Y-94983210D01*
X134715125Y-95137558D01*
X134661597Y-95302301D01*
X134634500Y-95473386D01*
X134295500Y-95473386D01*
X134268402Y-95302299D01*
X134214873Y-95137555D01*
X134136232Y-94983212D01*
X134034414Y-94843072D01*
X133911928Y-94720586D01*
X133771788Y-94618768D01*
X133617445Y-94540127D01*
X133617444Y-94540126D01*
X133617441Y-94540125D01*
X133452698Y-94486597D01*
X133281613Y-94459500D01*
X133281611Y-94459500D01*
X133108389Y-94459500D01*
X133108387Y-94459500D01*
X132937301Y-94486597D01*
X132772558Y-94540125D01*
X132618210Y-94618769D01*
X132478072Y-94720586D01*
X132355586Y-94843072D01*
X132253769Y-94983210D01*
X132175125Y-95137558D01*
X132121597Y-95302301D01*
X132094500Y-95473386D01*
X113290500Y-95473386D01*
X113290500Y-91740943D01*
X141614500Y-91740943D01*
X141614500Y-91899057D01*
X141655423Y-92051784D01*
X141734480Y-92188716D01*
X141846284Y-92300520D01*
X141983216Y-92379577D01*
X142135943Y-92420500D01*
X142294057Y-92420500D01*
X142446784Y-92379577D01*
X142546440Y-92322041D01*
X142552190Y-92320500D01*
X157530892Y-92320500D01*
X157658186Y-92286392D01*
X157772314Y-92220500D01*
X160626804Y-89366008D01*
X178844500Y-89366008D01*
X178844500Y-89503991D01*
X178871419Y-89639324D01*
X178871419Y-89639327D01*
X178912262Y-89737931D01*
X178924225Y-89766811D01*
X179000886Y-89881542D01*
X179098458Y-89979114D01*
X179213189Y-90055775D01*
X179340672Y-90108580D01*
X179476007Y-90135500D01*
X179476009Y-90135500D01*
X179613991Y-90135500D01*
X179613993Y-90135500D01*
X179749328Y-90108580D01*
X179876811Y-90055775D01*
X179991542Y-89979114D01*
X180089114Y-89881542D01*
X180165775Y-89766811D01*
X180218580Y-89639328D01*
X180245500Y-89503993D01*
X180245500Y-89447077D01*
X180248867Y-89438946D01*
X183524869Y-86162943D01*
X183533000Y-86159576D01*
X183541132Y-86162944D01*
X183544500Y-86171076D01*
X183544500Y-87719869D01*
X183544501Y-87719871D01*
X183547414Y-87744990D01*
X183547414Y-87744992D01*
X183592791Y-87847760D01*
X183592793Y-87847763D01*
X183592794Y-87847765D01*
X183672235Y-87927206D01*
X183672237Y-87927207D01*
X183672239Y-87927208D01*
X183775005Y-87972584D01*
X183775013Y-87972586D01*
X183793608Y-87974742D01*
X183800135Y-87975500D01*
X185689864Y-87975499D01*
X185689869Y-87975499D01*
X185689870Y-87975498D01*
X185714991Y-87972585D01*
X185714992Y-87972585D01*
X185817760Y-87927208D01*
X185817759Y-87927208D01*
X185817765Y-87927206D01*
X185897206Y-87847765D01*
X185921935Y-87791760D01*
X185942584Y-87744994D01*
X185942584Y-87744992D01*
X185942585Y-87744991D01*
X185945500Y-87719865D01*
X185945499Y-85830136D01*
X185945499Y-85830130D01*
X185945498Y-85830128D01*
X185942585Y-85805009D01*
X185942585Y-85805007D01*
X185897208Y-85702239D01*
X185897206Y-85702236D01*
X185897206Y-85702235D01*
X185817765Y-85622794D01*
X185817763Y-85622793D01*
X185817760Y-85622791D01*
X185714994Y-85577415D01*
X185714986Y-85577413D01*
X185689871Y-85574500D01*
X185689865Y-85574500D01*
X184141077Y-85574500D01*
X184132945Y-85571132D01*
X184129577Y-85563000D01*
X184132945Y-85554868D01*
X184321527Y-85366285D01*
X184329658Y-85362918D01*
X184333206Y-85363480D01*
X184463882Y-85405940D01*
X184557200Y-85420720D01*
X184650517Y-85435500D01*
X184650519Y-85435500D01*
X184839483Y-85435500D01*
X184921024Y-85422585D01*
X185026118Y-85405940D01*
X185205832Y-85347547D01*
X185374199Y-85261760D01*
X185527073Y-85150690D01*
X185660690Y-85017073D01*
X185771760Y-84864199D01*
X185857547Y-84695832D01*
X185915940Y-84516118D01*
X185945500Y-84329481D01*
X185945500Y-84140519D01*
X185943183Y-84125892D01*
X185915940Y-83953884D01*
X185915940Y-83953882D01*
X185857547Y-83774168D01*
X185771760Y-83605801D01*
X185660690Y-83452927D01*
X185527073Y-83319310D01*
X185374199Y-83208240D01*
X185205832Y-83122453D01*
X185205831Y-83122452D01*
X185205828Y-83122451D01*
X185026115Y-83064059D01*
X184839483Y-83034500D01*
X184839481Y-83034500D01*
X184650519Y-83034500D01*
X184650517Y-83034500D01*
X184463884Y-83064059D01*
X184284171Y-83122451D01*
X184115799Y-83208241D01*
X183962927Y-83319310D01*
X183829310Y-83452927D01*
X183718241Y-83605799D01*
X183632451Y-83774171D01*
X183574059Y-83953884D01*
X183544500Y-84140516D01*
X183544500Y-84329483D01*
X183574059Y-84516115D01*
X183574060Y-84516118D01*
X183611558Y-84631526D01*
X183616517Y-84646786D01*
X183615827Y-84655561D01*
X183613712Y-84658472D01*
X179541054Y-88731132D01*
X179532922Y-88734500D01*
X179476007Y-88734500D01*
X179408800Y-88747868D01*
X179340675Y-88761419D01*
X179340672Y-88761419D01*
X179213186Y-88814226D01*
X179098461Y-88890883D01*
X179000883Y-88988461D01*
X178924226Y-89103186D01*
X178871419Y-89230672D01*
X178871419Y-89230675D01*
X178844500Y-89366008D01*
X160626804Y-89366008D01*
X162642366Y-87350445D01*
X162642371Y-87350442D01*
X162643312Y-87349500D01*
X162643314Y-87349500D01*
X162736500Y-87256314D01*
X162802392Y-87142186D01*
X162836500Y-87014892D01*
X162836500Y-81065605D01*
X162839868Y-81057473D01*
X162848000Y-81054105D01*
X162856130Y-81057472D01*
X162958072Y-81159414D01*
X163098212Y-81261232D01*
X163252555Y-81339873D01*
X163417299Y-81393402D01*
X163502844Y-81406951D01*
X163588387Y-81420500D01*
X163588389Y-81420500D01*
X163761613Y-81420500D01*
X163830047Y-81409660D01*
X163932701Y-81393402D01*
X164097445Y-81339873D01*
X164251788Y-81261232D01*
X164391928Y-81159414D01*
X164514414Y-81036928D01*
X164616232Y-80896788D01*
X164694873Y-80742445D01*
X164748402Y-80577701D01*
X164775500Y-80406611D01*
X164775500Y-80233389D01*
X164775500Y-80233386D01*
X165114500Y-80233386D01*
X165114500Y-80406613D01*
X165141597Y-80577698D01*
X165195125Y-80742441D01*
X165195126Y-80742444D01*
X165195127Y-80742445D01*
X165273768Y-80896788D01*
X165375586Y-81036928D01*
X165498072Y-81159414D01*
X165638212Y-81261232D01*
X165792555Y-81339873D01*
X165957299Y-81393402D01*
X166042844Y-81406951D01*
X166128387Y-81420500D01*
X166128389Y-81420500D01*
X166301613Y-81420500D01*
X166370047Y-81409660D01*
X166472701Y-81393402D01*
X166637445Y-81339873D01*
X166791788Y-81261232D01*
X166931928Y-81159414D01*
X167054414Y-81036928D01*
X167156232Y-80896788D01*
X167234873Y-80742445D01*
X167288402Y-80577701D01*
X167315500Y-80406611D01*
X167315500Y-80233389D01*
X167306761Y-80178216D01*
X167288402Y-80062301D01*
X167288402Y-80062299D01*
X167234873Y-79897555D01*
X167156232Y-79743212D01*
X167054414Y-79603072D01*
X166931928Y-79480586D01*
X166791788Y-79378768D01*
X166637445Y-79300127D01*
X166637444Y-79300126D01*
X166637441Y-79300125D01*
X166472698Y-79246597D01*
X166301613Y-79219500D01*
X166301611Y-79219500D01*
X166128389Y-79219500D01*
X166128387Y-79219500D01*
X165957301Y-79246597D01*
X165792558Y-79300125D01*
X165638210Y-79378769D01*
X165498072Y-79480586D01*
X165375586Y-79603072D01*
X165273769Y-79743210D01*
X165195125Y-79897558D01*
X165141597Y-80062301D01*
X165114500Y-80233386D01*
X164775500Y-80233386D01*
X164766761Y-80178216D01*
X164748402Y-80062301D01*
X164748402Y-80062299D01*
X164694873Y-79897555D01*
X164616232Y-79743212D01*
X164514414Y-79603072D01*
X164391928Y-79480586D01*
X164251788Y-79378768D01*
X164097445Y-79300127D01*
X164097444Y-79300126D01*
X164097441Y-79300125D01*
X163932698Y-79246597D01*
X163761613Y-79219500D01*
X163761611Y-79219500D01*
X163588389Y-79219500D01*
X163588387Y-79219500D01*
X163417301Y-79246597D01*
X163252558Y-79300125D01*
X163098210Y-79378769D01*
X162958072Y-79480586D01*
X162856132Y-79582526D01*
X162848000Y-79585894D01*
X162839868Y-79582526D01*
X162836500Y-79574394D01*
X162836500Y-74505108D01*
X162802393Y-74377819D01*
X162802392Y-74377814D01*
X162736500Y-74263686D01*
X162643314Y-74170500D01*
X161154655Y-72681841D01*
X161151679Y-72676685D01*
X161114578Y-72538221D01*
X161114577Y-72538216D01*
X161035520Y-72401284D01*
X160923716Y-72289480D01*
X160923715Y-72289479D01*
X160786788Y-72210425D01*
X160786786Y-72210424D01*
X160786784Y-72210423D01*
X160786780Y-72210422D01*
X160786778Y-72210421D01*
X160634057Y-72169500D01*
X160475943Y-72169500D01*
X160323221Y-72210421D01*
X160323211Y-72210425D01*
X160186284Y-72289479D01*
X160074479Y-72401284D01*
X159995425Y-72538211D01*
X159995421Y-72538221D01*
X159979113Y-72599084D01*
X159954500Y-72690943D01*
X159954500Y-72849057D01*
X159995423Y-73001784D01*
X160074480Y-73138716D01*
X160186284Y-73250520D01*
X160323216Y-73329577D01*
X160407044Y-73352038D01*
X160412200Y-73355014D01*
X161832132Y-74774946D01*
X161835500Y-74783078D01*
X161835500Y-86736922D01*
X161832132Y-86745054D01*
X157261054Y-91316132D01*
X157252922Y-91319500D01*
X142552190Y-91319500D01*
X142546440Y-91317959D01*
X142446788Y-91260425D01*
X142446786Y-91260424D01*
X142446784Y-91260423D01*
X142446780Y-91260422D01*
X142446778Y-91260421D01*
X142294057Y-91219500D01*
X142135943Y-91219500D01*
X141983221Y-91260421D01*
X141983211Y-91260425D01*
X141846284Y-91339479D01*
X141734479Y-91451284D01*
X141655425Y-91588211D01*
X141655421Y-91588221D01*
X141614500Y-91740943D01*
X113290500Y-91740943D01*
X113290500Y-88942077D01*
X113293867Y-88933946D01*
X114331527Y-87896285D01*
X114339658Y-87892918D01*
X114343206Y-87893480D01*
X114473882Y-87935940D01*
X114567200Y-87950720D01*
X114660517Y-87965500D01*
X114660519Y-87965500D01*
X114849483Y-87965500D01*
X114924135Y-87953676D01*
X115036118Y-87935940D01*
X115215832Y-87877547D01*
X115384199Y-87791760D01*
X115537073Y-87680690D01*
X115670690Y-87547073D01*
X115781760Y-87394199D01*
X115867547Y-87225832D01*
X115925940Y-87046118D01*
X115955500Y-86859481D01*
X115955500Y-86670519D01*
X115925940Y-86483882D01*
X115867547Y-86304168D01*
X115781760Y-86135801D01*
X115670690Y-85982927D01*
X115537073Y-85849310D01*
X115384199Y-85738240D01*
X115215832Y-85652453D01*
X115215831Y-85652452D01*
X115215828Y-85652451D01*
X115036115Y-85594059D01*
X114849483Y-85564500D01*
X114849481Y-85564500D01*
X114660519Y-85564500D01*
X114660517Y-85564500D01*
X114473884Y-85594059D01*
X114294171Y-85652451D01*
X114125799Y-85738241D01*
X113972927Y-85849310D01*
X113839310Y-85982927D01*
X113728241Y-86135799D01*
X113642451Y-86304171D01*
X113584059Y-86483884D01*
X113554500Y-86670516D01*
X113554500Y-86859483D01*
X113584059Y-87046115D01*
X113584060Y-87046118D01*
X113615274Y-87142186D01*
X113626517Y-87176786D01*
X113625827Y-87185561D01*
X113623712Y-87188472D01*
X112482686Y-88329500D01*
X112389499Y-88422686D01*
X112323610Y-88536809D01*
X112323606Y-88536819D01*
X112289500Y-88664108D01*
X108000500Y-88664108D01*
X108000500Y-87000109D01*
X108000501Y-86999934D01*
X108002967Y-86838221D01*
X108020032Y-85719312D01*
X108020043Y-85718991D01*
X108020811Y-85702236D01*
X108078612Y-84439700D01*
X108078632Y-84439381D01*
X108084138Y-84367314D01*
X108167200Y-83280128D01*
X113554500Y-83280128D01*
X113554500Y-85169869D01*
X113554501Y-85169871D01*
X113557414Y-85194990D01*
X113557414Y-85194992D01*
X113602791Y-85297760D01*
X113602793Y-85297763D01*
X113602794Y-85297765D01*
X113682235Y-85377206D01*
X113682237Y-85377207D01*
X113682239Y-85377208D01*
X113785005Y-85422584D01*
X113785013Y-85422586D01*
X113803608Y-85424742D01*
X113810135Y-85425500D01*
X115699864Y-85425499D01*
X115699869Y-85425499D01*
X115699870Y-85425498D01*
X115724991Y-85422585D01*
X115724992Y-85422585D01*
X115827760Y-85377208D01*
X115827759Y-85377208D01*
X115827765Y-85377206D01*
X115907206Y-85297765D01*
X115952585Y-85194991D01*
X115955500Y-85169865D01*
X115955499Y-83280136D01*
X115955499Y-83280135D01*
X115955499Y-83280130D01*
X115955498Y-83280128D01*
X115952585Y-83255009D01*
X115952585Y-83255007D01*
X115907208Y-83152239D01*
X115907206Y-83152236D01*
X115907206Y-83152235D01*
X115827765Y-83072794D01*
X115827763Y-83072793D01*
X115827760Y-83072791D01*
X115724994Y-83027415D01*
X115724986Y-83027413D01*
X115699871Y-83024500D01*
X113810130Y-83024500D01*
X113810128Y-83024501D01*
X113785009Y-83027414D01*
X113785007Y-83027414D01*
X113682239Y-83072791D01*
X113682236Y-83072793D01*
X113602793Y-83152236D01*
X113602791Y-83152239D01*
X113557415Y-83255005D01*
X113557413Y-83255013D01*
X113554500Y-83280128D01*
X108167200Y-83280128D01*
X108176192Y-83162426D01*
X108176217Y-83162160D01*
X108312677Y-81888742D01*
X108312711Y-81888464D01*
X108480246Y-80675516D01*
X113404500Y-80675516D01*
X113404500Y-80864483D01*
X113434059Y-81051115D01*
X113492451Y-81230828D01*
X113492452Y-81230831D01*
X113492453Y-81230832D01*
X113578240Y-81399199D01*
X113689310Y-81552073D01*
X113822927Y-81685690D01*
X113975801Y-81796760D01*
X114144168Y-81882547D01*
X114323882Y-81940940D01*
X114417200Y-81955720D01*
X114510517Y-81970500D01*
X114510519Y-81970500D01*
X114699483Y-81970500D01*
X114774135Y-81958676D01*
X114886118Y-81940940D01*
X115065832Y-81882547D01*
X115234199Y-81796760D01*
X115387073Y-81685690D01*
X115520690Y-81552073D01*
X115631760Y-81399199D01*
X115717547Y-81230832D01*
X115775940Y-81051118D01*
X115805500Y-80864481D01*
X115805500Y-80675519D01*
X115805179Y-80673494D01*
X115787764Y-80563536D01*
X115775940Y-80488882D01*
X115717547Y-80309168D01*
X115631760Y-80140801D01*
X115520690Y-79987927D01*
X115387073Y-79854310D01*
X115234199Y-79743240D01*
X115065832Y-79657453D01*
X115065831Y-79657452D01*
X115065828Y-79657451D01*
X114886115Y-79599059D01*
X114699483Y-79569500D01*
X114699481Y-79569500D01*
X114510519Y-79569500D01*
X114510517Y-79569500D01*
X114323884Y-79599059D01*
X114144171Y-79657451D01*
X113975799Y-79743241D01*
X113822927Y-79854310D01*
X113689310Y-79987927D01*
X113578241Y-80140799D01*
X113492451Y-80309171D01*
X113434059Y-80488884D01*
X113404500Y-80675516D01*
X108480246Y-80675516D01*
X108487939Y-80619820D01*
X108487979Y-80619560D01*
X108701818Y-79356829D01*
X108701869Y-79356555D01*
X108954115Y-78100940D01*
X108954185Y-78100624D01*
X108957409Y-78086779D01*
X109144060Y-77285128D01*
X113404500Y-77285128D01*
X113404500Y-79174869D01*
X113404501Y-79174871D01*
X113407414Y-79199990D01*
X113407414Y-79199992D01*
X113452791Y-79302760D01*
X113452793Y-79302763D01*
X113452794Y-79302765D01*
X113532235Y-79382206D01*
X113532237Y-79382207D01*
X113532239Y-79382208D01*
X113635005Y-79427584D01*
X113635013Y-79427586D01*
X113653608Y-79429742D01*
X113660135Y-79430500D01*
X115549864Y-79430499D01*
X115549869Y-79430499D01*
X115549870Y-79430498D01*
X115574991Y-79427585D01*
X115574992Y-79427585D01*
X115677760Y-79382208D01*
X115677759Y-79382208D01*
X115677765Y-79382206D01*
X115757206Y-79302765D01*
X115792684Y-79222415D01*
X115802584Y-79199994D01*
X115802584Y-79199992D01*
X115802585Y-79199991D01*
X115802600Y-79199868D01*
X115805499Y-79174871D01*
X115805500Y-79174865D01*
X115805499Y-77493386D01*
X117899500Y-77493386D01*
X117899500Y-77666613D01*
X117926597Y-77837698D01*
X117980125Y-78002441D01*
X117980126Y-78002444D01*
X117980127Y-78002445D01*
X118058768Y-78156788D01*
X118160586Y-78296928D01*
X118283072Y-78419414D01*
X118423212Y-78521232D01*
X118577555Y-78599873D01*
X118742299Y-78653402D01*
X118827844Y-78666951D01*
X118913387Y-78680500D01*
X118913389Y-78680500D01*
X119086613Y-78680500D01*
X119155047Y-78669660D01*
X119257701Y-78653402D01*
X119422445Y-78599873D01*
X119576788Y-78521232D01*
X119716928Y-78419414D01*
X119839414Y-78296928D01*
X119941232Y-78156788D01*
X119976903Y-78086779D01*
X119983596Y-78081063D01*
X119987150Y-78080500D01*
X120582922Y-78080500D01*
X120591054Y-78083868D01*
X121664498Y-79157311D01*
X121664500Y-79157314D01*
X121757686Y-79250500D01*
X121871814Y-79316392D01*
X121999107Y-79350500D01*
X121999108Y-79350500D01*
X132625791Y-79350500D01*
X132633923Y-79353868D01*
X132637291Y-79362000D01*
X132633923Y-79370132D01*
X132631012Y-79372246D01*
X132618215Y-79378766D01*
X132618212Y-79378767D01*
X132618212Y-79378768D01*
X132520152Y-79450013D01*
X132478072Y-79480586D01*
X132355586Y-79603072D01*
X132253769Y-79743210D01*
X132175125Y-79897558D01*
X132121597Y-80062301D01*
X132094500Y-80233386D01*
X132094500Y-80406613D01*
X132121597Y-80577698D01*
X132175125Y-80742441D01*
X132175126Y-80742444D01*
X132175127Y-80742445D01*
X132253768Y-80896788D01*
X132355586Y-81036928D01*
X132478072Y-81159414D01*
X132618212Y-81261232D01*
X132772555Y-81339873D01*
X132937299Y-81393402D01*
X133022844Y-81406951D01*
X133108387Y-81420500D01*
X133108389Y-81420500D01*
X133281613Y-81420500D01*
X133350047Y-81409660D01*
X133452701Y-81393402D01*
X133617445Y-81339873D01*
X133771788Y-81261232D01*
X133911928Y-81159414D01*
X134034414Y-81036928D01*
X134136232Y-80896788D01*
X134214873Y-80742445D01*
X134268402Y-80577701D01*
X134295500Y-80406611D01*
X134295500Y-80233389D01*
X134286761Y-80178216D01*
X134268402Y-80062301D01*
X134268402Y-80062299D01*
X134214873Y-79897555D01*
X134136232Y-79743212D01*
X134034414Y-79603072D01*
X133911928Y-79480586D01*
X133771788Y-79378768D01*
X133758988Y-79372246D01*
X133753272Y-79365554D01*
X133753963Y-79356779D01*
X133760655Y-79351063D01*
X133764209Y-79350500D01*
X135165791Y-79350500D01*
X135173923Y-79353868D01*
X135177291Y-79362000D01*
X135173923Y-79370132D01*
X135171012Y-79372246D01*
X135158215Y-79378766D01*
X135158212Y-79378767D01*
X135158212Y-79378768D01*
X135060152Y-79450013D01*
X135018072Y-79480586D01*
X134895586Y-79603072D01*
X134793769Y-79743210D01*
X134715125Y-79897558D01*
X134661597Y-80062301D01*
X134634500Y-80233386D01*
X134634500Y-80406613D01*
X134661597Y-80577698D01*
X134715125Y-80742441D01*
X134715126Y-80742444D01*
X134715127Y-80742445D01*
X134793768Y-80896788D01*
X134895586Y-81036928D01*
X135018072Y-81159414D01*
X135158212Y-81261232D01*
X135312555Y-81339873D01*
X135477299Y-81393402D01*
X135562844Y-81406951D01*
X135648387Y-81420500D01*
X135648389Y-81420500D01*
X135821613Y-81420500D01*
X135890047Y-81409660D01*
X135992701Y-81393402D01*
X136157445Y-81339873D01*
X136311788Y-81261232D01*
X136451928Y-81159414D01*
X136574414Y-81036928D01*
X136676232Y-80896788D01*
X136754873Y-80742445D01*
X136808402Y-80577701D01*
X136835500Y-80406611D01*
X136835500Y-80233389D01*
X136826761Y-80178216D01*
X136808402Y-80062301D01*
X136808402Y-80062299D01*
X136754873Y-79897555D01*
X136676232Y-79743212D01*
X136574414Y-79603072D01*
X136451928Y-79480586D01*
X136311788Y-79378768D01*
X136298988Y-79372246D01*
X136293272Y-79365554D01*
X136293963Y-79356779D01*
X136300655Y-79351063D01*
X136304209Y-79350500D01*
X137705791Y-79350500D01*
X137713923Y-79353868D01*
X137717291Y-79362000D01*
X137713923Y-79370132D01*
X137711012Y-79372246D01*
X137698215Y-79378766D01*
X137698212Y-79378767D01*
X137698212Y-79378768D01*
X137600152Y-79450013D01*
X137558072Y-79480586D01*
X137435586Y-79603072D01*
X137333769Y-79743210D01*
X137255125Y-79897558D01*
X137201597Y-80062301D01*
X137174500Y-80233386D01*
X137174500Y-80406613D01*
X137201597Y-80577698D01*
X137255125Y-80742441D01*
X137255126Y-80742444D01*
X137255127Y-80742445D01*
X137333768Y-80896788D01*
X137435586Y-81036928D01*
X137558072Y-81159414D01*
X137698212Y-81261232D01*
X137852555Y-81339873D01*
X138017299Y-81393402D01*
X138102844Y-81406951D01*
X138188387Y-81420500D01*
X138188389Y-81420500D01*
X138361613Y-81420500D01*
X138430047Y-81409660D01*
X138532701Y-81393402D01*
X138697445Y-81339873D01*
X138851788Y-81261232D01*
X138991928Y-81159414D01*
X139114414Y-81036928D01*
X139216232Y-80896788D01*
X139294873Y-80742445D01*
X139348402Y-80577701D01*
X139375500Y-80406611D01*
X139375500Y-80233389D01*
X139366761Y-80178216D01*
X139348402Y-80062301D01*
X139348402Y-80062299D01*
X139294873Y-79897555D01*
X139216232Y-79743212D01*
X139114414Y-79603072D01*
X138991928Y-79480586D01*
X138851788Y-79378768D01*
X138838988Y-79372246D01*
X138833272Y-79365554D01*
X138833963Y-79356779D01*
X138840655Y-79351063D01*
X138844209Y-79350500D01*
X140245791Y-79350500D01*
X140253923Y-79353868D01*
X140257291Y-79362000D01*
X140253923Y-79370132D01*
X140251012Y-79372246D01*
X140238215Y-79378766D01*
X140238212Y-79378767D01*
X140238212Y-79378768D01*
X140140152Y-79450013D01*
X140098072Y-79480586D01*
X139975586Y-79603072D01*
X139873769Y-79743210D01*
X139795125Y-79897558D01*
X139741597Y-80062301D01*
X139714500Y-80233386D01*
X139714500Y-80406613D01*
X139741597Y-80577698D01*
X139795125Y-80742441D01*
X139795126Y-80742444D01*
X139795127Y-80742445D01*
X139873768Y-80896788D01*
X139975586Y-81036928D01*
X140098072Y-81159414D01*
X140238212Y-81261232D01*
X140392555Y-81339873D01*
X140557299Y-81393402D01*
X140642844Y-81406951D01*
X140728387Y-81420500D01*
X140728389Y-81420500D01*
X140901613Y-81420500D01*
X140970047Y-81409660D01*
X141072701Y-81393402D01*
X141237445Y-81339873D01*
X141391788Y-81261232D01*
X141531928Y-81159414D01*
X141654414Y-81036928D01*
X141756232Y-80896788D01*
X141834873Y-80742445D01*
X141888402Y-80577701D01*
X141915500Y-80406611D01*
X141915500Y-80233389D01*
X141906761Y-80178216D01*
X141888402Y-80062301D01*
X141888402Y-80062299D01*
X141834873Y-79897555D01*
X141756232Y-79743212D01*
X141654414Y-79603072D01*
X141531928Y-79480586D01*
X141391788Y-79378768D01*
X141378988Y-79372246D01*
X141373272Y-79365554D01*
X141373963Y-79356779D01*
X141380655Y-79351063D01*
X141384209Y-79350500D01*
X142785791Y-79350500D01*
X142793923Y-79353868D01*
X142797291Y-79362000D01*
X142793923Y-79370132D01*
X142791012Y-79372246D01*
X142778215Y-79378766D01*
X142778212Y-79378767D01*
X142778212Y-79378768D01*
X142680152Y-79450013D01*
X142638072Y-79480586D01*
X142515586Y-79603072D01*
X142413769Y-79743210D01*
X142335125Y-79897558D01*
X142281597Y-80062301D01*
X142254500Y-80233386D01*
X142254500Y-80406613D01*
X142281597Y-80577698D01*
X142335125Y-80742441D01*
X142335126Y-80742444D01*
X142335127Y-80742445D01*
X142413768Y-80896788D01*
X142515586Y-81036928D01*
X142638072Y-81159414D01*
X142778212Y-81261232D01*
X142932555Y-81339873D01*
X143097299Y-81393402D01*
X143182844Y-81406951D01*
X143268387Y-81420500D01*
X143268389Y-81420500D01*
X143441613Y-81420500D01*
X143510047Y-81409660D01*
X143612701Y-81393402D01*
X143777445Y-81339873D01*
X143931788Y-81261232D01*
X144071928Y-81159414D01*
X144194414Y-81036928D01*
X144296232Y-80896788D01*
X144374873Y-80742445D01*
X144428402Y-80577701D01*
X144455500Y-80406611D01*
X144455500Y-80233389D01*
X144446761Y-80178216D01*
X144428402Y-80062301D01*
X144428402Y-80062299D01*
X144374873Y-79897555D01*
X144296232Y-79743212D01*
X144194414Y-79603072D01*
X144071928Y-79480586D01*
X143931788Y-79378768D01*
X143918988Y-79372246D01*
X143913272Y-79365554D01*
X143913963Y-79356779D01*
X143920655Y-79351063D01*
X143924209Y-79350500D01*
X145325791Y-79350500D01*
X145333923Y-79353868D01*
X145337291Y-79362000D01*
X145333923Y-79370132D01*
X145331012Y-79372246D01*
X145318215Y-79378766D01*
X145318212Y-79378767D01*
X145318212Y-79378768D01*
X145220152Y-79450013D01*
X145178072Y-79480586D01*
X145055586Y-79603072D01*
X144953769Y-79743210D01*
X144875125Y-79897558D01*
X144821597Y-80062301D01*
X144794500Y-80233386D01*
X144794500Y-80406613D01*
X144821597Y-80577698D01*
X144875125Y-80742441D01*
X144875126Y-80742444D01*
X144875127Y-80742445D01*
X144953768Y-80896788D01*
X145055586Y-81036928D01*
X145178072Y-81159414D01*
X145318212Y-81261232D01*
X145472555Y-81339873D01*
X145637299Y-81393402D01*
X145722844Y-81406951D01*
X145808387Y-81420500D01*
X145808389Y-81420500D01*
X145981613Y-81420500D01*
X146050047Y-81409660D01*
X146152701Y-81393402D01*
X146317445Y-81339873D01*
X146471788Y-81261232D01*
X146611928Y-81159414D01*
X146734414Y-81036928D01*
X146836232Y-80896788D01*
X146914873Y-80742445D01*
X146968402Y-80577701D01*
X146995500Y-80406611D01*
X146995500Y-80233389D01*
X146986761Y-80178216D01*
X146968402Y-80062301D01*
X146968402Y-80062299D01*
X146914873Y-79897555D01*
X146836232Y-79743212D01*
X146734414Y-79603072D01*
X146611928Y-79480586D01*
X146471788Y-79378768D01*
X146458988Y-79372246D01*
X146453272Y-79365554D01*
X146453963Y-79356779D01*
X146460655Y-79351063D01*
X146464209Y-79350500D01*
X147865791Y-79350500D01*
X147873923Y-79353868D01*
X147877291Y-79362000D01*
X147873923Y-79370132D01*
X147871012Y-79372246D01*
X147858215Y-79378766D01*
X147858212Y-79378767D01*
X147858212Y-79378768D01*
X147760152Y-79450013D01*
X147718072Y-79480586D01*
X147595586Y-79603072D01*
X147493769Y-79743210D01*
X147415125Y-79897558D01*
X147361597Y-80062301D01*
X147334500Y-80233386D01*
X147334500Y-80406613D01*
X147361597Y-80577698D01*
X147415125Y-80742441D01*
X147415126Y-80742444D01*
X147415127Y-80742445D01*
X147493768Y-80896788D01*
X147595586Y-81036928D01*
X147718072Y-81159414D01*
X147858212Y-81261232D01*
X147928222Y-81296903D01*
X147933937Y-81303595D01*
X147934500Y-81307149D01*
X147934500Y-84989108D01*
X147934500Y-85120892D01*
X147942484Y-85150689D01*
X147968606Y-85248180D01*
X147968610Y-85248190D01*
X148034499Y-85362313D01*
X149211132Y-86538946D01*
X149214500Y-86547078D01*
X149214500Y-86732809D01*
X149212959Y-86738559D01*
X149155425Y-86838211D01*
X149155421Y-86838221D01*
X149114500Y-86990943D01*
X149114500Y-87149056D01*
X149155421Y-87301778D01*
X149155425Y-87301788D01*
X149182971Y-87349500D01*
X149234480Y-87438716D01*
X149346284Y-87550520D01*
X149483216Y-87629577D01*
X149635943Y-87670500D01*
X149794057Y-87670500D01*
X149946784Y-87629577D01*
X150083716Y-87550520D01*
X150195520Y-87438716D01*
X150274577Y-87301784D01*
X150315500Y-87149057D01*
X150315500Y-86990943D01*
X150274577Y-86838216D01*
X150217041Y-86738559D01*
X150215500Y-86732809D01*
X150215500Y-86269108D01*
X150214265Y-86264500D01*
X150214265Y-86264499D01*
X150199770Y-86210404D01*
X150181392Y-86141814D01*
X150157202Y-86099916D01*
X150115500Y-86027686D01*
X150022314Y-85934500D01*
X149899049Y-85811235D01*
X149895681Y-85803103D01*
X149899049Y-85794971D01*
X149907181Y-85791603D01*
X149922954Y-85791603D01*
X150075681Y-85750680D01*
X150212613Y-85671623D01*
X150324417Y-85559819D01*
X150403474Y-85422887D01*
X150433256Y-85311734D01*
X150436230Y-85306582D01*
X151281366Y-84461445D01*
X151281371Y-84461442D01*
X151282312Y-84460500D01*
X151282314Y-84460500D01*
X151375500Y-84367314D01*
X151441392Y-84253186D01*
X151466071Y-84161082D01*
X151475500Y-84125893D01*
X151475500Y-83994108D01*
X151475500Y-82080943D01*
X154859500Y-82080943D01*
X154859500Y-82239056D01*
X154900421Y-82391778D01*
X154900425Y-82391788D01*
X154940758Y-82461648D01*
X154979480Y-82528716D01*
X155091284Y-82640520D01*
X155228216Y-82719577D01*
X155380943Y-82760500D01*
X155539057Y-82760500D01*
X155691784Y-82719577D01*
X155808761Y-82652041D01*
X155814511Y-82650500D01*
X158145892Y-82650500D01*
X158273186Y-82616392D01*
X158387314Y-82550500D01*
X158995500Y-81942314D01*
X159061392Y-81828186D01*
X159095500Y-81700892D01*
X159095500Y-81569108D01*
X159095500Y-81307149D01*
X159098868Y-81299017D01*
X159101775Y-81296904D01*
X159171788Y-81261232D01*
X159311928Y-81159414D01*
X159434414Y-81036928D01*
X159536232Y-80896788D01*
X159614873Y-80742445D01*
X159668402Y-80577701D01*
X159695500Y-80406611D01*
X159695500Y-80233389D01*
X159686761Y-80178216D01*
X159668402Y-80062301D01*
X159668402Y-80062299D01*
X159614873Y-79897555D01*
X159536232Y-79743212D01*
X159434414Y-79603072D01*
X159311928Y-79480586D01*
X159171788Y-79378768D01*
X159017445Y-79300127D01*
X159017444Y-79300126D01*
X159017441Y-79300125D01*
X158852698Y-79246597D01*
X158681613Y-79219500D01*
X158681611Y-79219500D01*
X158508389Y-79219500D01*
X158508387Y-79219500D01*
X158337301Y-79246597D01*
X158172558Y-79300125D01*
X158018210Y-79378769D01*
X157878072Y-79480586D01*
X157755586Y-79603072D01*
X157653769Y-79743210D01*
X157575125Y-79897558D01*
X157521597Y-80062301D01*
X157494500Y-80233386D01*
X157494500Y-80406613D01*
X157521597Y-80577698D01*
X157575125Y-80742441D01*
X157575126Y-80742444D01*
X157575127Y-80742445D01*
X157653768Y-80896788D01*
X157755586Y-81036928D01*
X157878072Y-81159414D01*
X158018212Y-81261232D01*
X158088222Y-81296903D01*
X158093937Y-81303595D01*
X158094500Y-81307149D01*
X158094500Y-81422922D01*
X158091132Y-81431054D01*
X157876054Y-81646132D01*
X157867922Y-81649500D01*
X155779870Y-81649500D01*
X155774120Y-81647959D01*
X155691788Y-81600425D01*
X155691786Y-81600424D01*
X155691784Y-81600423D01*
X155691780Y-81600422D01*
X155691778Y-81600421D01*
X155539057Y-81559500D01*
X155380943Y-81559500D01*
X155228221Y-81600421D01*
X155228211Y-81600425D01*
X155091284Y-81679479D01*
X154979479Y-81791284D01*
X154900425Y-81928211D01*
X154900421Y-81928221D01*
X154859500Y-82080943D01*
X151475500Y-82080943D01*
X151475500Y-81307149D01*
X151478868Y-81299017D01*
X151481775Y-81296904D01*
X151551788Y-81261232D01*
X151691928Y-81159414D01*
X151814414Y-81036928D01*
X151916232Y-80896788D01*
X151994873Y-80742445D01*
X152048402Y-80577701D01*
X152075500Y-80406611D01*
X152075500Y-80233389D01*
X152066761Y-80178216D01*
X152048402Y-80062301D01*
X152048402Y-80062299D01*
X151994873Y-79897555D01*
X151916232Y-79743212D01*
X151814414Y-79603072D01*
X151691928Y-79480586D01*
X151551788Y-79378768D01*
X151538988Y-79372246D01*
X151533272Y-79365554D01*
X151533963Y-79356779D01*
X151540655Y-79351063D01*
X151544209Y-79350500D01*
X152945791Y-79350500D01*
X152953923Y-79353868D01*
X152957291Y-79362000D01*
X152953923Y-79370132D01*
X152951012Y-79372246D01*
X152938215Y-79378766D01*
X152938212Y-79378767D01*
X152938212Y-79378768D01*
X152840152Y-79450013D01*
X152798072Y-79480586D01*
X152675586Y-79603072D01*
X152573769Y-79743210D01*
X152495125Y-79897558D01*
X152441597Y-80062301D01*
X152414500Y-80233386D01*
X152414500Y-80406613D01*
X152441597Y-80577698D01*
X152495125Y-80742441D01*
X152495126Y-80742444D01*
X152495127Y-80742445D01*
X152573768Y-80896788D01*
X152675586Y-81036928D01*
X152798072Y-81159414D01*
X152938212Y-81261232D01*
X153092555Y-81339873D01*
X153257299Y-81393402D01*
X153342844Y-81406951D01*
X153428387Y-81420500D01*
X153428389Y-81420500D01*
X153601613Y-81420500D01*
X153670047Y-81409660D01*
X153772701Y-81393402D01*
X153937445Y-81339873D01*
X154091788Y-81261232D01*
X154231928Y-81159414D01*
X154354414Y-81036928D01*
X154456232Y-80896788D01*
X154534873Y-80742445D01*
X154588402Y-80577701D01*
X154615500Y-80406611D01*
X154615500Y-80233389D01*
X154606761Y-80178216D01*
X154588402Y-80062301D01*
X154588402Y-80062299D01*
X154534873Y-79897555D01*
X154456232Y-79743212D01*
X154354414Y-79603072D01*
X154231928Y-79480586D01*
X154091788Y-79378768D01*
X154078988Y-79372246D01*
X154073272Y-79365554D01*
X154073963Y-79356779D01*
X154080655Y-79351063D01*
X154084209Y-79350500D01*
X155485791Y-79350500D01*
X155493923Y-79353868D01*
X155497291Y-79362000D01*
X155493923Y-79370132D01*
X155491012Y-79372246D01*
X155478215Y-79378766D01*
X155478212Y-79378767D01*
X155478212Y-79378768D01*
X155380152Y-79450013D01*
X155338072Y-79480586D01*
X155215586Y-79603072D01*
X155113769Y-79743210D01*
X155035125Y-79897558D01*
X154981597Y-80062301D01*
X154954500Y-80233386D01*
X154954500Y-80406613D01*
X154981597Y-80577698D01*
X155035125Y-80742441D01*
X155035126Y-80742444D01*
X155035127Y-80742445D01*
X155113768Y-80896788D01*
X155215586Y-81036928D01*
X155338072Y-81159414D01*
X155478212Y-81261232D01*
X155632555Y-81339873D01*
X155797299Y-81393402D01*
X155882844Y-81406951D01*
X155968387Y-81420500D01*
X155968389Y-81420500D01*
X156141613Y-81420500D01*
X156210047Y-81409660D01*
X156312701Y-81393402D01*
X156477445Y-81339873D01*
X156631788Y-81261232D01*
X156771928Y-81159414D01*
X156894414Y-81036928D01*
X156996232Y-80896788D01*
X157074873Y-80742445D01*
X157128402Y-80577701D01*
X157155500Y-80406611D01*
X157155500Y-80233389D01*
X157146761Y-80178216D01*
X157128402Y-80062301D01*
X157128402Y-80062299D01*
X157074873Y-79897555D01*
X156996232Y-79743212D01*
X156894414Y-79603072D01*
X156771928Y-79480586D01*
X156631788Y-79378768D01*
X156618988Y-79372246D01*
X156613272Y-79365554D01*
X156613963Y-79356779D01*
X156620655Y-79351063D01*
X156624209Y-79350500D01*
X157385892Y-79350500D01*
X157513186Y-79316392D01*
X157627314Y-79250500D01*
X157805479Y-79072333D01*
X157810631Y-79069359D01*
X157921784Y-79039577D01*
X158058716Y-78960520D01*
X158170520Y-78848716D01*
X158249577Y-78711784D01*
X158290500Y-78559057D01*
X158290500Y-78400943D01*
X158249577Y-78248216D01*
X158170520Y-78111284D01*
X158058716Y-77999480D01*
X158058715Y-77999479D01*
X157921788Y-77920425D01*
X157921786Y-77920424D01*
X157921784Y-77920423D01*
X157921780Y-77920422D01*
X157921778Y-77920421D01*
X157769057Y-77879500D01*
X157610943Y-77879500D01*
X157458221Y-77920421D01*
X157458211Y-77920425D01*
X157321284Y-77999479D01*
X157209479Y-78111284D01*
X157130425Y-78248211D01*
X157130421Y-78248221D01*
X157105568Y-78340976D01*
X157100210Y-78347959D01*
X157094460Y-78349500D01*
X122277077Y-78349500D01*
X122268945Y-78346132D01*
X121102313Y-77179499D01*
X120988190Y-77113610D01*
X120988188Y-77113609D01*
X120988186Y-77113608D01*
X120988182Y-77113607D01*
X120988180Y-77113606D01*
X120860892Y-77079500D01*
X119987150Y-77079500D01*
X119979018Y-77076132D01*
X119976903Y-77073221D01*
X119956111Y-77032415D01*
X119941232Y-77003212D01*
X119839414Y-76863072D01*
X119716928Y-76740586D01*
X119576788Y-76638768D01*
X119422445Y-76560127D01*
X119422444Y-76560126D01*
X119422441Y-76560125D01*
X119257698Y-76506597D01*
X119086613Y-76479500D01*
X119086611Y-76479500D01*
X118913389Y-76479500D01*
X118913387Y-76479500D01*
X118742301Y-76506597D01*
X118577558Y-76560125D01*
X118423210Y-76638769D01*
X118283072Y-76740586D01*
X118160586Y-76863072D01*
X118058769Y-77003210D01*
X117980125Y-77157558D01*
X117926597Y-77322301D01*
X117899500Y-77493386D01*
X115805499Y-77493386D01*
X115805499Y-77285136D01*
X115805499Y-77285135D01*
X115805499Y-77285130D01*
X115805498Y-77285128D01*
X115802585Y-77260009D01*
X115802585Y-77260007D01*
X115757208Y-77157239D01*
X115757206Y-77157236D01*
X115757206Y-77157235D01*
X115677765Y-77077794D01*
X115677763Y-77077793D01*
X115677760Y-77077791D01*
X115574994Y-77032415D01*
X115574986Y-77032413D01*
X115549871Y-77029500D01*
X113660130Y-77029500D01*
X113660128Y-77029501D01*
X113635009Y-77032414D01*
X113635007Y-77032414D01*
X113532239Y-77077791D01*
X113532236Y-77077793D01*
X113452793Y-77157236D01*
X113452791Y-77157239D01*
X113407415Y-77260005D01*
X113407413Y-77260013D01*
X113404500Y-77285128D01*
X109144060Y-77285128D01*
X109244592Y-76853349D01*
X109244652Y-76853106D01*
X109572981Y-75615187D01*
X109573056Y-75614921D01*
X109938985Y-74387583D01*
X109939065Y-74387331D01*
X110342229Y-73171803D01*
X110342337Y-73171493D01*
X110354330Y-73138715D01*
X110782407Y-71968756D01*
X110782491Y-71968539D01*
X111259020Y-70779819D01*
X111259144Y-70779523D01*
X111305205Y-70674056D01*
X111771696Y-69605902D01*
X111771832Y-69605605D01*
X112319940Y-68448156D01*
X112320055Y-68447921D01*
X112903232Y-67307676D01*
X112903367Y-67307423D01*
X113521033Y-66185513D01*
X113521138Y-66185329D01*
X114172744Y-65082756D01*
X114172895Y-65082510D01*
X114219125Y-65009467D01*
X120622149Y-65009467D01*
X120622149Y-65198434D01*
X120651708Y-65385066D01*
X120710100Y-65564779D01*
X120710101Y-65564782D01*
X120710102Y-65564783D01*
X120795889Y-65733150D01*
X120906959Y-65886024D01*
X121040576Y-66019641D01*
X121193450Y-66130711D01*
X121361817Y-66216498D01*
X121541531Y-66274891D01*
X121634849Y-66289671D01*
X121728166Y-66304451D01*
X121728168Y-66304451D01*
X121917132Y-66304451D01*
X121991784Y-66292627D01*
X122103767Y-66274891D01*
X122283481Y-66216498D01*
X122451848Y-66130711D01*
X122604722Y-66019641D01*
X122738339Y-65886024D01*
X122849409Y-65733150D01*
X122935196Y-65564783D01*
X122993589Y-65385069D01*
X123023149Y-65198432D01*
X123023149Y-65009470D01*
X123022103Y-65002868D01*
X122993589Y-64822835D01*
X122993589Y-64822833D01*
X122935196Y-64643119D01*
X122849409Y-64474752D01*
X122738339Y-64321878D01*
X122604722Y-64188261D01*
X122451848Y-64077191D01*
X122283481Y-63991404D01*
X122283480Y-63991403D01*
X122283477Y-63991402D01*
X122103764Y-63933010D01*
X121917132Y-63903451D01*
X121917130Y-63903451D01*
X121728168Y-63903451D01*
X121728166Y-63903451D01*
X121541533Y-63933010D01*
X121361820Y-63991402D01*
X121193448Y-64077192D01*
X121040576Y-64188261D01*
X120906959Y-64321878D01*
X120795890Y-64474750D01*
X120710100Y-64643122D01*
X120651708Y-64822835D01*
X120622149Y-65009467D01*
X114219125Y-65009467D01*
X114857807Y-64000344D01*
X114857939Y-64000142D01*
X115364231Y-63251724D01*
X122045408Y-63251724D01*
X122045408Y-63364075D01*
X122085989Y-63468829D01*
X122085991Y-63468832D01*
X122085992Y-63468833D01*
X122101698Y-63488661D01*
X122101702Y-63488665D01*
X122101703Y-63488666D01*
X123114832Y-64501794D01*
X123118200Y-64509926D01*
X123118200Y-67844591D01*
X123152306Y-67971880D01*
X123152310Y-67971890D01*
X123218199Y-68086013D01*
X126716504Y-71584318D01*
X126719872Y-71592450D01*
X126719651Y-71594693D01*
X126699500Y-71696007D01*
X126699500Y-71833991D01*
X126726419Y-71969324D01*
X126726419Y-71969327D01*
X126779226Y-72096813D01*
X126855883Y-72211538D01*
X126855886Y-72211542D01*
X126953458Y-72309114D01*
X127068189Y-72385775D01*
X127195672Y-72438580D01*
X127331007Y-72465500D01*
X127331009Y-72465500D01*
X127468991Y-72465500D01*
X127468993Y-72465500D01*
X127604328Y-72438580D01*
X127731811Y-72385775D01*
X127846542Y-72309114D01*
X127944114Y-72211542D01*
X128020775Y-72096811D01*
X128073580Y-71969328D01*
X128100500Y-71833993D01*
X128100500Y-71696007D01*
X128073580Y-71560672D01*
X128020775Y-71433189D01*
X127944114Y-71318458D01*
X127846542Y-71220886D01*
X127846538Y-71220883D01*
X127731813Y-71144226D01*
X127666029Y-71116977D01*
X127662298Y-71114484D01*
X124122568Y-67574754D01*
X124119200Y-67566622D01*
X124119200Y-64509926D01*
X124122568Y-64501794D01*
X124624262Y-64000100D01*
X125135701Y-63488661D01*
X125151408Y-63468833D01*
X125191992Y-63364073D01*
X125191992Y-63251727D01*
X125172654Y-63201809D01*
X125151410Y-63146970D01*
X125151408Y-63146967D01*
X125135702Y-63127139D01*
X123799461Y-61790899D01*
X123799460Y-61790898D01*
X123779636Y-61775193D01*
X123779630Y-61775190D01*
X123674875Y-61734608D01*
X123674873Y-61734608D01*
X123562527Y-61734608D01*
X123562524Y-61734608D01*
X123457770Y-61775189D01*
X123437933Y-61790903D01*
X122101699Y-63127138D01*
X122085993Y-63146963D01*
X122085990Y-63146969D01*
X122045408Y-63251724D01*
X115364231Y-63251724D01*
X115575562Y-62939328D01*
X115575701Y-62939129D01*
X116325322Y-61900718D01*
X116325468Y-61900522D01*
X117106431Y-60885424D01*
X117106556Y-60885267D01*
X117119579Y-60869367D01*
X124974449Y-60869367D01*
X124974449Y-61058334D01*
X125004008Y-61244966D01*
X125062400Y-61424679D01*
X125062401Y-61424682D01*
X125062402Y-61424683D01*
X125148189Y-61593050D01*
X125259259Y-61745924D01*
X125392876Y-61879541D01*
X125545750Y-61990611D01*
X125714117Y-62076398D01*
X125893831Y-62134791D01*
X125987149Y-62149571D01*
X126080466Y-62164351D01*
X126080468Y-62164351D01*
X126269432Y-62164351D01*
X126344084Y-62152527D01*
X126456067Y-62134791D01*
X126635781Y-62076398D01*
X126804148Y-61990611D01*
X126957022Y-61879541D01*
X127090639Y-61745924D01*
X127201709Y-61593050D01*
X127287496Y-61424683D01*
X127345889Y-61244969D01*
X127367713Y-61107175D01*
X127375449Y-61058334D01*
X127375449Y-60869367D01*
X127353458Y-60730520D01*
X127345889Y-60682733D01*
X127287496Y-60503019D01*
X127201709Y-60334652D01*
X127090639Y-60181778D01*
X126957022Y-60048161D01*
X126804148Y-59937091D01*
X126635781Y-59851304D01*
X126635780Y-59851303D01*
X126635777Y-59851302D01*
X126456064Y-59792910D01*
X126269432Y-59763351D01*
X126269430Y-59763351D01*
X126080468Y-59763351D01*
X126080466Y-59763351D01*
X125893833Y-59792910D01*
X125714120Y-59851302D01*
X125545748Y-59937092D01*
X125392876Y-60048161D01*
X125259259Y-60181778D01*
X125148190Y-60334650D01*
X125062400Y-60503022D01*
X125004008Y-60682735D01*
X124974449Y-60869367D01*
X117119579Y-60869367D01*
X117918133Y-59894433D01*
X117918265Y-59894277D01*
X118600246Y-59111624D01*
X126397708Y-59111624D01*
X126397708Y-59223975D01*
X126438289Y-59328729D01*
X126438291Y-59328732D01*
X126438292Y-59328733D01*
X126453998Y-59348561D01*
X127790239Y-60684801D01*
X127793231Y-60687171D01*
X127810063Y-60700506D01*
X127810069Y-60700509D01*
X127810072Y-60700510D01*
X127914827Y-60741092D01*
X127914828Y-60741092D01*
X128027172Y-60741092D01*
X128027173Y-60741092D01*
X128062093Y-60727564D01*
X128131929Y-60700510D01*
X128131930Y-60700509D01*
X128131933Y-60700508D01*
X128151761Y-60684802D01*
X129488001Y-59348561D01*
X129503708Y-59328733D01*
X129544292Y-59223973D01*
X129544292Y-59111627D01*
X129540952Y-59103006D01*
X129503710Y-59006870D01*
X129503708Y-59006867D01*
X129488002Y-58987039D01*
X128151761Y-57650799D01*
X128151760Y-57650798D01*
X128131936Y-57635093D01*
X128131930Y-57635090D01*
X128027175Y-57594508D01*
X128027173Y-57594508D01*
X127914827Y-57594508D01*
X127914824Y-57594508D01*
X127810070Y-57635089D01*
X127790233Y-57650803D01*
X126453999Y-58987038D01*
X126438293Y-59006863D01*
X126438290Y-59006869D01*
X126397708Y-59111624D01*
X118600246Y-59111624D01*
X118759649Y-58928691D01*
X118759807Y-58928515D01*
X119630255Y-57989027D01*
X119630448Y-57988827D01*
X120529089Y-57076375D01*
X120529245Y-57076220D01*
X121455376Y-56191521D01*
X121455553Y-56191357D01*
X122408169Y-55335371D01*
X122408374Y-55335192D01*
X123386607Y-54508691D01*
X123386873Y-54508473D01*
X124002304Y-54019873D01*
X124389865Y-53712182D01*
X124390137Y-53711973D01*
X124605719Y-53551289D01*
X125416974Y-52946619D01*
X125417181Y-52946470D01*
X125464515Y-52913386D01*
X130319500Y-52913386D01*
X130319500Y-53086613D01*
X130346597Y-53257698D01*
X130400125Y-53422441D01*
X130400126Y-53422444D01*
X130400127Y-53422445D01*
X130478768Y-53576788D01*
X130580586Y-53716928D01*
X130703072Y-53839414D01*
X130843212Y-53941232D01*
X130913222Y-53976903D01*
X130918937Y-53983595D01*
X130919500Y-53987149D01*
X130919500Y-67520891D01*
X130953606Y-67648180D01*
X130953610Y-67648190D01*
X130990917Y-67712808D01*
X131019500Y-67762314D01*
X138054500Y-74797314D01*
X138147686Y-74890500D01*
X138261814Y-74956392D01*
X138389107Y-74990500D01*
X138389108Y-74990500D01*
X157502922Y-74990500D01*
X157511054Y-74993868D01*
X158465163Y-75947977D01*
X158468139Y-75953133D01*
X158497922Y-76064282D01*
X158551772Y-76157555D01*
X158576980Y-76201216D01*
X158688784Y-76313020D01*
X158825716Y-76392077D01*
X158978443Y-76433000D01*
X159136557Y-76433000D01*
X159289284Y-76392077D01*
X159426216Y-76313020D01*
X159538020Y-76201216D01*
X159617077Y-76064284D01*
X159658000Y-75911557D01*
X159658000Y-75883577D01*
X159661368Y-75875445D01*
X159669500Y-75872077D01*
X159677632Y-75875445D01*
X159697663Y-75895476D01*
X159700639Y-75900632D01*
X159730421Y-76011778D01*
X159730425Y-76011788D01*
X159769033Y-76078660D01*
X159809480Y-76148716D01*
X159921284Y-76260520D01*
X160058216Y-76339577D01*
X160210943Y-76380500D01*
X160369057Y-76380500D01*
X160521784Y-76339577D01*
X160658716Y-76260520D01*
X160770520Y-76148716D01*
X160849577Y-76011784D01*
X160890500Y-75859057D01*
X160890500Y-75700943D01*
X160849577Y-75548216D01*
X160770520Y-75411284D01*
X160658716Y-75299480D01*
X160658715Y-75299479D01*
X160521788Y-75220425D01*
X160521786Y-75220424D01*
X160521784Y-75220423D01*
X160521780Y-75220422D01*
X160521778Y-75220421D01*
X160410632Y-75190639D01*
X160405476Y-75187663D01*
X157264699Y-72046885D01*
X157257321Y-72039507D01*
X157944478Y-72039507D01*
X157944478Y-72197620D01*
X157985399Y-72350342D01*
X157985403Y-72350352D01*
X158014808Y-72401284D01*
X158064458Y-72487280D01*
X158176262Y-72599084D01*
X158313194Y-72678141D01*
X158465921Y-72719064D01*
X158624035Y-72719064D01*
X158776762Y-72678141D01*
X158913694Y-72599084D01*
X159025498Y-72487280D01*
X159104555Y-72350348D01*
X159126483Y-72268507D01*
X159129457Y-72263355D01*
X159449946Y-71942868D01*
X159458078Y-71939500D01*
X161881922Y-71939500D01*
X161890054Y-71942868D01*
X169147054Y-79199868D01*
X169150422Y-79208000D01*
X169147054Y-79216132D01*
X169138922Y-79219500D01*
X167910130Y-79219500D01*
X167910128Y-79219501D01*
X167885009Y-79222414D01*
X167885007Y-79222414D01*
X167782239Y-79267791D01*
X167782236Y-79267793D01*
X167702793Y-79347236D01*
X167702791Y-79347239D01*
X167657415Y-79450005D01*
X167657413Y-79450013D01*
X167654500Y-79475128D01*
X167654500Y-81164869D01*
X167654501Y-81164871D01*
X167657414Y-81189990D01*
X167657414Y-81189992D01*
X167702791Y-81292760D01*
X167702793Y-81292763D01*
X167702794Y-81292765D01*
X167782235Y-81372206D01*
X167782237Y-81372207D01*
X167782239Y-81372208D01*
X167885005Y-81417584D01*
X167885013Y-81417586D01*
X167903608Y-81419742D01*
X167910135Y-81420500D01*
X169599864Y-81420499D01*
X169599869Y-81420499D01*
X169599870Y-81420498D01*
X169624991Y-81417585D01*
X169624992Y-81417585D01*
X169727760Y-81372208D01*
X169727759Y-81372208D01*
X169727765Y-81372206D01*
X169807206Y-81292765D01*
X169852585Y-81189991D01*
X169855500Y-81164865D01*
X169855499Y-79936076D01*
X169858867Y-79927945D01*
X169866999Y-79924577D01*
X169875131Y-79927945D01*
X170472663Y-80525477D01*
X170475639Y-80530633D01*
X170499551Y-80619870D01*
X170505423Y-80641784D01*
X170584480Y-80778716D01*
X170696284Y-80890520D01*
X170833216Y-80969577D01*
X170985943Y-81010500D01*
X171144057Y-81010500D01*
X171296784Y-80969577D01*
X171433716Y-80890520D01*
X171545520Y-80778716D01*
X171624577Y-80641784D01*
X171665500Y-80489057D01*
X171665500Y-80330943D01*
X171624577Y-80178216D01*
X171545520Y-80041284D01*
X171433716Y-79929480D01*
X171433715Y-79929479D01*
X171333470Y-79871604D01*
X171296784Y-79850423D01*
X171296783Y-79850422D01*
X171242627Y-79835911D01*
X171242626Y-79835911D01*
X171202385Y-79825128D01*
X183694500Y-79825128D01*
X183694500Y-81714869D01*
X183694501Y-81714871D01*
X183697414Y-81739990D01*
X183697414Y-81739992D01*
X183742791Y-81842760D01*
X183742793Y-81842763D01*
X183742794Y-81842765D01*
X183822235Y-81922206D01*
X183822237Y-81922207D01*
X183822239Y-81922208D01*
X183925005Y-81967584D01*
X183925013Y-81967586D01*
X183943608Y-81969742D01*
X183950135Y-81970500D01*
X185839864Y-81970499D01*
X185839869Y-81970499D01*
X185839870Y-81970498D01*
X185864991Y-81967585D01*
X185864992Y-81967585D01*
X185954142Y-81928221D01*
X185967765Y-81922206D01*
X186047206Y-81842765D01*
X186092585Y-81739991D01*
X186095500Y-81714865D01*
X186095499Y-79825136D01*
X186095499Y-79825135D01*
X186095499Y-79825130D01*
X186095498Y-79825128D01*
X186092585Y-79800009D01*
X186092585Y-79800007D01*
X186047208Y-79697239D01*
X186047206Y-79697236D01*
X186047206Y-79697235D01*
X185967765Y-79617794D01*
X185967763Y-79617793D01*
X185967760Y-79617791D01*
X185864994Y-79572415D01*
X185864986Y-79572413D01*
X185839871Y-79569500D01*
X183950130Y-79569500D01*
X183950128Y-79569501D01*
X183925009Y-79572414D01*
X183925007Y-79572414D01*
X183822239Y-79617791D01*
X183822236Y-79617793D01*
X183742793Y-79697236D01*
X183742791Y-79697239D01*
X183697415Y-79800005D01*
X183697413Y-79800013D01*
X183694500Y-79825128D01*
X171202385Y-79825128D01*
X171185632Y-79820639D01*
X171180477Y-79817663D01*
X169498330Y-78135516D01*
X183694500Y-78135516D01*
X183694500Y-78324483D01*
X183724059Y-78511115D01*
X183782451Y-78690828D01*
X183782452Y-78690831D01*
X183782453Y-78690832D01*
X183868240Y-78859199D01*
X183979310Y-79012073D01*
X184112927Y-79145690D01*
X184265801Y-79256760D01*
X184434168Y-79342547D01*
X184613882Y-79400940D01*
X184707200Y-79415720D01*
X184800517Y-79430500D01*
X184800519Y-79430500D01*
X184989483Y-79430500D01*
X185064135Y-79418676D01*
X185176118Y-79400940D01*
X185355832Y-79342547D01*
X185524199Y-79256760D01*
X185677073Y-79145690D01*
X185810690Y-79012073D01*
X185921760Y-78859199D01*
X186007547Y-78690832D01*
X186065940Y-78511118D01*
X186083676Y-78399135D01*
X186095500Y-78324483D01*
X186095500Y-78135516D01*
X186065940Y-77948884D01*
X186065940Y-77948882D01*
X186007547Y-77769168D01*
X185921760Y-77600801D01*
X185810690Y-77447927D01*
X185677073Y-77314310D01*
X185524199Y-77203240D01*
X185355832Y-77117453D01*
X185355831Y-77117452D01*
X185355828Y-77117451D01*
X185176115Y-77059059D01*
X184989483Y-77029500D01*
X184989481Y-77029500D01*
X184800519Y-77029500D01*
X184800517Y-77029500D01*
X184613884Y-77059059D01*
X184434171Y-77117451D01*
X184265799Y-77203241D01*
X184112927Y-77314310D01*
X183979310Y-77447927D01*
X183868241Y-77600799D01*
X183782451Y-77769171D01*
X183724059Y-77948884D01*
X183694500Y-78135516D01*
X169498330Y-78135516D01*
X162401313Y-71038499D01*
X162287190Y-70972610D01*
X162287188Y-70972609D01*
X162287186Y-70972608D01*
X162287182Y-70972607D01*
X162287180Y-70972606D01*
X162159892Y-70938500D01*
X159311893Y-70938500D01*
X159180108Y-70938500D01*
X159052819Y-70972606D01*
X159052809Y-70972610D01*
X158938686Y-71038499D01*
X158458811Y-71518373D01*
X158453656Y-71521349D01*
X158313194Y-71558986D01*
X158176262Y-71638043D01*
X158064457Y-71749848D01*
X157985403Y-71886775D01*
X157985399Y-71886785D01*
X157944478Y-72039507D01*
X157257321Y-72039507D01*
X156648868Y-71431054D01*
X156645500Y-71422922D01*
X156645500Y-70515943D01*
X162944500Y-70515943D01*
X162944500Y-70674056D01*
X162985421Y-70826778D01*
X162985425Y-70826788D01*
X163049921Y-70938500D01*
X163064480Y-70963716D01*
X163176284Y-71075520D01*
X163313216Y-71154577D01*
X163465943Y-71195500D01*
X163624057Y-71195500D01*
X163776784Y-71154577D01*
X163876440Y-71097041D01*
X163882190Y-71095500D01*
X164302922Y-71095500D01*
X164311054Y-71098868D01*
X170192686Y-76980500D01*
X170306814Y-77046392D01*
X170434107Y-77080500D01*
X170434108Y-77080500D01*
X180512850Y-77080500D01*
X180520982Y-77083868D01*
X180523097Y-77086779D01*
X180558768Y-77156788D01*
X180660586Y-77296928D01*
X180783072Y-77419414D01*
X180923212Y-77521232D01*
X181077555Y-77599873D01*
X181242299Y-77653402D01*
X181325697Y-77666611D01*
X181413387Y-77680500D01*
X181413389Y-77680500D01*
X181586613Y-77680500D01*
X181655047Y-77669660D01*
X181757701Y-77653402D01*
X181922445Y-77599873D01*
X182076788Y-77521232D01*
X182216928Y-77419414D01*
X182339414Y-77296928D01*
X182441232Y-77156788D01*
X182519873Y-77002445D01*
X182573402Y-76837701D01*
X182600500Y-76666611D01*
X182600500Y-76493389D01*
X182598300Y-76479500D01*
X182582620Y-76380500D01*
X182573402Y-76322299D01*
X182519873Y-76157555D01*
X182441232Y-76003212D01*
X182339414Y-75863072D01*
X182216928Y-75740586D01*
X182076788Y-75638768D01*
X181922445Y-75560127D01*
X181922444Y-75560126D01*
X181922441Y-75560125D01*
X181757698Y-75506597D01*
X181586613Y-75479500D01*
X181586611Y-75479500D01*
X181413389Y-75479500D01*
X181413387Y-75479500D01*
X181242301Y-75506597D01*
X181077558Y-75560125D01*
X180923210Y-75638769D01*
X180783072Y-75740586D01*
X180660586Y-75863072D01*
X180558769Y-76003210D01*
X180523097Y-76073221D01*
X180516404Y-76078937D01*
X180512850Y-76079500D01*
X170712078Y-76079500D01*
X170703946Y-76076132D01*
X164822313Y-70194499D01*
X164708190Y-70128610D01*
X164708188Y-70128609D01*
X164708186Y-70128608D01*
X164708182Y-70128607D01*
X164708180Y-70128606D01*
X164580892Y-70094500D01*
X163882190Y-70094500D01*
X163876440Y-70092959D01*
X163776788Y-70035425D01*
X163776786Y-70035424D01*
X163776784Y-70035423D01*
X163776780Y-70035422D01*
X163776778Y-70035421D01*
X163624057Y-69994500D01*
X163465943Y-69994500D01*
X163313221Y-70035421D01*
X163313211Y-70035425D01*
X163176284Y-70114479D01*
X163064479Y-70226284D01*
X162985425Y-70363211D01*
X162985421Y-70363221D01*
X162944500Y-70515943D01*
X156645500Y-70515943D01*
X156645500Y-66874035D01*
X157399500Y-66874035D01*
X157399500Y-67125964D01*
X157438909Y-67374782D01*
X157516757Y-67614375D01*
X157516758Y-67614378D01*
X157516759Y-67614379D01*
X157631130Y-67838845D01*
X157779207Y-68042656D01*
X157957344Y-68220793D01*
X158161155Y-68368870D01*
X158385621Y-68483241D01*
X158625215Y-68561090D01*
X158738647Y-68579056D01*
X158874036Y-68600500D01*
X158874038Y-68600500D01*
X159125964Y-68600500D01*
X159225491Y-68584736D01*
X159374785Y-68561090D01*
X159614379Y-68483241D01*
X159736646Y-68420943D01*
X165664500Y-68420943D01*
X165664500Y-68579056D01*
X165705421Y-68731778D01*
X165705425Y-68731788D01*
X165721566Y-68759746D01*
X165784480Y-68868716D01*
X165896284Y-68980520D01*
X166033216Y-69059577D01*
X166185943Y-69100500D01*
X166344057Y-69100500D01*
X166496784Y-69059577D01*
X166633716Y-68980520D01*
X166745520Y-68868716D01*
X166824577Y-68731784D01*
X166865500Y-68579057D01*
X166865500Y-68420943D01*
X166824577Y-68268216D01*
X166752041Y-68142578D01*
X166750500Y-68136828D01*
X166750500Y-65244524D01*
X176422108Y-65244524D01*
X176422108Y-65356875D01*
X176462689Y-65461629D01*
X176462691Y-65461632D01*
X176462692Y-65461633D01*
X176478398Y-65481461D01*
X177814639Y-66817701D01*
X177817631Y-66820071D01*
X177834463Y-66833406D01*
X177834469Y-66833409D01*
X177834472Y-66833410D01*
X177939227Y-66873992D01*
X177939228Y-66873992D01*
X178051572Y-66873992D01*
X178051573Y-66873992D01*
X178086493Y-66860464D01*
X178156329Y-66833410D01*
X178156330Y-66833409D01*
X178156333Y-66833408D01*
X178176161Y-66817702D01*
X179512401Y-65481461D01*
X179528108Y-65461633D01*
X179568692Y-65356873D01*
X179568692Y-65244527D01*
X179550835Y-65198432D01*
X179528110Y-65139770D01*
X179528108Y-65139767D01*
X179512402Y-65119939D01*
X178176161Y-63783699D01*
X178176160Y-63783698D01*
X178156336Y-63767993D01*
X178156330Y-63767990D01*
X178051575Y-63727408D01*
X178051573Y-63727408D01*
X177939227Y-63727408D01*
X177939224Y-63727408D01*
X177834470Y-63767989D01*
X177814633Y-63783703D01*
X176478399Y-65119938D01*
X176462693Y-65139763D01*
X176462690Y-65139769D01*
X176422108Y-65244524D01*
X166750500Y-65244524D01*
X166750500Y-63410165D01*
X174998849Y-63410165D01*
X174998849Y-63599132D01*
X175028408Y-63785764D01*
X175086800Y-63965477D01*
X175086801Y-63965480D01*
X175086802Y-63965481D01*
X175172589Y-64133848D01*
X175283659Y-64286722D01*
X175417276Y-64420339D01*
X175570150Y-64531409D01*
X175738517Y-64617196D01*
X175918231Y-64675589D01*
X176011549Y-64690369D01*
X176104866Y-64705149D01*
X176104868Y-64705149D01*
X176293832Y-64705149D01*
X176368484Y-64693325D01*
X176480467Y-64675589D01*
X176660181Y-64617196D01*
X176828548Y-64531409D01*
X176981422Y-64420339D01*
X177115039Y-64286722D01*
X177226109Y-64133848D01*
X177311896Y-63965481D01*
X177370289Y-63785767D01*
X177399849Y-63599130D01*
X177399849Y-63410168D01*
X177392548Y-63364073D01*
X177370289Y-63223533D01*
X177370289Y-63223531D01*
X177311896Y-63043817D01*
X177226109Y-62875450D01*
X177115039Y-62722576D01*
X176981422Y-62588959D01*
X176828548Y-62477889D01*
X176660181Y-62392102D01*
X176660180Y-62392101D01*
X176660177Y-62392100D01*
X176480464Y-62333708D01*
X176293832Y-62304149D01*
X176293830Y-62304149D01*
X176104868Y-62304149D01*
X176104866Y-62304149D01*
X175918233Y-62333708D01*
X175738520Y-62392100D01*
X175570148Y-62477890D01*
X175417276Y-62588959D01*
X175283659Y-62722576D01*
X175172590Y-62875448D01*
X175086800Y-63043820D01*
X175028408Y-63223533D01*
X174998849Y-63410165D01*
X166750500Y-63410165D01*
X166750500Y-62512077D01*
X166753867Y-62503946D01*
X168262988Y-60994824D01*
X171811708Y-60994824D01*
X171811708Y-61107175D01*
X171852289Y-61211929D01*
X171852291Y-61211932D01*
X171852292Y-61211933D01*
X171867998Y-61231761D01*
X173204239Y-62568001D01*
X173207231Y-62570371D01*
X173224063Y-62583706D01*
X173224069Y-62583709D01*
X173224072Y-62583710D01*
X173328827Y-62624292D01*
X173328828Y-62624292D01*
X173441172Y-62624292D01*
X173441173Y-62624292D01*
X173532379Y-62588959D01*
X173545929Y-62583710D01*
X173545930Y-62583709D01*
X173545933Y-62583708D01*
X173565761Y-62568002D01*
X174902001Y-61231761D01*
X174917708Y-61211933D01*
X174958292Y-61107173D01*
X174958292Y-60994827D01*
X174954729Y-60985629D01*
X174917710Y-60890070D01*
X174917708Y-60890067D01*
X174902002Y-60870239D01*
X173565761Y-59533999D01*
X173565760Y-59533998D01*
X173545936Y-59518293D01*
X173545930Y-59518290D01*
X173441175Y-59477708D01*
X173441173Y-59477708D01*
X173328827Y-59477708D01*
X173328824Y-59477708D01*
X173224070Y-59518289D01*
X173204233Y-59534003D01*
X171867999Y-60870238D01*
X171852293Y-60890063D01*
X171852290Y-60890069D01*
X171811708Y-60994824D01*
X168262988Y-60994824D01*
X168433780Y-60824032D01*
X168438932Y-60821058D01*
X168481784Y-60809577D01*
X168618716Y-60730520D01*
X168730520Y-60618716D01*
X168809577Y-60481784D01*
X168850500Y-60329057D01*
X168850500Y-60170943D01*
X168809577Y-60018216D01*
X168730520Y-59881284D01*
X168618716Y-59769480D01*
X168618715Y-59769479D01*
X168481788Y-59690425D01*
X168481786Y-59690424D01*
X168481784Y-59690423D01*
X168481780Y-59690422D01*
X168481778Y-59690421D01*
X168329057Y-59649500D01*
X168170943Y-59649500D01*
X168018221Y-59690421D01*
X168018211Y-59690425D01*
X167881284Y-59769479D01*
X167769479Y-59881284D01*
X167690425Y-60018211D01*
X167690421Y-60018221D01*
X167649500Y-60170943D01*
X167649500Y-60187922D01*
X167646132Y-60196054D01*
X165849499Y-61992686D01*
X165783610Y-62106809D01*
X165783606Y-62106819D01*
X165749500Y-62234108D01*
X165749500Y-68188790D01*
X165747959Y-68194540D01*
X165705425Y-68268211D01*
X165705421Y-68268221D01*
X165664500Y-68420943D01*
X159736646Y-68420943D01*
X159838845Y-68368870D01*
X160042656Y-68220793D01*
X160220793Y-68042656D01*
X160368870Y-67838845D01*
X160483241Y-67614379D01*
X160561090Y-67374785D01*
X160600500Y-67125962D01*
X160600500Y-66874038D01*
X160594064Y-66833406D01*
X160561090Y-66625217D01*
X160561090Y-66625215D01*
X160483241Y-66385621D01*
X160368870Y-66161155D01*
X160220793Y-65957344D01*
X160042656Y-65779207D01*
X159838845Y-65631130D01*
X159614379Y-65516759D01*
X159614378Y-65516758D01*
X159614375Y-65516757D01*
X159374782Y-65438909D01*
X159125964Y-65399500D01*
X159125962Y-65399500D01*
X158874038Y-65399500D01*
X158874036Y-65399500D01*
X158625217Y-65438909D01*
X158385624Y-65516757D01*
X158161153Y-65631131D01*
X157957344Y-65779207D01*
X157779207Y-65957344D01*
X157631131Y-66161153D01*
X157516757Y-66385624D01*
X157438909Y-66625217D01*
X157399500Y-66874035D01*
X156645500Y-66874035D01*
X156645500Y-63329108D01*
X156622754Y-63244217D01*
X156611392Y-63201814D01*
X156545500Y-63087686D01*
X156452314Y-62994500D01*
X154331849Y-60874035D01*
X157399500Y-60874035D01*
X157399500Y-61125964D01*
X157438909Y-61374782D01*
X157516757Y-61614375D01*
X157516758Y-61614378D01*
X157516759Y-61614379D01*
X157631130Y-61838845D01*
X157779207Y-62042656D01*
X157957344Y-62220793D01*
X158161155Y-62368870D01*
X158385621Y-62483241D01*
X158625215Y-62561090D01*
X158749626Y-62580795D01*
X158874036Y-62600500D01*
X158874038Y-62600500D01*
X159125964Y-62600500D01*
X159231994Y-62583706D01*
X159374785Y-62561090D01*
X159614379Y-62483241D01*
X159838845Y-62368870D01*
X160042656Y-62220793D01*
X160220793Y-62042656D01*
X160368870Y-61838845D01*
X160483241Y-61614379D01*
X160561090Y-61374785D01*
X160600500Y-61125962D01*
X160600500Y-60874038D01*
X160599898Y-60870239D01*
X160570528Y-60684802D01*
X160561090Y-60625215D01*
X160483241Y-60385621D01*
X160368870Y-60161155D01*
X160220793Y-59957344D01*
X160042656Y-59779207D01*
X159838845Y-59631130D01*
X159614379Y-59516759D01*
X159614378Y-59516758D01*
X159614375Y-59516757D01*
X159374782Y-59438909D01*
X159125964Y-59399500D01*
X159125962Y-59399500D01*
X158874038Y-59399500D01*
X158874036Y-59399500D01*
X158625217Y-59438909D01*
X158385624Y-59516757D01*
X158161153Y-59631131D01*
X157957344Y-59779207D01*
X157779207Y-59957344D01*
X157631131Y-60161153D01*
X157516757Y-60385624D01*
X157438909Y-60625217D01*
X157399500Y-60874035D01*
X154331849Y-60874035D01*
X151503868Y-58046054D01*
X151500500Y-58037922D01*
X151500500Y-57987149D01*
X151503868Y-57979017D01*
X151506775Y-57976904D01*
X151576788Y-57941232D01*
X151716928Y-57839414D01*
X151839414Y-57716928D01*
X151941232Y-57576788D01*
X152019873Y-57422445D01*
X152073402Y-57257701D01*
X152100500Y-57086611D01*
X152100500Y-56913389D01*
X152073402Y-56742299D01*
X152019873Y-56577555D01*
X151941232Y-56423212D01*
X151839414Y-56283072D01*
X151716928Y-56160586D01*
X151576788Y-56058768D01*
X151422445Y-55980127D01*
X151422444Y-55980126D01*
X151422441Y-55980125D01*
X151257698Y-55926597D01*
X151086613Y-55899500D01*
X151086611Y-55899500D01*
X150913389Y-55899500D01*
X150913387Y-55899500D01*
X150742301Y-55926597D01*
X150667573Y-55950878D01*
X150658798Y-55950188D01*
X150655887Y-55948073D01*
X147621200Y-52913386D01*
X157239500Y-52913386D01*
X157239500Y-53086613D01*
X157266597Y-53257698D01*
X157320125Y-53422441D01*
X157320126Y-53422444D01*
X157320127Y-53422445D01*
X157398768Y-53576788D01*
X157500586Y-53716928D01*
X157623072Y-53839414D01*
X157763212Y-53941232D01*
X157917555Y-54019873D01*
X158082299Y-54073402D01*
X158167844Y-54086951D01*
X158253387Y-54100500D01*
X158253389Y-54100500D01*
X158426613Y-54100500D01*
X158495047Y-54089660D01*
X158597701Y-54073402D01*
X158672427Y-54049121D01*
X158681202Y-54049811D01*
X158684113Y-54051926D01*
X161246132Y-56613945D01*
X161249500Y-56622077D01*
X161249500Y-65570891D01*
X161283606Y-65698180D01*
X161283610Y-65698190D01*
X161330385Y-65779207D01*
X161349500Y-65812314D01*
X161916998Y-66379811D01*
X161917000Y-66379814D01*
X162010186Y-66473000D01*
X162020703Y-66479072D01*
X162023084Y-66480898D01*
X162657663Y-67115477D01*
X162660639Y-67120633D01*
X162689789Y-67229419D01*
X162690423Y-67231784D01*
X162711604Y-67268470D01*
X162767306Y-67364952D01*
X162769480Y-67368716D01*
X162881284Y-67480520D01*
X163018216Y-67559577D01*
X163170943Y-67600500D01*
X163329057Y-67600500D01*
X163481784Y-67559577D01*
X163618716Y-67480520D01*
X163730520Y-67368716D01*
X163809577Y-67231784D01*
X163850500Y-67079057D01*
X163850500Y-66920943D01*
X163809577Y-66768216D01*
X163730520Y-66631284D01*
X163618716Y-66519480D01*
X163618715Y-66519479D01*
X163481782Y-66440422D01*
X163481783Y-66440422D01*
X163370633Y-66410639D01*
X163365477Y-66407663D01*
X162629813Y-65671999D01*
X162619294Y-65665926D01*
X162616912Y-65664099D01*
X162253868Y-65301054D01*
X162250500Y-65292922D01*
X162250500Y-56344108D01*
X162238547Y-56299500D01*
X162216393Y-56216819D01*
X162216392Y-56216814D01*
X162201748Y-56191450D01*
X162150500Y-56102686D01*
X162057314Y-56009500D01*
X162057311Y-56009498D01*
X159391926Y-53344113D01*
X159388558Y-53335981D01*
X159389121Y-53332427D01*
X159413402Y-53257701D01*
X159440500Y-53086611D01*
X159440500Y-52913389D01*
X159438935Y-52903511D01*
X159419944Y-52783606D01*
X159413402Y-52742299D01*
X159359873Y-52577555D01*
X159281232Y-52423212D01*
X159179414Y-52283072D01*
X159056928Y-52160586D01*
X158916788Y-52058768D01*
X158762445Y-51980127D01*
X158762444Y-51980126D01*
X158762441Y-51980125D01*
X158597698Y-51926597D01*
X158426613Y-51899500D01*
X158426611Y-51899500D01*
X158253389Y-51899500D01*
X158253387Y-51899500D01*
X158082301Y-51926597D01*
X157917558Y-51980125D01*
X157763210Y-52058769D01*
X157623072Y-52160586D01*
X157500586Y-52283072D01*
X157398769Y-52423210D01*
X157320125Y-52577558D01*
X157266597Y-52742301D01*
X157239500Y-52913386D01*
X147621200Y-52913386D01*
X147557313Y-52849499D01*
X147443190Y-52783610D01*
X147443188Y-52783609D01*
X147443186Y-52783608D01*
X147443182Y-52783607D01*
X147443180Y-52783606D01*
X147315892Y-52749500D01*
X146742000Y-52749500D01*
X146733868Y-52746132D01*
X146730500Y-52738000D01*
X146730500Y-52204382D01*
X146733868Y-52196250D01*
X146736775Y-52194137D01*
X146859199Y-52131760D01*
X147012073Y-52020690D01*
X147145690Y-51887073D01*
X147256760Y-51734199D01*
X147342547Y-51565832D01*
X147400940Y-51386118D01*
X147430500Y-51199481D01*
X147430500Y-51010519D01*
X147424697Y-50973882D01*
X147403941Y-50842830D01*
X147400940Y-50823882D01*
X147342547Y-50644168D01*
X147256760Y-50475801D01*
X147145690Y-50322927D01*
X147012073Y-50189310D01*
X146971908Y-50160128D01*
X147569500Y-50160128D01*
X147569500Y-52049869D01*
X147569501Y-52049871D01*
X147572414Y-52074990D01*
X147572414Y-52074992D01*
X147617791Y-52177760D01*
X147617793Y-52177763D01*
X147617794Y-52177765D01*
X147697235Y-52257206D01*
X147697237Y-52257207D01*
X147697239Y-52257208D01*
X147800005Y-52302584D01*
X147800013Y-52302586D01*
X147818608Y-52304742D01*
X147825135Y-52305500D01*
X149714864Y-52305499D01*
X149714869Y-52305499D01*
X149714870Y-52305498D01*
X149739991Y-52302585D01*
X149739992Y-52302585D01*
X149842760Y-52257208D01*
X149842759Y-52257208D01*
X149842765Y-52257206D01*
X149922206Y-52177765D01*
X149967585Y-52074991D01*
X149970499Y-52049870D01*
X149970500Y-52049870D01*
X149970500Y-51160516D01*
X151034500Y-51160516D01*
X151034500Y-51349483D01*
X151064059Y-51536115D01*
X151122451Y-51715828D01*
X151122452Y-51715831D01*
X151122453Y-51715832D01*
X151208240Y-51884199D01*
X151319310Y-52037073D01*
X151452927Y-52170690D01*
X151605801Y-52281760D01*
X151774168Y-52367547D01*
X151953882Y-52425940D01*
X152047200Y-52440720D01*
X152140517Y-52455500D01*
X152140519Y-52455500D01*
X152329483Y-52455500D01*
X152404135Y-52443676D01*
X152516118Y-52425940D01*
X152695832Y-52367547D01*
X152864199Y-52281760D01*
X153017073Y-52170690D01*
X153150690Y-52037073D01*
X153261760Y-51884199D01*
X153347547Y-51715832D01*
X153405940Y-51536118D01*
X153423676Y-51424135D01*
X153435500Y-51349483D01*
X153435500Y-51160516D01*
X153417764Y-51048536D01*
X153405940Y-50973882D01*
X153347547Y-50794168D01*
X153261760Y-50625801D01*
X153150690Y-50472927D01*
X153017073Y-50339310D01*
X152976908Y-50310128D01*
X153574500Y-50310128D01*
X153574500Y-52199869D01*
X153574501Y-52199871D01*
X153577414Y-52224990D01*
X153577414Y-52224992D01*
X153622791Y-52327760D01*
X153622793Y-52327763D01*
X153622794Y-52327765D01*
X153702235Y-52407206D01*
X153702237Y-52407207D01*
X153702239Y-52407208D01*
X153805005Y-52452584D01*
X153805013Y-52452586D01*
X153823608Y-52454742D01*
X153830135Y-52455500D01*
X155719864Y-52455499D01*
X155719869Y-52455499D01*
X155719870Y-52455498D01*
X155744991Y-52452585D01*
X155744992Y-52452585D01*
X155847760Y-52407208D01*
X155847759Y-52407208D01*
X155847765Y-52407206D01*
X155927206Y-52327765D01*
X155972585Y-52224991D01*
X155975500Y-52199865D01*
X155975499Y-50310136D01*
X155975499Y-50310135D01*
X155975499Y-50310130D01*
X155975498Y-50310128D01*
X155972585Y-50285009D01*
X155972585Y-50285007D01*
X155927208Y-50182239D01*
X155927206Y-50182236D01*
X155927206Y-50182235D01*
X155847765Y-50102794D01*
X155847763Y-50102793D01*
X155847760Y-50102791D01*
X155744994Y-50057415D01*
X155744986Y-50057413D01*
X155719871Y-50054500D01*
X153830130Y-50054500D01*
X153830128Y-50054501D01*
X153805009Y-50057414D01*
X153805007Y-50057414D01*
X153702239Y-50102791D01*
X153702236Y-50102793D01*
X153622793Y-50182236D01*
X153622791Y-50182239D01*
X153577415Y-50285005D01*
X153577413Y-50285013D01*
X153574500Y-50310128D01*
X152976908Y-50310128D01*
X152864199Y-50228240D01*
X152772323Y-50181426D01*
X152741779Y-50165863D01*
X152736063Y-50159170D01*
X152735500Y-50155616D01*
X152735500Y-49727078D01*
X152738868Y-49718946D01*
X153203946Y-49253868D01*
X153212078Y-49250500D01*
X158287922Y-49250500D01*
X158296054Y-49253868D01*
X168604449Y-59562263D01*
X168697635Y-59655449D01*
X168758212Y-59690423D01*
X168811763Y-59721341D01*
X168939056Y-59755449D01*
X168939057Y-59755449D01*
X170489566Y-59755449D01*
X170497698Y-59758817D01*
X170499813Y-59761728D01*
X170503763Y-59769480D01*
X170562189Y-59884148D01*
X170673259Y-60037022D01*
X170806876Y-60170639D01*
X170959750Y-60281709D01*
X171128117Y-60367496D01*
X171307831Y-60425889D01*
X171401149Y-60440669D01*
X171494466Y-60455449D01*
X171494468Y-60455449D01*
X171683432Y-60455449D01*
X171758084Y-60443625D01*
X171870067Y-60425889D01*
X172049781Y-60367496D01*
X172218148Y-60281709D01*
X172371022Y-60170639D01*
X172504639Y-60037022D01*
X172615709Y-59884148D01*
X172701496Y-59715781D01*
X172759889Y-59536067D01*
X172789449Y-59349430D01*
X172789449Y-59160468D01*
X172781713Y-59111627D01*
X172765122Y-59006870D01*
X172759889Y-58973831D01*
X172701496Y-58794117D01*
X172615709Y-58625750D01*
X172504639Y-58472876D01*
X172371022Y-58339259D01*
X172218148Y-58228189D01*
X172049781Y-58142402D01*
X172049780Y-58142401D01*
X172049777Y-58142400D01*
X171870064Y-58084008D01*
X171683432Y-58054449D01*
X171683430Y-58054449D01*
X171494468Y-58054449D01*
X171494466Y-58054449D01*
X171307833Y-58084008D01*
X171128120Y-58142400D01*
X170959748Y-58228190D01*
X170806876Y-58339259D01*
X170673259Y-58472876D01*
X170562190Y-58625748D01*
X170499813Y-58748170D01*
X170493120Y-58753886D01*
X170489566Y-58754449D01*
X169217027Y-58754449D01*
X169208895Y-58751081D01*
X158807313Y-48349499D01*
X158693190Y-48283610D01*
X158693188Y-48283609D01*
X158693186Y-48283608D01*
X158693182Y-48283607D01*
X158693180Y-48283606D01*
X158565892Y-48249500D01*
X153065892Y-48249500D01*
X152934107Y-48249500D01*
X152806819Y-48283606D01*
X152806809Y-48283610D01*
X152692686Y-48349499D01*
X151834499Y-49207686D01*
X151768610Y-49321809D01*
X151768606Y-49321819D01*
X151734500Y-49449108D01*
X151734500Y-50155616D01*
X151731132Y-50163748D01*
X151728221Y-50165863D01*
X151696090Y-50182235D01*
X151605801Y-50228240D01*
X151480734Y-50319107D01*
X151452927Y-50339310D01*
X151319310Y-50472927D01*
X151208241Y-50625799D01*
X151122451Y-50794171D01*
X151064059Y-50973884D01*
X151034500Y-51160516D01*
X149970500Y-51160516D01*
X149970500Y-51160067D01*
X149970499Y-50160130D01*
X149970498Y-50160128D01*
X149967585Y-50135009D01*
X149967585Y-50135007D01*
X149922208Y-50032239D01*
X149922206Y-50032236D01*
X149922206Y-50032235D01*
X149842765Y-49952794D01*
X149842763Y-49952793D01*
X149842760Y-49952791D01*
X149739994Y-49907415D01*
X149739986Y-49907413D01*
X149714871Y-49904500D01*
X147825130Y-49904500D01*
X147825128Y-49904501D01*
X147800009Y-49907414D01*
X147800007Y-49907414D01*
X147697239Y-49952791D01*
X147697236Y-49952793D01*
X147617793Y-50032236D01*
X147617791Y-50032239D01*
X147572415Y-50135005D01*
X147572413Y-50135013D01*
X147569500Y-50160128D01*
X146971908Y-50160128D01*
X146859199Y-50078240D01*
X146690832Y-49992453D01*
X146690831Y-49992452D01*
X146690828Y-49992451D01*
X146511115Y-49934059D01*
X146324483Y-49904500D01*
X146324481Y-49904500D01*
X146135519Y-49904500D01*
X146135517Y-49904500D01*
X145948884Y-49934059D01*
X145769171Y-49992451D01*
X145600799Y-50078241D01*
X145447927Y-50189310D01*
X145314310Y-50322927D01*
X145203241Y-50475799D01*
X145117451Y-50644171D01*
X145059059Y-50823884D01*
X145029500Y-51010516D01*
X145029500Y-51199483D01*
X145059059Y-51386115D01*
X145117451Y-51565828D01*
X145117452Y-51565831D01*
X145117453Y-51565832D01*
X145203240Y-51734199D01*
X145314310Y-51887073D01*
X145447927Y-52020690D01*
X145600801Y-52131760D01*
X145723222Y-52194136D01*
X145728937Y-52200828D01*
X145729500Y-52204382D01*
X145729500Y-53045891D01*
X145763606Y-53173180D01*
X145763610Y-53173190D01*
X145812402Y-53257701D01*
X145829500Y-53287314D01*
X146192686Y-53650500D01*
X146306814Y-53716392D01*
X146434108Y-53750500D01*
X146565893Y-53750500D01*
X147037922Y-53750500D01*
X147046054Y-53753868D01*
X149948073Y-56655887D01*
X149951441Y-56664019D01*
X149950878Y-56667573D01*
X149926597Y-56742301D01*
X149899500Y-56913386D01*
X149899500Y-57086613D01*
X149926597Y-57257698D01*
X149980125Y-57422441D01*
X149980126Y-57422444D01*
X149980127Y-57422445D01*
X150058768Y-57576788D01*
X150160586Y-57716928D01*
X150283072Y-57839414D01*
X150423212Y-57941232D01*
X150493222Y-57976903D01*
X150498937Y-57983595D01*
X150499500Y-57987149D01*
X150499500Y-58315891D01*
X150533606Y-58443180D01*
X150533610Y-58443190D01*
X150599499Y-58557313D01*
X155641132Y-63598946D01*
X155644500Y-63607078D01*
X155644500Y-71700891D01*
X155678606Y-71828180D01*
X155678610Y-71828190D01*
X155744499Y-71942313D01*
X157772054Y-73969868D01*
X157775422Y-73978000D01*
X157772054Y-73986132D01*
X157763922Y-73989500D01*
X138667078Y-73989500D01*
X138658946Y-73986132D01*
X131923868Y-67251054D01*
X131920500Y-67242922D01*
X131920500Y-66874035D01*
X139399500Y-66874035D01*
X139399500Y-67125964D01*
X139438909Y-67374782D01*
X139516757Y-67614375D01*
X139516758Y-67614378D01*
X139516759Y-67614379D01*
X139631130Y-67838845D01*
X139779207Y-68042656D01*
X139957344Y-68220793D01*
X140161155Y-68368870D01*
X140385621Y-68483241D01*
X140625215Y-68561090D01*
X140738647Y-68579056D01*
X140874036Y-68600500D01*
X140874038Y-68600500D01*
X141125964Y-68600500D01*
X141225491Y-68584736D01*
X141374785Y-68561090D01*
X141614379Y-68483241D01*
X141838845Y-68368870D01*
X142042656Y-68220793D01*
X142220793Y-68042656D01*
X142368870Y-67838845D01*
X142483241Y-67614379D01*
X142561090Y-67374785D01*
X142600500Y-67125962D01*
X142600500Y-66874038D01*
X142594064Y-66833406D01*
X142561090Y-66625217D01*
X142561090Y-66625215D01*
X142483241Y-66385621D01*
X142368870Y-66161155D01*
X142220793Y-65957344D01*
X142042656Y-65779207D01*
X141838845Y-65631130D01*
X141614379Y-65516759D01*
X141614378Y-65516758D01*
X141614375Y-65516757D01*
X141374782Y-65438909D01*
X141125964Y-65399500D01*
X141125962Y-65399500D01*
X140874038Y-65399500D01*
X140874036Y-65399500D01*
X140625217Y-65438909D01*
X140385624Y-65516757D01*
X140161153Y-65631131D01*
X139957344Y-65779207D01*
X139779207Y-65957344D01*
X139631131Y-66161153D01*
X139516757Y-66385624D01*
X139438909Y-66625217D01*
X139399500Y-66874035D01*
X131920500Y-66874035D01*
X131920500Y-60874035D01*
X139399500Y-60874035D01*
X139399500Y-61125964D01*
X139438909Y-61374782D01*
X139516757Y-61614375D01*
X139516758Y-61614378D01*
X139516759Y-61614379D01*
X139631130Y-61838845D01*
X139779207Y-62042656D01*
X139957344Y-62220793D01*
X140161155Y-62368870D01*
X140385621Y-62483241D01*
X140625215Y-62561090D01*
X140749626Y-62580795D01*
X140874036Y-62600500D01*
X140874038Y-62600500D01*
X141125964Y-62600500D01*
X141231994Y-62583706D01*
X141374785Y-62561090D01*
X141614379Y-62483241D01*
X141838845Y-62368870D01*
X142042656Y-62220793D01*
X142220793Y-62042656D01*
X142368870Y-61838845D01*
X142483241Y-61614379D01*
X142561090Y-61374785D01*
X142600500Y-61125962D01*
X142600500Y-60874038D01*
X142599898Y-60870239D01*
X142570528Y-60684802D01*
X142561090Y-60625215D01*
X142483241Y-60385621D01*
X142368870Y-60161155D01*
X142220793Y-59957344D01*
X142042656Y-59779207D01*
X141838845Y-59631130D01*
X141614379Y-59516759D01*
X141614378Y-59516758D01*
X141614375Y-59516757D01*
X141374782Y-59438909D01*
X141125964Y-59399500D01*
X141125962Y-59399500D01*
X140874038Y-59399500D01*
X140874036Y-59399500D01*
X140625217Y-59438909D01*
X140385624Y-59516757D01*
X140161153Y-59631131D01*
X139957344Y-59779207D01*
X139779207Y-59957344D01*
X139631131Y-60161153D01*
X139516757Y-60385624D01*
X139438909Y-60625217D01*
X139399500Y-60874035D01*
X131920500Y-60874035D01*
X131920500Y-53987149D01*
X131923868Y-53979017D01*
X131926775Y-53976904D01*
X131996788Y-53941232D01*
X132136928Y-53839414D01*
X132259414Y-53716928D01*
X132361232Y-53576788D01*
X132439873Y-53422445D01*
X132493402Y-53257701D01*
X132520500Y-53086611D01*
X132520500Y-52913389D01*
X132518935Y-52903511D01*
X132499944Y-52783606D01*
X132493402Y-52742299D01*
X132439873Y-52577555D01*
X132361232Y-52423212D01*
X132259414Y-52283072D01*
X132136928Y-52160586D01*
X131996788Y-52058768D01*
X131842445Y-51980127D01*
X131842444Y-51980126D01*
X131842441Y-51980125D01*
X131677698Y-51926597D01*
X131506613Y-51899500D01*
X131506611Y-51899500D01*
X131333389Y-51899500D01*
X131333387Y-51899500D01*
X131162301Y-51926597D01*
X130997558Y-51980125D01*
X130843210Y-52058769D01*
X130703072Y-52160586D01*
X130580586Y-52283072D01*
X130478769Y-52423210D01*
X130400125Y-52577558D01*
X130346597Y-52742301D01*
X130319500Y-52913386D01*
X125464515Y-52913386D01*
X126466895Y-52212778D01*
X126467110Y-52212633D01*
X127538715Y-51511289D01*
X127538932Y-51511152D01*
X128631449Y-50842802D01*
X128631652Y-50842683D01*
X129744021Y-50207974D01*
X129744225Y-50207860D01*
X130875452Y-49607360D01*
X130875731Y-49607218D01*
X132024721Y-49041506D01*
X132024899Y-49041422D01*
X133190634Y-48511001D01*
X133190868Y-48510898D01*
X134372216Y-48016282D01*
X134372488Y-48016173D01*
X135568353Y-47557821D01*
X135568577Y-47557739D01*
X136777885Y-47136062D01*
X136778177Y-47135966D01*
X137999763Y-46751370D01*
X137999978Y-46751306D01*
X139232734Y-46404140D01*
X139233020Y-46404064D01*
X140475790Y-46094654D01*
X140475999Y-46094605D01*
X141727663Y-45823231D01*
X141727928Y-45823177D01*
X142987219Y-45590114D01*
X142987511Y-45590064D01*
X144253373Y-45395503D01*
X144253586Y-45395474D01*
X145524822Y-45239604D01*
X145525060Y-45239579D01*
X146800422Y-45122553D01*
X146800658Y-45122535D01*
X148079005Y-45044456D01*
X148079267Y-45044444D01*
X149359350Y-45005388D01*
X149359701Y-45005384D01*
X150640299Y-45005384D01*
X150640649Y-45005388D01*
G37*
%TD.AperFunction*%
%TD*%
M02*
