%TF.GenerationSoftware,KiCad,Pcbnew,9.0.5*%
%TF.CreationDate,2025-11-20T18:17:09+01:00*%
%TF.ProjectId,micromouse-hardware,6d696372-6f6d-46f7-9573-652d68617264,rev?*%
%TF.SameCoordinates,Original*%
%TF.FileFunction,Soldermask,Bot*%
%TF.FilePolarity,Negative*%
%FSLAX46Y46*%
G04 Gerber Fmt 4.6, Leading zero omitted, Abs format (unit mm)*
G04 Created by KiCad (PCBNEW 9.0.5) date 2025-11-20 18:17:09*
%MOMM*%
%LPD*%
G01*
G04 APERTURE LIST*
G04 Aperture macros list*
%AMRotRect*
0 Rectangle, with rotation*
0 The origin of the aperture is its center*
0 $1 length*
0 $2 width*
0 $3 Rotation angle, in degrees counterclockwise*
0 Add horizontal line*
21,1,$1,$2,0,0,$3*%
G04 Aperture macros list end*
%ADD10O,1.600000X1.600000*%
%ADD11C,1.600000*%
%ADD12R,1.600000X1.600000*%
%ADD13R,1.700000X1.700000*%
%ADD14O,1.700000X1.700000*%
%ADD15R,1.800000X1.800000*%
%ADD16C,1.800000*%
%ADD17RotRect,1.800000X1.800000X225.000000*%
%ADD18RotRect,1.800000X1.800000X135.000000*%
G04 APERTURE END LIST*
D10*
%TO.C,R20*%
X181500000Y-66420000D03*
D11*
X181500000Y-76580000D03*
%TD*%
D10*
%TO.C,A1*%
X168755000Y-95560000D03*
X166215000Y-95560000D03*
X163675000Y-95560000D03*
X161135000Y-95560000D03*
X158595000Y-95560000D03*
X156055000Y-95560000D03*
X153515000Y-95560000D03*
X150975000Y-95560000D03*
X148435000Y-95560000D03*
X145895000Y-95560000D03*
X143355000Y-95560000D03*
X140815000Y-95560000D03*
X138275000Y-95560000D03*
X135735000Y-95560000D03*
X133195000Y-95560000D03*
X133195000Y-80320000D03*
X135735000Y-80320000D03*
X138275000Y-80320000D03*
X140815000Y-80320000D03*
X143355000Y-80320000D03*
X145895000Y-80320000D03*
X148435000Y-80320000D03*
X150975000Y-80320000D03*
X153515000Y-80320000D03*
X156055000Y-80320000D03*
X158595000Y-80320000D03*
X161135000Y-80320000D03*
X163675000Y-80320000D03*
X166215000Y-80320000D03*
D12*
X168755000Y-80320000D03*
%TD*%
D13*
%TO.C,ME1*%
X148500000Y-121730000D03*
D14*
X148500000Y-124270000D03*
X148500000Y-126810000D03*
X148500000Y-129350000D03*
X148500000Y-131890000D03*
X148500000Y-134430000D03*
%TD*%
D15*
%TO.C,Q8*%
X184895000Y-80770000D03*
D16*
X184895000Y-78230000D03*
%TD*%
D15*
%TO.C,D3*%
X154775000Y-51255000D03*
D16*
X152235000Y-51255000D03*
%TD*%
D17*
%TO.C,Q5*%
X123618700Y-63307900D03*
D16*
X121822649Y-65103951D03*
%TD*%
D15*
%TO.C,D1*%
X114755000Y-84225000D03*
D16*
X114755000Y-86765000D03*
%TD*%
D15*
%TO.C,Q6*%
X148770000Y-51105000D03*
D16*
X146230000Y-51105000D03*
%TD*%
D11*
%TO.C,R17*%
X131420000Y-53000000D03*
D10*
X141580000Y-53000000D03*
%TD*%
D11*
%TO.C,R18*%
X151000000Y-57000000D03*
D10*
X140840000Y-57000000D03*
%TD*%
D15*
%TO.C,D5*%
X184745000Y-86775000D03*
D16*
X184745000Y-84235000D03*
%TD*%
D13*
%TO.C,ME2*%
X153000000Y-121650000D03*
D14*
X153000000Y-124190000D03*
X153000000Y-126730000D03*
X153000000Y-129270000D03*
X153000000Y-131810000D03*
X153000000Y-134350000D03*
%TD*%
D17*
%TO.C,D2*%
X127971000Y-59167800D03*
D16*
X126174949Y-60963851D03*
%TD*%
D18*
%TO.C,D4*%
X173385000Y-61051000D03*
D16*
X171588949Y-59254949D03*
%TD*%
D11*
%TO.C,R16*%
X119000000Y-77580000D03*
D10*
X119000000Y-67420000D03*
%TD*%
D12*
%TO.C,SW2*%
X117735000Y-99692500D03*
D10*
X115195000Y-99692500D03*
X115195000Y-107312500D03*
X117735000Y-107312500D03*
%TD*%
D18*
%TO.C,Q7*%
X177995400Y-65300700D03*
D16*
X176199349Y-63504649D03*
%TD*%
D13*
%TO.C,J1*%
X129665000Y-104540000D03*
D14*
X129665000Y-107080000D03*
%TD*%
D15*
%TO.C,Q4*%
X114605000Y-78230000D03*
D16*
X114605000Y-80770000D03*
%TD*%
D11*
%TO.C,R19*%
X158340000Y-53000000D03*
D10*
X168500000Y-53000000D03*
%TD*%
D13*
%TO.C,SW3*%
X136540000Y-104450000D03*
D14*
X136540000Y-106990000D03*
X136540000Y-109530000D03*
%TD*%
M02*
