M48
; DRILL file {KiCad 9.0.5} date 2025-11-20T18:16:33+0100
; FORMAT={-:-/ absolute / metric / decimal}
; #@! TF.CreationDate,2025-11-20T18:16:33+01:00
; #@! TF.GenerationSoftware,Kicad,Pcbnew,9.0.5
; #@! TF.FileFunction,Plated,1,2,PTH
FMAT,2
METRIC
; #@! TA.AperFunction,Plated,PTH,ViaDrill
T1C0.300
; #@! TA.AperFunction,Plated,PTH,ViaDrill
T2C0.500
; #@! TA.AperFunction,Plated,PTH,ComponentDrill
T3C0.800
; #@! TA.AperFunction,Plated,PTH,ComponentDrill
T4C0.900
; #@! TA.AperFunction,Plated,PTH,ComponentDrill
T5C1.000
%
G90
G05
T1
X108.55Y-97.93
X108.885Y-93.435
X108.92Y-102.655
X109.15Y-90.15
X109.175Y-82.08
X109.34Y-115.52
X109.8Y-84.6
X109.99Y-103.995
X110.04Y-111.075
X110.09Y-96.22
X110.225Y-108.315
X110.525Y-91.96
X110.745Y-76.74
X111.205Y-145.28
X111.535Y-74.59
X112.215Y-119.695
X113.29Y-73.805
X113.66Y-69.505
X114.25Y-91.75
X114.55Y-93.805
X115.455Y-111.335
X115.585Y-90.22
X116.135Y-68.51
X116.18Y-65.945
X116.805Y-77.965
X116.85Y-75.655
X117.15Y-83.12
X117.245Y-81.92
X117.43Y-93.74
X117.91Y-138.82
X118.13Y-60.99
X118.75Y-89.0
X118.82Y-115.05
X118.905Y-110.9
X119.375Y-104.465
X119.635Y-60.275
X119.7Y-145.365
X119.765Y-74.245
X119.945Y-87.335
X120.25Y-84.0
X120.615Y-90.42
X121.585Y-97.595
X121.65Y-119.805
X122.0Y-73.75
X122.495Y-61.755
X122.505Y-57.905
X122.75Y-70.75
X123.0Y-76.25
X123.16Y-110.125
X123.445Y-108.5
X124.0Y-72.75
X124.215Y-60.07
X124.5Y-88.75
X124.72Y-55.67
X124.835Y-103.725
X125.25Y-66.75
X125.45Y-74.65
X126.045Y-105.835
X126.12Y-97.035
X126.25Y-65.0
X126.25Y-67.5
X126.33Y-76.49
X126.915Y-102.82
X127.0Y-63.75
X127.25Y-62.25
X127.58Y-85.5
X127.59Y-52.26
X127.62Y-111.435
X127.75Y-75.25
X129.19Y-76.39
X129.23Y-93.68
X129.86Y-135.32
X129.92Y-57.345
X130.31Y-74.315
X130.35Y-77.02
X130.925Y-119.045
X131.0Y-68.75
X131.12Y-70.44
X131.56Y-50.005
X131.575Y-101.245
X131.64Y-111.03
X132.155Y-140.625
X132.66Y-112.755
X132.88Y-109.355
X133.0Y-64.75
X133.055Y-73.355
X133.285Y-103.96
X133.45Y-99.2
X133.995Y-91.785
X134.76Y-57.83
X134.815Y-145.085
X135.12Y-76.505
X135.255Y-86.295
X135.625Y-48.795
X136.14Y-61.525
X136.275Y-82.8
X136.32Y-116.325
X136.43Y-76.55
X136.75Y-58.75
X136.75Y-69.25
X137.44Y-77.63
X137.625Y-97.42
X137.705Y-100.51
X138.065Y-70.385
X138.14Y-76.265
X138.43Y-92.415
X138.5Y-64.0
X138.5Y-66.5
X138.8Y-140.47
X138.88Y-89.615
X139.19Y-57.5
X139.445Y-116.95
X140.78Y-82.425
X140.795Y-113.46
X140.83Y-77.845
X141.04Y-48.29
X141.195Y-87.89
X141.425Y-99.2
X142.0Y-64.5
X142.215Y-91.82
X142.395Y-127.5
X142.415Y-82.39
X143.715Y-50.16
X143.92Y-121.67
X143.97Y-77.88
X145.215Y-131.385
X145.495Y-68.675
X145.57Y-122.38
X145.685Y-97.695
X145.755Y-118.655
X145.79Y-120.81
X146.21Y-83.14
X146.255Y-98.49
X146.39Y-123.495
X146.805Y-108.115
X146.97Y-117.295
X146.99Y-104.14
X147.022Y-115.877
X147.08Y-105.695
X147.35Y-111.035
X147.455Y-114.575
X147.61Y-46.385
X148.25Y-62.5
X148.3Y-77.83
X148.4Y-93.27
X148.5Y-89.415
X148.75Y-65.5
X148.75Y-68.25
X149.25Y-61.5
X149.3Y-114.18
X149.32Y-116.005
X149.42Y-111.49
X149.53Y-143.84
X149.67Y-48.155
X149.715Y-87.07
X149.775Y-83.19
X149.844Y-85.191
X149.945Y-100.185
X150.01Y-102.085
X150.555Y-71.985
X150.61Y-76.405
X150.78Y-136.105
X150.785Y-77.305
X150.865Y-134.78
X150.92Y-49.065
X150.945Y-93.2
X151.19Y-138.09
X151.42Y-46.19
X151.555Y-69.12
X151.75Y-85.295
X151.815Y-89.38
X152.0Y-111.545
X152.01Y-113.925
X152.035Y-117.465
X152.065Y-115.65
X152.255Y-96.56
X152.51Y-83.13
X152.72Y-93.0
X152.82Y-87.305
X153.5Y-68.0
X153.635Y-97.525
X153.75Y-57.25
X154.0Y-104.75
X154.0Y-106.25
X154.0Y-108.25
X154.125Y-110.63
X154.25Y-64.5
X154.25Y-67.0
X154.64Y-45.69
X155.2Y-84.42
X155.46Y-82.16
X155.575Y-117.54
X155.835Y-59.195
X155.905Y-86.635
X155.905Y-88.51
X156.25Y-102.75
X156.25Y-104.945
X156.25Y-107.0
X156.25Y-108.41
X156.385Y-132.31
X156.475Y-93.605
X156.645Y-109.875
X156.745Y-124.005
X156.75Y-101.25
X156.97Y-56.325
X157.0Y-61.0
X157.25Y-97.5
X157.31Y-128.47
X157.31Y-138.58
X157.69Y-78.48
X157.705Y-49.99
X157.745Y-110.905
X157.75Y-64.0
X158.135Y-143.385
X158.485Y-118.07
X158.545Y-72.119
X158.63Y-58.37
X158.685Y-85.16
X158.92Y-93.07
X159.0Y-57.0
X159.0Y-64.0
X159.058Y-75.832
X159.315Y-72.88
X159.625Y-86.535
X159.725Y-82.78
X159.97Y-78.75
X160.13Y-52.725
X160.29Y-75.78
X160.29Y-110.81
X160.43Y-92.195
X160.5Y-58.5
X160.5Y-64.0
X160.53Y-97.82
X160.555Y-72.77
X160.695Y-83.615
X160.71Y-115.14
X161.265Y-48.62
X161.555Y-67.675
X161.995Y-97.775
X162.01Y-110.855
X162.17Y-55.305
X163.25Y-67.0
X163.545Y-70.595
X163.575Y-97.775
X163.945Y-67.98
X164.12Y-49.39
X164.16Y-110.715
X164.25Y-61.0
X164.25Y-66.0
X164.25Y-77.585
X164.585Y-76.445
X165.25Y-97.75
X165.255Y-90.455
X165.455Y-135.53
X165.48Y-110.62
X165.525Y-84.96
X165.555Y-78.22
X165.87Y-145.05
X165.89Y-120.18
X166.265Y-68.5
X166.33Y-139.685
X166.855Y-50.645
X166.88Y-74.525
X167.0Y-108.0
X167.0Y-110.75
X167.25Y-104.0
X167.25Y-105.75
X167.485Y-68.395
X167.5Y-99.25
X167.5Y-102.0
X167.75Y-100.75
X168.0Y-72.25
X168.25Y-60.25
X168.5Y-62.25
X168.74Y-89.08
X169.175Y-116.425
X169.25Y-70.25
X169.5Y-98.0
X169.595Y-119.695
X169.645Y-56.0
X169.975Y-61.2
X170.025Y-77.63
X170.485Y-84.96
X170.5Y-63.0
X170.5Y-99.0
X170.75Y-70.25
X171.065Y-80.41
X171.11Y-52.84
X171.25Y-66.0
X171.455Y-113.68
X172.0Y-75.0
X172.69Y-68.0
X172.75Y-69.0
X172.75Y-79.58
X173.0Y-98.5
X173.095Y-53.86
X173.23Y-64.61
X173.5Y-71.0
X173.5Y-74.5
X174.41Y-83.1
X175.0Y-78.0
X175.0Y-104.0
X175.02Y-55.275
X175.3Y-85.655
X175.31Y-88.645
X175.945Y-111.165
X176.41Y-68.06
X176.5Y-99.5
X176.715Y-135.765
X176.92Y-112.305
X177.045Y-57.135
X177.25Y-96.25
X177.35Y-89.035
X178.0Y-71.25
X178.0Y-75.5
X178.5Y-77.75
X178.75Y-69.0
X178.75Y-103.75
X179.245Y-120.075
X179.25Y-100.25
X179.705Y-82.68
X180.2Y-144.41
X180.26Y-86.08
X180.93Y-60.965
X181.9Y-70.035
X182.095Y-103.7
X182.58Y-118.34
X182.85Y-139.25
X183.18Y-62.96
X183.79Y-90.555
X184.12Y-69.535
X184.125Y-92.765
X184.205Y-76.22
X184.955Y-72.695
X184.955Y-74.725
X184.98Y-65.45
X187.285Y-81.88
X187.455Y-100.6
X187.64Y-93.1
X188.12Y-104.5
X188.475Y-72.67
X189.115Y-75.945
X189.56Y-85.79
X189.62Y-107.41
X189.715Y-119.695
X189.955Y-144.11
X190.2Y-114.465
X190.225Y-91.495
X190.335Y-79.635
X190.56Y-95.785
X190.825Y-135.16
T2
X127.4Y-71.765
X147.2Y-109.77
X152.23Y-97.96
X155.207Y-111.372
X160.125Y-112.55
X179.545Y-89.435
T3
X115.195Y-99.692
X115.195Y-107.312
X117.735Y-99.692
X117.735Y-107.312
X119.0Y-67.42
X119.0Y-77.58
X131.42Y-53.0
X140.84Y-57.0
X141.58Y-53.0
X151.0Y-57.0
X158.34Y-53.0
X168.5Y-53.0
X181.5Y-66.42
X181.5Y-76.58
T4
X114.605Y-78.23
X114.605Y-80.77
X114.755Y-84.225
X114.755Y-86.765
X121.823Y-65.104
X123.619Y-63.308
X126.175Y-60.964
X127.971Y-59.168
X146.23Y-51.105
X148.77Y-51.105
X152.235Y-51.255
X154.775Y-51.255
X171.589Y-59.255
X173.385Y-61.051
X176.199Y-63.505
X177.995Y-65.301
X184.745Y-84.235
X184.745Y-86.775
X184.895Y-78.23
X184.895Y-80.77
T5
X129.665Y-104.54
X129.665Y-107.08
X133.195Y-80.32
X133.195Y-95.56
X135.735Y-80.32
X135.735Y-95.56
X136.54Y-104.45
X136.54Y-106.99
X136.54Y-109.53
X138.275Y-80.32
X138.275Y-95.56
X140.815Y-80.32
X140.815Y-95.56
X143.355Y-80.32
X143.355Y-95.56
X145.895Y-80.32
X145.895Y-95.56
X148.435Y-80.32
X148.435Y-95.56
X148.5Y-121.73
X148.5Y-124.27
X148.5Y-126.81
X148.5Y-129.35
X148.5Y-131.89
X148.5Y-134.43
X150.975Y-80.32
X150.975Y-95.56
X153.0Y-121.65
X153.0Y-124.19
X153.0Y-126.73
X153.0Y-129.27
X153.0Y-131.81
X153.0Y-134.35
X153.515Y-80.32
X153.515Y-95.56
X156.055Y-80.32
X156.055Y-95.56
X158.595Y-80.32
X158.595Y-95.56
X161.135Y-80.32
X161.135Y-95.56
X163.675Y-80.32
X163.675Y-95.56
X166.215Y-80.32
X166.215Y-95.56
X168.755Y-80.32
X168.755Y-95.56
M30
